<svg version="1.1" viewBox="0.0 0.0 557.8582677165355 557.8582677165355" fill="none" stroke="none" stroke-linecap="square" stroke-miterlimit="10" xmlns:xlink="http://www.w3.org/1999/xlink" xmlns="http://www.w3.org/2000/svg"><clipPath id="p.0"><path d="m0 0l557.8583 0l0 557.8583l-557.8583 0l0 -557.8583z" clip-rule="nonzero"/></clipPath><g clip-path="url(#p.0)"><path fill="#000000" fill-opacity="0.0" d="m0 0l557.8583 0l0 557.8583l-557.8583 0z" fill-rule="evenodd"/><path fill="#000000" d="m402.78967 186.55156c-1.6060791 12.104721 -4.691437 14.695572 -9.137726 15.929703l2.3457031 7.5358734c0 0 30.997223 6.791992 33.09781 9.38707c2.2231445 2.5908508 6.1749268 11.977936 8.769989 15.557785c6.4200745 8.524872 13.212067 38.410507 10.988922 40.8788c-1.3566895 1.48349 13.216309 21.61435 13.216309 32.607513l-1.2341309 1.8511963l5.5578613 2.8402405l8.769989 -20.502808c-0.49450684 0.49450684 19.019287 20.13086 22.349792 37.42151l-35.194153 49.403656c0 0 -1.7328796 -15.316864 -8.030365 -22.84848c-5.4353027 -6.546875 -13.461426 -12.844391 -13.461426 -12.844391l14.572998 -17.907715l-2.100586 -4.2011414l-2.84021 2.2231445c-5.8029785 -6.791992 -14.323639 -12.595001 -19.141846 -25.316803l-0.2451477 -0.739624c0 0 1.4792786 9.632202 1.8512268 17.163849c0.49447632 7.535858 -1.4835205 45.574463 -1.4835205 45.574463c0 0 0.12680054 4.1968994 -3.5798645 4.446289c0 0 7.2865295 47.670776 7.903595 61.132202c0.49450684 12.227295 -2.962799 66.81268 -2.962799 66.81268l-3.9517822 6.7962036c0 0 8.148712 7.159729 9.509644 10.866364c1.2341309 3.579834 5.0633545 8.77002 3.8292236 12.966919c-1.3609314 4.074341 -9.387085 3.0895996 -12.84436 1.4835205c-3.4615173 -1.4835205 -22.231445 -23.343018 -22.231445 -23.343018l1.2341309 -3.579834l-4.6914062 -4.078583c-5.5578613 -14.573029 -7.041382 -31.859436 -6.9187927 -53.22867l-11.855377 -30.752075l-3.702423 37.42151c4.4420776 18.65158 2.962799 35.69287 1.9737854 51.6268l-6.914551 4.19693l-0.37194824 4.2011414c0 0 -0.86642456 8.271271 -2.5950623 12.966949c-1.7286377 4.5688477 -6.7920227 13.461426 -10.249298 13.461426c-3.4572754 0 -17.04129 -2.100586 -14.944946 -9.387085l2.100586 -7.286499l3.8292236 -12.3498535l-6.424286 -3.2121582c-4.0743713 1.2341614 -0.98480225 -60.637726 -5.9255676 -76.07715c-3.0895996 -9.509644 2.3457031 -56.440826 4.6914062 -57.05789c0 0 -0.86221313 -0.49450684 -2.9627686 -3.579834c-2.2231445 -3.0895996 -6.791992 -41.128174 -6.297516 -51.50003c0.3677063 -10.376068 2.7176514 -37.29895 2.7176514 -37.29895c0 0 -10.621216 7.5358887 -9.264496 17.29065c1.3566895 10.498657 -1.2341614 31.863678 -1.7286377 31.61853l-2.5950928 0.9847717c0 0 5.0633545 5.190155 5.8072205 9.015137c0.49450684 3.0895996 -3.4615173 5.5578613 -2.349945 5.5578613c3.706665 -0.24511719 2.9670105 8.524872 1.2383728 10.2535095c-4.446289 4.9365845 -19.019287 -0.12680054 -19.885712 -5.3127136c-0.86221313 -5.185913 -3.5798645 -13.338867 -0.6170654 -16.424225c2.9627686 -3.089569 -1.6060791 -0.37191772 -1.6060791 -0.37191772c-0.49450684 0.86642456 -8.026154 -23.588165 -5.9255676 -47.05374c0.86221313 -8.643188 13.583984 -31.124008 18.52478 -41.12393c2.096344 -4.2011414 11.977936 -17.168076 17.163849 -19.885727c4.940796 -2.5950623 11.732788 -4.818207 17.16809 -5.68042c3.8292236 -0.49450684 13.338867 -3.4572906 13.338867 -3.4572906l2.2231445 -9.264496c-5.0633545 -0.86221313 -7.9035645 -3.8292236 -10.249298 -15.929718c-0.49450684 -3.0895844 -0.24935913 -6.7920074 -0.12680054 -12.721802c-2.4682617 0.49450684 0 -17.041275 2.4725342 -15.190063c1.3566895 -5.680435 6.542633 -14.695572 18.769928 -14.822372c14.699799 -0.12257385 18.034515 7.781006 19.636353 14.944931c2.7176514 -1.3567047 4.818207 17.04129 1.9779968 15.562012c0.37194824 4.19693 -0.739624 9.509644 -0.98898315 12.349869z" fill-rule="evenodd"/><path fill="#2b67ff" fill-opacity="0.7151" d="m364.37292 172.1013l0 0c0 -4.535446 3.675232 -8.212158 8.208862 -8.212158l0 0c2.1771545 0 4.265106 0.8652191 5.8045654 2.4052887c1.5394592 1.5400848 2.4043274 3.6288757 2.4043274 5.8068695l0 0c0 4.535446 -3.675232 8.212158 -8.208893 8.212158l0 0c-4.5336304 0 -8.208862 -3.676712 -8.208862 -8.212158z" fill-rule="evenodd"/><path stroke="#2b67ff" stroke-width="1.0" stroke-linejoin="round" stroke-linecap="butt" d="m364.37292 172.1013l0 0c0 -4.535446 3.675232 -8.212158 8.208862 -8.212158l0 0c2.1771545 0 4.265106 0.8652191 5.8045654 2.4052887c1.5394592 1.5400848 2.4043274 3.6288757 2.4043274 5.8068695l0 0c0 4.535446 -3.675232 8.212158 -8.208893 8.212158l0 0c-4.5336304 0 -8.208862 -3.676712 -8.208862 -8.212158z" fill-rule="evenodd"/><path fill="#2b67ff" fill-opacity="0.7151" d="m384.1305 172.1013l0 0c0 -4.535446 3.675232 -8.212158 8.208862 -8.212158l0 0c2.177124 0 4.265106 0.8652191 5.8045654 2.4052887c1.5394592 1.5400848 2.4043274 3.6288757 2.4043274 5.8068695l0 0c0 4.535446 -3.6752625 8.212158 -8.208893 8.212158l0 0c-4.5336304 0 -8.208862 -3.676712 -8.208862 -8.212158z" fill-rule="evenodd"/><path stroke="#2b67ff" stroke-width="1.0" stroke-linejoin="round" stroke-linecap="butt" d="m384.1305 172.1013l0 0c0 -4.535446 3.675232 -8.212158 8.208862 -8.212158l0 0c2.177124 0 4.265106 0.8652191 5.8045654 2.4052887c1.5394592 1.5400848 2.4043274 3.6288757 2.4043274 5.8068695l0 0c0 4.535446 -3.6752625 8.212158 -8.208893 8.212158l0 0c-4.5336304 0 -8.208862 -3.676712 -8.208862 -8.212158z" fill-rule="evenodd"/><path fill="#2b67ff" d="m379.54477 173.0676l0 0c0.48294067 -1.0870972 1.5334167 -1.8123779 2.7207336 -1.8784637c1.1872864 -0.066085815 2.3117065 0.538147 2.912201 1.5649414l-0.98205566 0.5747833l0 0c-0.3849182 -0.65844727 -1.1057434 -1.0459442 -1.8669128 -1.0035706c-0.76119995 0.0423584 -1.4346313 0.5074768 -1.7441711 1.2045898z" fill-rule="evenodd"/><path fill="#2b67ff" fill-opacity="0.7151" d="m475.04733 292.35898c2.5116882 -0.71191406 5.4267883 6.7451477 8.0000305 10.024933c2.5732117 3.2797546 5.0830383 5.6001587 7.43927 9.653717c2.3562317 4.0535583 5.395813 11.325928 6.6981506 14.667572c1.3023376 3.3416138 2.5422058 2.4736633 1.1158752 5.382263c-1.4263306 2.9085693 -4.65094 5.138031 -9.673828 12.069214c-5.0229187 6.9312134 -16.12262 23.360535 -20.463593 29.517975c-4.340973 6.1574097 -4.62088 6.5604553 -5.582245 7.4265747c-0.96136475 0.8661194 0.03100586 -1.0540161 -0.18597412 -2.2299194c-0.21697998 -1.1759033 -0.24798584 -2.0720215 -1.1159058 -4.82547c-0.8679199 -2.7534485 -1.6733704 -7.765442 -4.091614 -11.695282c-2.418213 -3.9298096 -7.3481445 -9.036926 -10.417786 -11.883636c-3.0696106 -2.8467102 -7.5655823 -3.4020996 -8.0 -5.1966553c-0.43441772 -1.7945557 2.1998596 -1.6098938 5.3934937 -5.570648c3.1936035 -3.9607239 9.799225 -12.686493 13.768219 -18.193878c3.9690247 -5.5073547 7.1931763 -9.992584 10.045807 -14.850372c2.8526611 -4.857788 4.5584106 -13.584473 7.070099 -14.296387z" fill-rule="evenodd"/><path stroke="#2b67ff" stroke-width="1.0" stroke-linejoin="round" stroke-linecap="butt" d="m475.04733 292.35898c2.5116882 -0.71191406 5.4267883 6.7451477 8.0000305 10.024933c2.5732117 3.2797546 5.0830383 5.6001587 7.43927 9.653717c2.3562317 4.0535583 5.395813 11.325928 6.6981506 14.667572c1.3023376 3.3416138 2.5422058 2.4736633 1.1158752 5.382263c-1.4263306 2.9085693 -4.65094 5.138031 -9.673828 12.069214c-5.0229187 6.9312134 -16.12262 23.360535 -20.463593 29.517975c-4.340973 6.1574097 -4.62088 6.5604553 -5.582245 7.4265747c-0.96136475 0.8661194 0.03100586 -1.0540161 -0.18597412 -2.2299194c-0.21697998 -1.1759033 -0.24798584 -2.0720215 -1.1159058 -4.82547c-0.8679199 -2.7534485 -1.6733704 -7.765442 -4.091614 -11.695282c-2.418213 -3.9298096 -7.3481445 -9.036926 -10.417786 -11.883636c-3.0696106 -2.8467102 -7.5655823 -3.4020996 -8.0 -5.1966553c-0.43441772 -1.7945557 2.1998596 -1.6098938 5.3934937 -5.570648c3.1936035 -3.9607239 9.799225 -12.686493 13.768219 -18.193878c3.9690247 -5.5073547 7.1931763 -9.992584 10.045807 -14.850372c2.8526611 -4.857788 4.5584106 -13.584473 7.070099 -14.296387z" fill-rule="evenodd"/></g></svg>