<svg version="1.1" viewBox="0.0 0.0 557.8582677165355 557.8582677165355" fill="none" stroke="none" stroke-linecap="square" stroke-miterlimit="10" xmlns:xlink="http://www.w3.org/1999/xlink" xmlns="http://www.w3.org/2000/svg"><clipPath id="p.0"><path d="m0 0l557.8583 0l0 557.8583l-557.8583 0l0 -557.8583z" clip-rule="nonzero"/></clipPath><g clip-path="url(#p.0)"><path fill="#000000" fill-opacity="0.0" d="m0 0l557.8583 0l0 557.8583l-557.8583 0z" fill-rule="evenodd"/><path fill="#d9ead3" fill-opacity="0.7039" d="m234.70123 401.93713c14.498199 1.0374756 26.190155 8.277771 37.217865 16.950958l-6.1593933 13.619171l-37.21788 -16.950958z" fill-rule="evenodd"/><path stroke="#2b67ff" stroke-width="0.5380577427821522" stroke-miterlimit="17.0862" stroke-linecap="butt" d="m234.70123 401.93713c14.498199 1.0374756 26.190155 8.277771 37.217865 16.950958l-6.1593933 13.619171l-37.21788 -16.950958z" fill-rule="evenodd"/><path fill="#000000" d="m348.14557 282.32376l3.1375427 0.1244812l2.382141 7.0219116l-9.15509 -0.1244812l-0.2489624 -2.6353455c1.3777771 0.8798828 3.008789 -1.1288452 3.635437 -2.1289062zm-45.52658 -159.78726c-0.75109863 -3.133255 -5.515381 -13.417191 -3.3864746 -23.07447c2.3864136 -10.786118 3.0130615 -11.790474 8.403992 -16.554733c8.528442 -6.6484985 20.069977 -5.3952026 27.091888 -2.3864212c9.15509 4.141899 16.430267 13.799187 16.430267 13.799187l-2.25766 2.3821259l-0.25323486 5.141968c-0.62664795 3.0087814 -1.2532959 4.262085 -3.257721 6.519745c-1.2575989 3.0130692 -0.7554321 2.0087128 -0.8798828 6.0218506c0.25323486 1.8799515 1.8799438 4.8930206 0.50216675 5.7686157l-3.1375427 0.37770844l-0.3734131 5.644142c-0.7554321 0.8755951 -0.8798828 5.2664413 -0.50219727 7.7730484c-0.75109863 2.5108948 -2.2576294 3.0130615 -4.5152893 3.2620087c-3.635437 0.3777008 -7.275177 -0.62664795 -7.275177 -0.62664795c-1.631012 -0.12446594 -1.8799438 1.7554779 -2.7598267 4.8930206l-0.1244812 7.146393l1.631012 4.639786c4.7642517 4.51532 8.528473 8.906158 9.03064 14.550308c-1.8799438 23.705414 -2.382141 41.01126 0.24893188 61.956833l9.910522 29.722992l-2.8843079 5.8973694l1.631012 10.159454c1.2532959 0.75112915 2.5065918 1.3777771 2.004425 2.631073l5.0174866 0.7554321l4.1376038 10.532867l18.06128 -0.24893188l2.25766 58.570343l-44.522217 2.004425c0.62664795 15.425903 5.7686157 35.744812 5.0131836 46.655396c-1.7554626 22.70105 1.7554932 46.78418 3.7642212 48.41519l-2.5066223 3.1332397l3.3865051 3.1375427l12.915009 7.146393c0 0 16.430237 -1.004364 12.292633 8.15506c-4.2663574 2.1288757 -12.163879 2.3821106 -12.163879 2.3821106c-7.7773438 0.1244812 -16.807953 -1.1288147 -25.714142 -4.0131226l-0.3734131 2.1288757l-13.545929 1.631012l-1.2532959 -19.185791l2.2576294 -4.6440735l-3.5152283 0.8798828l-1.1288452 -6.7729797l-2.25766 -51.295197c-8.150726 -18.438995 -9.528503 -41.642212 -11.661682 -58.068176c-0.50219727 7.6485596 -6.897461 32.60727 -12.79483 47.78424c-4.1376343 10.9105835 -27.087616 66.09445 -27.087616 66.09445c-3.5152588 2.1331787 -8.7816925 0.87557983 -8.7816925 0.62664795c0 6.146332 3.0087738 9.657288 3.0087738 9.657288c1.631012 0.8798828 5.1462708 4.1376038 8.781708 4.8930054c5.5196533 1.000061 9.030609 2.382141 5.2664185 9.528534c0.25323486 0.12875366 -10.408386 1.7554626 -21.447739 -1.8799438l-7.270874 -8.906189c-1.12883 -2.3821106 -5.6441345 -7.2708435 -5.6441345 -7.2708435c0 0 -2.008728 1.000061 -2.8843079 1.626709l-8.2795105 -9.9062195l4.3908386 -5.141968l-1.8842468 -3.5109558l30.856094 -60.828003c-0.12446594 -14.674805 10.030701 -38.38022 8.901886 -51.672913c-1.1288452 -10.9105835 0.8798828 -35.118195 0.8798828 -35.118195l-8.150757 -1.2532959l4.7642517 -27.21637c-11.537231 -3.1375427 -12.163879 -31.105026 -14.172592 -42.51779c2.1331787 -16.554733 14.923721 -40.886795 28.594131 -64.09003c3.262024 -4.639786 13.674713 -5.141968 25.087494 -5.141968c6.6441956 -6.1463165 11.159515 -16.6792 2.1288757 -22.70105z" fill-rule="evenodd"/><path stroke="#000000" stroke-width="0.23097112860892388" stroke-miterlimit="29.2208" stroke-linecap="butt" d="m348.14557 282.32376l3.1375427 0.1244812l2.382141 7.0219116l-9.15509 -0.1244812l-0.2489624 -2.6353455c1.3777771 0.8798828 3.008789 -1.1288452 3.635437 -2.1289062zm-45.52658 -159.78726c-0.75109863 -3.133255 -5.515381 -13.417191 -3.3864746 -23.07447c2.3864136 -10.786118 3.0130615 -11.790474 8.403992 -16.554733c8.528442 -6.6484985 20.069977 -5.3952026 27.091888 -2.3864212c9.15509 4.141899 16.430267 13.799187 16.430267 13.799187l-2.25766 2.3821259l-0.25323486 5.141968c-0.62664795 3.0087814 -1.2532959 4.262085 -3.257721 6.519745c-1.2575989 3.0130692 -0.7554321 2.0087128 -0.8798828 6.0218506c0.25323486 1.8799515 1.8799438 4.8930206 0.50216675 5.7686157l-3.1375427 0.37770844l-0.3734131 5.644142c-0.7554321 0.8755951 -0.8798828 5.2664413 -0.50219727 7.7730484c-0.75109863 2.5108948 -2.2576294 3.0130615 -4.5152893 3.2620087c-3.635437 0.3777008 -7.275177 -0.62664795 -7.275177 -0.62664795c-1.631012 -0.12446594 -1.8799438 1.7554779 -2.7598267 4.8930206l-0.1244812 7.146393l1.631012 4.639786c4.7642517 4.51532 8.528473 8.906158 9.03064 14.550308c-1.8799438 23.705414 -2.382141 41.01126 0.24893188 61.956833l9.910522 29.722992l-2.8843079 5.8973694l1.631012 10.159454c1.2532959 0.75112915 2.5065918 1.3777771 2.004425 2.631073l5.0174866 0.7554321l4.1376038 10.532867l18.06128 -0.24893188l2.25766 58.570343l-44.522217 2.004425c0.62664795 15.425903 5.7686157 35.744812 5.0131836 46.655396c-1.7554626 22.70105 1.7554932 46.78418 3.7642212 48.41519l-2.5066223 3.1332397l3.3865051 3.1375427l12.915009 7.146393c0 0 16.430237 -1.004364 12.292633 8.15506c-4.2663574 2.1288757 -12.163879 2.3821106 -12.163879 2.3821106c-7.7773438 0.1244812 -16.807953 -1.1288147 -25.714142 -4.0131226l-0.3734131 2.1288757l-13.545929 1.631012l-1.2532959 -19.185791l2.2576294 -4.6440735l-3.5152283 0.8798828l-1.1288452 -6.7729797l-2.25766 -51.295197c-8.150726 -18.438995 -9.528503 -41.642212 -11.661682 -58.068176c-0.50219727 7.6485596 -6.897461 32.60727 -12.79483 47.78424c-4.1376343 10.9105835 -27.087616 66.09445 -27.087616 66.09445c-3.5152588 2.1331787 -8.7816925 0.87557983 -8.7816925 0.62664795c0 6.146332 3.0087738 9.657288 3.0087738 9.657288c1.631012 0.8798828 5.1462708 4.1376038 8.781708 4.8930054c5.5196533 1.000061 9.030609 2.382141 5.2664185 9.528534c0.25323486 0.12875366 -10.408386 1.7554626 -21.447739 -1.8799438l-7.270874 -8.906189c-1.12883 -2.3821106 -5.6441345 -7.2708435 -5.6441345 -7.2708435c0 0 -2.008728 1.000061 -2.8843079 1.626709l-8.2795105 -9.9062195l4.3908386 -5.141968l-1.8842468 -3.5109558l30.856094 -60.828003c-0.12446594 -14.674805 10.030701 -38.38022 8.901886 -51.672913c-1.1288452 -10.9105835 0.8798828 -35.118195 0.8798828 -35.118195l-8.150757 -1.2532959l4.7642517 -27.21637c-11.537231 -3.1375427 -12.163879 -31.105026 -14.172592 -42.51779c2.1331787 -16.554733 14.923721 -40.886795 28.594131 -64.09003c3.262024 -4.639786 13.674713 -5.141968 25.087494 -5.141968c6.6441956 -6.1463165 11.159515 -16.6792 2.1288757 -22.70105z" fill-rule="evenodd"/><path fill="#2b67ff" fill-opacity="0.5698" d="m234.78806 402.68167c11.466965 12.125153 24.206055 15.144836 37.12314 16.907806l-9.560944 21.14038c-13.8471985 -2.3674316 -26.745697 -6.868347 -37.12314 -16.907806z" fill-rule="evenodd"/><path stroke="#2b67ff" stroke-width="1.0" stroke-linejoin="round" stroke-linecap="butt" d="m234.78806 402.68167c11.466965 12.125153 24.206055 15.144836 37.12314 16.907806l-9.560944 21.14038c-13.8471985 -2.3674316 -26.745697 -6.868347 -37.12314 -16.907806z" fill-rule="evenodd"/><path fill="#cfe2f3" d="m197.34067 415.27774l0 0c0 -2.3562012 1.9100952 -4.2662964 4.2662964 -4.2662964l6.3977203 0l0 0c1.131485 0 2.2166443 0.4494934 3.0167236 1.2495728c0.80007935 0.80007935 1.2495728 1.8852234 1.2495728 3.0167236l0 0l0 0c0 2.3562012 -1.9100952 4.2662964 -4.2662964 4.2662964l-6.3977203 0c-2.3562012 0 -4.2662964 -1.9100952 -4.2662964 -4.2662964z" fill-rule="evenodd"/><path stroke="#2b67ff" stroke-width="3.0" stroke-linejoin="round" stroke-linecap="butt" d="m197.34067 415.27774l0 0c0 -2.3562012 1.9100952 -4.2662964 4.2662964 -4.2662964l6.3977203 0l0 0c1.131485 0 2.2166443 0.4494934 3.0167236 1.2495728c0.80007935 0.80007935 1.2495728 1.8852234 1.2495728 3.0167236l0 0l0 0c0 2.3562012 -1.9100952 4.2662964 -4.2662964 4.2662964l-6.3977203 0c-2.3562012 0 -4.2662964 -1.9100952 -4.2662964 -4.2662964z" fill-rule="evenodd"/><path fill="#000000" fill-opacity="0.0" d="m203.05917 415.27774l0 0c0 -0.55130005 0.44691467 -0.99819946 0.99819946 -0.99819946l1.5037384 0l0 0c0.26474 0 0.518631 0.105163574 0.70584106 0.2923584c0.18719482 0.18719482 0.2923584 0.44110107 0.2923584 0.70584106l0 0l0 0c0 0.55130005 -0.4468994 0.99819946 -0.99819946 0.99819946l-1.5037384 0c-0.5512848 0 -0.99819946 -0.4468994 -0.99819946 -0.99819946z" fill-rule="evenodd"/><path stroke="#2b67ff" stroke-width="3.0" stroke-linejoin="round" stroke-linecap="butt" d="m203.05917 415.27774l0 0c0 -0.55130005 0.44691467 -0.99819946 0.99819946 -0.99819946l1.5037384 0l0 0c0.26474 0 0.518631 0.105163574 0.70584106 0.2923584c0.18719482 0.18719482 0.2923584 0.44110107 0.2923584 0.70584106l0 0l0 0c0 0.55130005 -0.4468994 0.99819946 -0.99819946 0.99819946l-1.5037384 0c-0.5512848 0 -0.99819946 -0.4468994 -0.99819946 -0.99819946z" fill-rule="evenodd"/><path fill="#cfe2f3" d="m215.51791 408.8953l0 0c0.5155792 -2.2986755 2.7969666 -3.743988 5.0955963 -3.2282104l6.2450714 1.4013062l0 0c1.1038513 0.24768066 2.0641327 0.9237366 2.6695862 1.879425c0.60546875 0.9556885 0.80651855 2.112732 0.55892944 3.2166138l0 0l0 0c-0.5155945 2.2986755 -2.7969666 3.743988 -5.0955963 3.2282104l-6.2450714 -1.4013062c-2.298645 -0.5157776 -3.7440948 -2.7973633 -3.2285156 -5.096039z" fill-rule="evenodd"/><path stroke="#2b67ff" stroke-width="3.0" stroke-linejoin="round" stroke-linecap="butt" d="m215.51791 408.8953l0 0c0.5155792 -2.2986755 2.7969666 -3.743988 5.0955963 -3.2282104l6.2450714 1.4013062l0 0c1.1038513 0.24768066 2.0641327 0.9237366 2.6695862 1.879425c0.60546875 0.9556885 0.80651855 2.112732 0.55892944 3.2166138l0 0l0 0c-0.5155945 2.2986755 -2.7969666 3.743988 -5.0955963 3.2282104l-6.2450714 -1.4013062c-2.298645 -0.5157776 -3.7440948 -2.7973633 -3.2285156 -5.096039z" fill-rule="evenodd"/><path fill="#000000" fill-opacity="0.0" d="m221.0981 410.1474l0 0c0.12063599 -0.5378113 0.65441895 -0.87597656 1.1922302 -0.75531006l1.467865 0.32937622l0 0c0.25827026 0.05795288 0.48295593 0.21612549 0.62461853 0.43972778c0.1416626 0.2236023 0.18870544 0.49432373 0.13076782 0.752594l0 0l0 0c-0.12063599 0.5378418 -0.65441895 0.8760071 -1.1922302 0.7553406l-1.467865 -0.32937622c-0.53782654 -0.120666504 -0.87602234 -0.6545105 -0.75538635 -1.1923523z" fill-rule="evenodd"/><path stroke="#2b67ff" stroke-width="3.0" stroke-linejoin="round" stroke-linecap="butt" d="m221.0981 410.1474l0 0c0.12063599 -0.5378113 0.65441895 -0.87597656 1.1922302 -0.75531006l1.467865 0.32937622l0 0c0.25827026 0.05795288 0.48295593 0.21612549 0.62461853 0.43972778c0.1416626 0.2236023 0.18870544 0.49432373 0.13076782 0.752594l0 0l0 0c-0.12063599 0.5378418 -0.65441895 0.8760071 -1.1922302 0.7553406l-1.467865 -0.32937622c-0.53782654 -0.120666504 -0.87602234 -0.6545105 -0.75538635 -1.1923523z" fill-rule="evenodd"/><path fill="#000000" d="m234.83446 406.01657l4.126358 3.2083435l-7.1184845 16.413727l-4.1263733 -3.2083435z" fill-rule="evenodd"/><path stroke="#2b67ff" stroke-width="1.0" stroke-linejoin="round" stroke-linecap="butt" d="m234.83446 406.01657l4.126358 3.2083435l-7.1184845 16.413727l-4.1263733 -3.2083435z" fill-rule="evenodd"/><path fill="#ffffff" d="m229.84941 419.53888l0 0c0.3652954 -1.0523987 1.3523865 -1.665802 2.2047272 -1.3700867l0 0c0.40931702 0.14199829 0.73217773 0.47894287 0.8975525 0.93673706c0.16539001 0.45776367 0.15975952 0.99884033 -0.015655518 1.5042114l0 0c-0.3652954 1.0523987 -1.3523865 1.665802 -2.2047272 1.3700867l0 0c-0.8523407 -0.29571533 -1.2471771 -1.3885803 -0.881897 -2.4409485z" fill-rule="evenodd"/><path stroke="#2b67ff" stroke-width="1.0" stroke-linejoin="round" stroke-linecap="butt" d="m229.84941 419.53888l0 0c0.3652954 -1.0523987 1.3523865 -1.665802 2.2047272 -1.3700867l0 0c0.40931702 0.14199829 0.73217773 0.47894287 0.8975525 0.93673706c0.16539001 0.45776367 0.15975952 0.99884033 -0.015655518 1.5042114l0 0c-0.3652954 1.0523987 -1.3523865 1.665802 -2.2047272 1.3700867l0 0c-0.8523407 -0.29571533 -1.2471771 -1.3885803 -0.881897 -2.4409485z" fill-rule="evenodd"/><path fill="#ffffff" d="m233.18646 411.25372l0 0c0.28700256 -1.0784912 1.2247467 -1.7623901 2.0944824 -1.5275574l0 0c0.41766357 0.11276245 0.7634735 0.42663574 0.9613342 0.8725891c0.19787598 0.44595337 0.23161316 0.9874573 0.09378052 1.5053406l0 0c-0.28701782 1.0784912 -1.2247467 1.7623901 -2.0944824 1.5275879l0 0c-0.8697357 -0.23483276 -1.3421326 -1.2994995 -1.0551147 -2.3779602z" fill-rule="evenodd"/><path stroke="#2b67ff" stroke-width="1.0" stroke-linejoin="round" stroke-linecap="butt" d="m233.18646 411.25372l0 0c0.28700256 -1.0784912 1.2247467 -1.7623901 2.0944824 -1.5275574l0 0c0.41766357 0.11276245 0.7634735 0.42663574 0.9613342 0.8725891c0.19787598 0.44595337 0.23161316 0.9874573 0.09378052 1.5053406l0 0c-0.28701782 1.0784912 -1.2247467 1.7623901 -2.0944824 1.5275879l0 0c-0.8697357 -0.23483276 -1.3421326 -1.2994995 -1.0551147 -2.3779602z" fill-rule="evenodd"/><path fill="#000000" fill-opacity="0.0" d="m224.51358 410.9138l11.81102 1.1968689" fill-rule="evenodd"/><path stroke="#2b67ff" stroke-width="3.0" stroke-linejoin="round" stroke-linecap="butt" d="m224.51358 410.9138l11.81102 1.1968689" fill-rule="evenodd"/><path fill="#000000" fill-opacity="0.0" d="m206.55931 415.27774l14.551178 -5.13385" fill-rule="evenodd"/><path stroke="#2b67ff" stroke-width="3.0" stroke-linejoin="round" stroke-linecap="butt" d="m206.55931 415.27774l14.551178 -5.13385" fill-rule="evenodd"/><path fill="#cfe2f3" d="m180.1884 422.24402l0 0c-0.98828125 -2.138855 -0.055526733 -4.6737976 2.0833893 -5.661957l5.8071747 -2.6828918l0 0c1.0271301 -0.47454834 2.2007294 -0.52163696 3.262619 -0.1308899c1.0618896 0.39071655 1.9250641 1.1872559 2.3996582 2.2143555l0 0l0 0c0.9882965 2.138855 0.055526733 4.673828 -2.083374 5.6619873l-5.8071747 2.6828918c-2.1389008 0.9881592 -4.673996 0.055358887 -5.6622925 -2.083496z" fill-rule="evenodd"/><path stroke="#2b67ff" stroke-width="3.0" stroke-linejoin="round" stroke-linecap="butt" d="m180.1884 422.24402l0 0c-0.98828125 -2.138855 -0.055526733 -4.6737976 2.0833893 -5.661957l5.8071747 -2.6828918l0 0c1.0271301 -0.47454834 2.2007294 -0.52163696 3.262619 -0.1308899c1.0618896 0.39071655 1.9250641 1.1872559 2.3996582 2.2143555l0 0l0 0c0.9882965 2.138855 0.055526733 4.673828 -2.083374 5.6619873l-5.8071747 2.6828918c-2.1389008 0.9881592 -4.673996 0.055358887 -5.6622925 -2.083496z" fill-rule="evenodd"/><path fill="#000000" fill-opacity="0.0" d="m185.37932 419.84583l0 0c-0.23123169 -0.50042725 -0.013000488 -1.0935364 0.48745728 -1.3247375l1.3649292 -0.63061523l0 0c0.24032593 -0.11102295 0.5149231 -0.122039795 0.76338196 -0.03060913c0.2484436 0.091430664 0.45040894 0.2778015 0.56144714 0.5180969l0 0l0 0c0.23124695 0.50045776 0.013000488 1.0935669 -0.48745728 1.3247681l-1.3649292 0.6305847c-0.5004425 0.23120117 -1.0935974 0.012969971 -1.3248291 -0.4874878z" fill-rule="evenodd"/><path stroke="#2b67ff" stroke-width="3.0" stroke-linejoin="round" stroke-linecap="butt" d="m185.37932 419.84583l0 0c-0.23123169 -0.50042725 -0.013000488 -1.0935364 0.48745728 -1.3247375l1.3649292 -0.63061523l0 0c0.24032593 -0.11102295 0.5149231 -0.122039795 0.76338196 -0.03060913c0.2484436 0.091430664 0.45040894 0.2778015 0.56144714 0.5180969l0 0l0 0c0.23124695 0.50045776 0.013000488 1.0935669 -0.48745728 1.3247681l-1.3649292 0.6305847c-0.5004425 0.23120117 -1.0935974 0.012969971 -1.3248291 -0.4874878z" fill-rule="evenodd"/><path fill="#2b67ff" fill-opacity="0.5698" d="m136.93317 389.0141l5.6936646 -4.7969666l-3.7783356 4.2116394l8.419525 4.789551l-10.334854 -4.2042236zm14.905518 -14.957184l4.5519867 0.07409668l-3.4998474 0.87579346l2.5843658 12.708893l-3.6365051 -13.658783zm-16.137466 15.184296l15.402756 7.1624146l-8.568253 -13.597595l-6.834503 6.4351807zm2.995224 16.285583l2.011856 2.474823l6.566437 -5.9023743l0 0l-6.556732 6.9712524l-2.0215607 -3.5437012zm-1.1878815 -0.27908325l3.1561584 5.0312195l9.102081 -9.871521l-12.25824 4.8403015zm13.291489 -31.914093l5.1505737 19.260101l4.35318 -18.947266l-9.503754 -0.3128357zm15.570145 7.6445923l3.2056732 1.6954956l-2.875122 -0.940094l-4.1011505 6.6600647l3.7705994 -7.4154663zm-8.547104 18.539764l0.3378601 0.006866455l-0.35536194 0.083496094l0.017501831 -0.09036255zm8.132904 -19.273834l-4.5156403 10.175079l9.179474 -8.0468445l-4.6638336 -2.1282349zm-12.347122 19.206116l3.2157593 0.05770874l0.09214783 0.3267517l-2.2557678 0.56539917l1.8427734 9.016998c-0.068115234 0.032592773 -0.14181519 0.07254028 -0.2102356 0.10494995l-2.6846771 -10.071808zm-7.385269 22.022095l3.2140656 0.91311646l-0.96728516 2.6848755l-3.057724 -1.055603l0.8109436 -2.542389zm21.176651 -27.702179l12.416626 -3.5419617l0.14729309 6.842041l-1.267868 -5.6920166l-11.296051 2.3919373zm-2.291275 0.14050293l0.007858276 0.005493164l15.451645 4.3861084l0.7751312 -9.364349l-16.234634 4.972748zm15.263138 52.359253c-0.0054779053 0.007873535 -0.010757446 0.0154418945 -0.008163452 0.0284729c-0.0054779053 0.007873535 -0.0031738281 0.020721436 -0.0031738281 0.020721436c0.0075683594 0.005279541 0.0128479 -0.0022888184 0.0128479 -0.0022888184l0.03225708 -0.046325684c-0.0023040771 -0.0128479 0.0029754639 -0.02041626 -0.0046081543 -0.0256958c0 0 -0.005264282 0.0075683594 -0.013137817 0.002105713zm-35.454773 -20.018188l2.7646484 0.88568115c-0.22521973 6.6059875 3.209259 13.5672 9.60968 18.024414c7.400299 5.153534 16.561691 5.433014 22.97136 1.3635254c-6.1912384 6.75766 -17.47171 7.503937 -26.257034 1.3858643c-7.592865 -5.287628 -11.01561 -14.102692 -9.088654 -21.659485zm35.38347 20.071503c0.018325806 -0.0101623535 0.023605347 -0.01776123 0.034347534 -0.033203125l0.026794434 -0.03845215c0.0107421875 -0.0154418945 0.016021729 -0.023010254 0.02935791 -0.025390625c0 0 0.012863159 -0.002319336 0.020721436 0.0031738281c0.007583618 0.005279541 0.007583618 0.005279541 0.0098724365 0.018127441c0.009963989 0.018615723 0.020126343 0.036956787 0.009384155 0.05239868c-0.005279541 0.0075683594 -0.010757446 0.015411377 -0.023605347 0.017730713c0 0 -0.005279541 0.0075683594 -0.013137817 0.002105713l0 0c0.0154418945 0.0107421875 0.028289795 0.008453369 0.04899597 0.011627197c-0.008163452 0.0284729 -0.01890564 0.043914795 -0.027359009 0.07220459c-0.007583618 -0.0052490234 -0.002105713 -0.013122559 -0.002105713 -0.013122559c0 0 0 0 -0.0025787354 -0.013061523c-0.023025513 -0.016021729 -0.038467407 -0.026794434 -0.046035767 -0.032043457c-0.0154418945 -0.010772705 -0.023025513 -0.016052246 -0.03845215 -0.026794434l-0.010757446 0.0154418945l-0.0154418945 -0.0107421875zm-25.073624 -52.805634l1.106781 4.152191l-3.7441864 1.1278687l2.558792 11.286346c-3.1701813 1.6647339 -6.001877 4.0908813 -8.193054 7.237335c-7.2803955 10.454376 -4.7066345 24.835358 5.755615 32.121246c10.4543915 7.2803955 24.835663 4.706848 32.116074 -5.7475586c7.2858734 -10.46225 4.7118225 -24.843445 -5.742569 -32.12384c-5.0925903 -3.5464478 -11.114441 -4.758362 -16.799026 -3.862152l0.016525269 -11.834717l-3.9037476 1.1768494l0.7843628 -3.4062805l-3.9555664 -0.12728882z" fill-rule="evenodd"/><path stroke="#2b67ff" stroke-width="1.0" stroke-linejoin="round" stroke-linecap="butt" d="m136.93317 389.0141l5.6936646 -4.7969666l-3.7783356 4.2116394l8.419525 4.789551l-10.334854 -4.2042236zm14.905518 -14.957184l4.5519867 0.07409668l-3.4998474 0.87579346l2.5843658 12.708893l-3.6365051 -13.658783zm-16.137466 15.184296l15.402756 7.1624146l-8.568253 -13.597595l-6.834503 6.4351807zm2.995224 16.285583l2.011856 2.474823l6.566437 -5.9023743l0 0l-6.556732 6.9712524l-2.0215607 -3.5437012zm-1.1878815 -0.27908325l3.1561584 5.0312195l9.102081 -9.871521l-12.25824 4.8403015zm13.291489 -31.914093l5.1505737 19.260101l4.35318 -18.947266l-9.503754 -0.3128357zm15.570145 7.6445923l3.2056732 1.6954956l-2.875122 -0.940094l-4.1011505 6.6600647l3.7705994 -7.4154663zm-8.547104 18.539764l0.3378601 0.006866455l-0.35536194 0.083496094l0.017501831 -0.09036255zm8.132904 -19.273834l-4.5156403 10.175079l9.179474 -8.0468445l-4.6638336 -2.1282349zm-12.347122 19.206116l3.2157593 0.05770874l0.09214783 0.3267517l-2.2557678 0.56539917l1.8427734 9.016998c-0.068115234 0.032592773 -0.14181519 0.07254028 -0.2102356 0.10494995l-2.6846771 -10.071808zm-7.385269 22.022095l3.2140656 0.91311646l-0.96728516 2.6848755l-3.057724 -1.055603l0.8109436 -2.542389zm21.176651 -27.702179l12.416626 -3.5419617l0.14729309 6.842041l-1.267868 -5.6920166l-11.296051 2.3919373zm-2.291275 0.14050293l0.007858276 0.005493164l15.451645 4.3861084l0.7751312 -9.364349l-16.234634 4.972748zm15.263138 52.359253c-0.0054779053 0.007873535 -0.010757446 0.0154418945 -0.008163452 0.0284729c-0.0054779053 0.007873535 -0.0031738281 0.020721436 -0.0031738281 0.020721436c0.0075683594 0.005279541 0.0128479 -0.0022888184 0.0128479 -0.0022888184l0.03225708 -0.046325684c-0.0023040771 -0.0128479 0.0029754639 -0.02041626 -0.0046081543 -0.0256958c0 0 -0.005264282 0.0075683594 -0.013137817 0.002105713zm-35.454773 -20.018188l2.7646484 0.88568115c-0.22521973 6.6059875 3.209259 13.5672 9.60968 18.024414c7.400299 5.153534 16.561691 5.433014 22.97136 1.3635254c-6.1912384 6.75766 -17.47171 7.503937 -26.257034 1.3858643c-7.592865 -5.287628 -11.01561 -14.102692 -9.088654 -21.659485zm35.38347 20.071503c0.018325806 -0.0101623535 0.023605347 -0.01776123 0.034347534 -0.033203125l0.026794434 -0.03845215c0.0107421875 -0.0154418945 0.016021729 -0.023010254 0.02935791 -0.025390625c0 0 0.012863159 -0.002319336 0.020721436 0.0031738281c0.007583618 0.005279541 0.007583618 0.005279541 0.0098724365 0.018127441c0.009963989 0.018615723 0.020126343 0.036956787 0.009384155 0.05239868c-0.005279541 0.0075683594 -0.010757446 0.015411377 -0.023605347 0.017730713c0 0 -0.005279541 0.0075683594 -0.013137817 0.002105713l0 0c0.0154418945 0.0107421875 0.028289795 0.008453369 0.04899597 0.011627197c-0.008163452 0.0284729 -0.01890564 0.043914795 -0.027359009 0.07220459c-0.007583618 -0.0052490234 -0.002105713 -0.013122559 -0.002105713 -0.013122559c0 0 0 0 -0.0025787354 -0.013061523c-0.023025513 -0.016021729 -0.038467407 -0.026794434 -0.046035767 -0.032043457c-0.0154418945 -0.010772705 -0.023025513 -0.016052246 -0.03845215 -0.026794434l-0.010757446 0.0154418945l-0.0154418945 -0.0107421875zm-25.073624 -52.805634l1.106781 4.152191l-3.7441864 1.1278687l2.558792 11.286346c-3.1701813 1.6647339 -6.001877 4.0908813 -8.193054 7.237335c-7.2803955 10.454376 -4.7066345 24.835358 5.755615 32.121246c10.4543915 7.2803955 24.835663 4.706848 32.116074 -5.7475586c7.2858734 -10.46225 4.7118225 -24.843445 -5.742569 -32.12384c-5.0925903 -3.5464478 -11.114441 -4.758362 -16.799026 -3.862152l0.016525269 -11.834717l-3.9037476 1.1768494l0.7843628 -3.4062805l-3.9555664 -0.12728882z" fill-rule="evenodd"/><path fill="#000000" fill-opacity="0.0" d="m201.97386 415.0079l-13.417328 3.3700562" fill-rule="evenodd"/><path stroke="#2b67ff" stroke-width="3.0" stroke-linejoin="round" stroke-linecap="butt" d="m201.97386 415.0079l-13.417328 3.3700562" fill-rule="evenodd"/><path fill="#cfe2f3" d="m194.0157 437.2316l0 0c-0.78367615 -2.578186 0.6560669 -5.350891 3.2157593 -6.1929626l4.9643555 -1.6332092l0 0c1.2292023 -0.40438843 2.5575714 -0.30038452 3.692871 0.28912354c1.1352844 0.58950806 1.9845123 1.6162415 2.360855 2.8543396l0 0l0 0c0.78367615 2.578186 -0.6560669 5.3508606 -3.2157593 6.1929626l-4.9643555 1.6331787c-2.5596924 0.84210205 -5.270035 -0.5652771 -6.053726 -3.1434326z" fill-rule="evenodd"/><path stroke="#2b67ff" stroke-width="3.0" stroke-linejoin="round" stroke-linecap="butt" d="m194.0157 437.2316l0 0c-0.78367615 -2.578186 0.6560669 -5.350891 3.2157593 -6.1929626l4.9643555 -1.6332092l0 0c1.2292023 -0.40438843 2.5575714 -0.30038452 3.692871 0.28912354c1.1352844 0.58950806 1.9845123 1.6162415 2.360855 2.8543396l0 0l0 0c0.78367615 2.578186 -0.6560669 5.3508606 -3.2157593 6.1929626l-4.9643555 1.6331787c-2.5596924 0.84210205 -5.270035 -0.5652771 -6.053726 -3.1434326z" fill-rule="evenodd"/><path fill="#000000" fill-opacity="0.0" d="m199.46744 435.43805l0 0c-0.18334961 -0.60324097 0.15350342 -1.2519531 0.7524109 -1.4490051l1.168045 -0.38424683l0 0c0.28761292 -0.09463501 0.59840393 -0.07028198 0.8640442 0.06762695c0.265625 0.13793945 0.46432495 0.37817383 0.5523834 0.6678467l0 0l0 0c0.18334961 0.60324097 -0.15350342 1.2519531 -0.7524109 1.4490051l-1.168045 0.38424683c-0.5989075 0.197052 -1.2330627 -0.13223267 -1.4164276 -0.73547363z" fill-rule="evenodd"/><path stroke="#2b67ff" stroke-width="3.0" stroke-linejoin="round" stroke-linecap="butt" d="m199.46744 435.43805l0 0c-0.18334961 -0.60324097 0.15350342 -1.2519531 0.7524109 -1.4490051l1.168045 -0.38424683l0 0c0.28761292 -0.09463501 0.59840393 -0.07028198 0.8640442 0.06762695c0.265625 0.13793945 0.46432495 0.37817383 0.5523834 0.6678467l0 0l0 0c0.18334961 0.60324097 -0.15350342 1.2519531 -0.7524109 1.4490051l-1.168045 0.38424683c-0.5989075 0.197052 -1.2330627 -0.13223267 -1.4164276 -0.73547363z" fill-rule="evenodd"/><path fill="#cfe2f3" d="m210.41301 429.33517l0 0c-1.2645416 -1.9874268 -0.6783905 -4.623474 1.3092041 -5.8877563l5.4007263 -3.4353638l0 0c0.9544678 -0.6071167 2.111084 -0.8102417 3.2153778 -0.56469727c1.1043091 0.24554443 2.065857 0.91967773 2.6730957 1.8740845l0 0l0 0c1.2645416 1.9874268 0.6783905 4.623474 -1.3092041 5.8877563l-5.4007263 3.4353333c-1.9875793 1.2642822 -4.623947 0.67807007 -5.8884735 -1.3093567z" fill-rule="evenodd"/><path stroke="#2b67ff" stroke-width="3.0" stroke-linejoin="round" stroke-linecap="butt" d="m210.41301 429.33517l0 0c-1.2645416 -1.9874268 -0.6783905 -4.623474 1.3092041 -5.8877563l5.4007263 -3.4353638l0 0c0.9544678 -0.6071167 2.111084 -0.8102417 3.2153778 -0.56469727c1.1043091 0.24554443 2.065857 0.91967773 2.6730957 1.8740845l0 0l0 0c1.2645416 1.9874268 0.6783905 4.623474 -1.3092041 5.8877563l-5.4007263 3.4353333c-1.9875793 1.2642822 -4.623947 0.67807007 -5.8884735 -1.3093567z" fill-rule="evenodd"/><path fill="#000000" fill-opacity="0.0" d="m215.23836 426.2658l0 0c-0.29586792 -0.46499634 -0.15872192 -1.0817871 0.3063202 -1.377594l1.2693939 -0.8074341l0 0c0.22332764 -0.14205933 0.49394226 -0.18960571 0.75231934 -0.13214111c0.25839233 0.0574646 0.48336792 0.21517944 0.6254425 0.43847656l0 0l0 0c0.29586792 0.46502686 0.15872192 1.0817871 -0.3063202 1.377594l-1.2693939 0.8074646c-0.46505737 0.29580688 -1.0818939 0.15863037 -1.3777618 -0.30636597z" fill-rule="evenodd"/><path stroke="#2b67ff" stroke-width="3.0" stroke-linejoin="round" stroke-linecap="butt" d="m215.23836 426.2658l0 0c-0.29586792 -0.46499634 -0.15872192 -1.0817871 0.3063202 -1.377594l1.2693939 -0.8074341l0 0c0.22332764 -0.14205933 0.49394226 -0.18960571 0.75231934 -0.13214111c0.25839233 0.0574646 0.48336792 0.21517944 0.6254425 0.43847656l0 0l0 0c0.29586792 0.46502686 0.15872192 1.0817871 -0.3063202 1.377594l-1.2693939 0.8074646c-0.46505737 0.29580688 -1.0818939 0.15863037 -1.3777618 -0.30636597z" fill-rule="evenodd"/><path fill="#000000" fill-opacity="0.0" d="m202.80432 434.34027l12.440933 -8.062988" fill-rule="evenodd"/><path stroke="#2b67ff" stroke-width="3.0" stroke-linejoin="round" stroke-linecap="butt" d="m202.80432 434.34027l12.440933 -8.062988" fill-rule="evenodd"/><path fill="#cfe2f3" d="m174.25226 435.62692l0 0c0.49577332 -2.3032837 2.7648468 -3.7685242 5.0681305 -3.272705l6.2540436 1.3463135l0 0c1.1060791 0.23812866 2.072281 0.9058533 2.6860352 1.8563538c0.61376953 0.95047 0.8248291 2.105835 0.5867615 3.211914l0 0l0 0c-0.49577332 2.3032837 -2.764862 3.7685242 -5.0681458 3.272705l-6.2540436 -1.3463135c-2.3032837 -0.4958191 -3.7685547 -2.7649536 -3.2727814 -5.068268z" fill-rule="evenodd"/><path stroke="#2b67ff" stroke-width="3.0" stroke-linejoin="round" stroke-linecap="butt" d="m174.25226 435.62692l0 0c0.49577332 -2.3032837 2.7648468 -3.7685242 5.0681305 -3.272705l6.2540436 1.3463135l0 0c1.1060791 0.23812866 2.072281 0.9058533 2.6860352 1.8563538c0.61376953 0.95047 0.8248291 2.105835 0.5867615 3.211914l0 0l0 0c-0.49577332 2.3032837 -2.764862 3.7685242 -5.0681458 3.272705l-6.2540436 -1.3463135c-2.3032837 -0.4958191 -3.7685547 -2.7649536 -3.2727814 -5.068268z" fill-rule="evenodd"/><path fill="#000000" fill-opacity="0.0" d="m179.84232 436.83032l0 0c0.115997314 -0.5389099 0.64689636 -0.8817444 1.1858063 -0.7657471l1.4699707 0.31643677l0 0c0.25880432 0.055725098 0.48486328 0.21194458 0.62846375 0.4343567c0.14361572 0.22238159 0.19299316 0.4927063 0.13728333 0.75149536l0 0l0 0c-0.115997314 0.5389099 -0.64689636 0.8817444 -1.1858063 0.76571655l-1.4699707 -0.31643677c-0.5389099 -0.115997314 -0.8817444 -0.6469116 -0.7657471 -1.1858215z" fill-rule="evenodd"/><path stroke="#2b67ff" stroke-width="3.0" stroke-linejoin="round" stroke-linecap="butt" d="m179.84232 436.83032l0 0c0.115997314 -0.5389099 0.64689636 -0.8817444 1.1858063 -0.7657471l1.4699707 0.31643677l0 0c0.25880432 0.055725098 0.48486328 0.21194458 0.62846375 0.4343567c0.14361572 0.22238159 0.19299316 0.4927063 0.13728333 0.75149536l0 0l0 0c-0.115997314 0.5389099 -0.64689636 0.8817444 -1.1858063 0.76571655l-1.4699707 -0.31643677c-0.5389099 -0.115997314 -0.8817444 -0.6469116 -0.7657471 -1.1858215z" fill-rule="evenodd"/><path fill="#000000" fill-opacity="0.0" d="m199.46744 435.43805l-16.188965 2.1417236" fill-rule="evenodd"/><path stroke="#2b67ff" stroke-width="3.0" stroke-linejoin="round" stroke-linecap="butt" d="m199.46744 435.43805l-16.188965 2.1417236" fill-rule="evenodd"/><path fill="#000000" fill-opacity="0.0" d="m218.19183 424.38712l14.771652 -5.291321" fill-rule="evenodd"/><path stroke="#2b67ff" stroke-width="3.0" stroke-linejoin="round" stroke-linecap="butt" d="m218.19183 424.38712l14.771652 -5.291321" fill-rule="evenodd"/></g></svg>