<svg version="1.1" viewBox="0.0 0.0 557.8582677165355 557.8582677165355" fill="none" stroke="none" stroke-linecap="square" stroke-miterlimit="10" xmlns:xlink="http://www.w3.org/1999/xlink" xmlns="http://www.w3.org/2000/svg"><clipPath id="p.0"><path d="m0 0l557.8583 0l0 557.8583l-557.8583 0l0 -557.8583z" clip-rule="nonzero"/></clipPath><g clip-path="url(#p.0)"><path fill="#000000" fill-opacity="0.0" d="m0 0l557.8583 0l0 557.8583l-557.8583 0z" fill-rule="evenodd"/><path fill="#000000" d="m175.02272 128.0799c0 0 0 0.0052948 0 0.0105896l-0.0052948 0c0 -0.0052948 0 -0.0105896 0.0052948 -0.0105896zm28.416199 24.586365c0 0.011932373 -0.0052948 0.022537231 -0.0052948 0.027832031c-0.0053100586 -0.0052948 -0.011932373 -0.015899658 -0.017227173 -0.027832031zm-3.1579437 0.54333496l0 0c0.2743225 0.19082642 -0.116607666 0.8123474 0.062286377 1.1423187c0.63212585 0.3419037 -0.57115173 2.0885162 0.29684448 2.16008c-0.29154968 2.1613922 -0.3869629 4.4235077 -0.58839417 6.152878c-0.39622498 0.080841064 -0.8242645 0.12324524 -1.2602539 0.12324524c-0.92233276 0 -1.8844299 -0.18684387 -2.6861725 -0.5817566c-0.2292633 -1.1595459 -0.24119568 -2.3455963 -0.3922577 -3.5104523c1.6631165 -1.7863617 2.631836 -3.9517365 4.5679474 -5.486313zm-44.37024 22.493896l0 0c-0.11793518 0.3299713 -0.8110199 1.1025543 -1.2814636 1.4272308c0.29684448 -0.5764618 0.70500183 -1.1025543 1.2814636 -1.4272308zm67.81032 28.925064c1.4828949 0.64404297 2.9618225 1.4895325 4.4553223 2.182602c0.61621094 0.9024658 1.2708588 1.8261261 1.7691345 2.8001404c-1.2032776 0.29022217 -2.3787231 0.7606659 -3.5992432 0.92897034c-0.95147705 -1.9480438 -1.9427338 -3.8735504 -3.1685333 -5.6599274c0.17359924 -0.09541321 0.35780334 -0.17889404 0.5433197 -0.25178528zm-7.165329 0.84017944c1.5557709 1.9414062 2.6702728 4.5401306 4.1478577 6.6776733c-2.121643 0.5155029 -4.210144 1.1423187 -6.3198547 1.6962433c0.5817566 -0.64404297 -0.28625488 -1.4497681 0.17359924 -2.1494598c1.4550629 -1.7969666 -0.07951355 -4.7018127 1.9983978 -6.224457zm-50.814682 11.912201l0 0c0.19613647 0.64933777 0.25709534 1.5557709 0.40286255 2.3071594c-0.37503052 -0.6056061 -0.30213928 -1.5677032 -0.40286255 -2.3071594zm3.0625305 0.64404297c0.072891235 0.73812866 0.25709534 1.4828949 0.11795044 2.222351c-0.062286377 -0.7394562 -0.3193817 -1.5557861 -0.11795044 -2.222351zm-2.1269379 -0.26901245l0 0c0.2292633 0.6546478 0.43598938 1.7797394 0.30744934 2.5019684c-0.1789093 -0.81632996 -0.30215454 -1.6618042 -0.30744934 -2.5019684zm19.98529 -102.37279c-3.7171783 0.31407166 -7.2899017 2.2621078 -9.338654 5.4134293c-2.3562012 2.955185 -2.6026917 6.8631973 -3.7450104 10.333885c-0.49298096 0.97932434 -1.5054321 1.9983978 -1.0628052 3.1857758c-0.9912567 2.6808624 -2.1839294 5.3007812 -2.8783264 8.0890045c-1.2867737 2.609314 -1.9705658 5.453186 -2.1945343 8.34079c-2.0089874 5.1735687 -4.981415 9.892593 -7.288574 14.92569c-1.0694427 1.9414062 -1.6459045 4.1253357 -1.6790314 6.3304596c-0.3299713 2.5695648 -3.2692566 3.1075897 -4.271103 5.2623596c-1.0243835 1.5624084 -2.9843445 2.2448883 -3.9756012 3.8576508c-0.85076904 1.6511841 -2.2276459 2.932663 -3.5091095 4.210144c-0.8958435 -0.80174255 -1.6578217 -2.043457 -2.9618225 -2.2515106c-0.11264038 -0.037109375 -0.23721313 -0.05697632 -0.36442566 -0.05697632c-0.4373169 0 -0.89715576 0.22660828 -0.94487 0.6904297c-0.09541321 1.8579254 1.6896362 3.005539 2.3840332 4.5281982c-0.08879089 0.27430725 -0.26901245 0.5207977 -0.4638214 0.7275238c-0.94088745 -0.58706665 -2.038147 -0.92233276 -3.152649 -0.92233276c-0.16033936 0 -0.32069397 0.007949829 -0.48103333 0.021194458c-1.0747375 0.1285553 -1.5120544 1.7134857 -0.6546478 2.3575287c0.6095886 0.26239014 1.2257996 0.53671265 1.7240753 0.9899292c-2.144165 1.5292664 -5.553894 0.3975525 -7.1997986 2.7431488c-1.3371124 0.53804016 -2.927353 0.21865845 -4.1809845 1.0243835c-1.1754608 1.293396 -0.7619934 4.126663 -2.9220657 4.4513397c-1.1370163 0.5433197 -3.3766022 0.26901245 -3.5329742 1.8473206c0.671875 2.4290771 2.5801544 4.271103 3.437561 6.6339417c1.309288 2.0487518 3.918602 3.1287842 4.724327 5.5472717c0.3524933 0.84547424 0.31407166 2.3124695 1.4948273 2.4290771c1.1012268 0.03843689 2.230301 0.111312866 3.3553925 0.111312866c1.2231598 0 2.4410095 -0.086135864 3.6138153 -0.40151978c3.6615143 -1.3159332 5.1563416 -5.375 7.831909 -7.8438416c0.2796173 0.030471802 0.5592346 0.04373169 0.8388519 0.04373169c1.5305939 0 3.0492706 -0.39889526 4.541443 -0.72091675c1.2761688 -0.2796173 2.260788 -1.3265228 2.5417328 -2.5920868c0.5141754 -1.9135742 2.6808777 -3.2294922 2.4622192 -5.3736725c0.99124146 -0.99124146 1.8764801 -2.0606842 2.3018646 -3.4256287l0 0c0.75535583 1.2205048 -0.072891235 2.41185 -0.4876709 3.5594788c-1.1423187 2.4078827 -1.5451813 5.066223 -2.4184875 7.569519c-0.7606659 2.5019836 -1.5451813 5.2676544 -0.571167 7.825287c0.35913086 0.8521118 0.30877686 1.9493713 0.7341614 2.6994324c0.9965515 -2.1892242 3.8284912 -3.5886383 3.061203 -6.3768463c-0.5817566 -2.2395782 0.067596436 -4.5798798 -0.57115173 -6.8128357c0.2531128 -1.3543549 0.75138855 -2.743164 1.3503723 -4.008728c1.616745 5.8838806 2.4794464 11.929428 3.061203 17.992203c0.04373169 -0.011932373 0.078186035 -0.017227173 0.10734558 -0.017227173c0.25576782 0 -0.010604858 0.43333435 0.0052948 0.63874817c0.3471985 -0.08879089 0.010604858 -0.6148987 0.26901245 -0.7434387l0 0c0.16168213 1.2311096 0.44129944 2.4622192 0.8733063 3.62706c0.16564941 -0.09011841 -0.075531006 -0.8043976 -0.009277344 -0.8043976c0.015914917 0 0.05168152 0.04373169 0.11529541 0.14974976c0.21865845 0.96739197 0.5592346 1.2536316 1.0694427 1.7797394c-0.36444092 -0.89053345 -0.7792206 -1.7466125 -0.50491333 -2.710022l0 0c0.09011841 0.11264038 0.10734558 0.31936646 0.26371765 0.35913086c-0.13383484 -0.7845154 -0.42538452 -1.5796356 -0.20672607 -2.380066c0.011932373 -0.003967285 0.022521973 -0.0066223145 0.03312683 -0.0066223145c0.17758179 0 0.026504517 0.72488403 0.19082642 0.75668335c0.083496094 -0.7778778 -0.08480835 -1.572998 -0.05697632 -2.356186l0 0c0.3538208 0.9687195 0.23588562 2.2621002 0.66656494 3.2864838c-0.15637207 -1.5398865 -0.43598938 -3.0731354 -0.45851135 -4.624939l0 0c0.2849121 2.065979 0.5141754 4.142563 1.0018463 6.180725c0.09541321 -0.15769958 0.16035461 -0.22131348 0.20672607 -0.22131348c0.17758179 0 0.06626892 0.970047 0.3869629 1.1396637c-0.08480835 -0.722229 -0.4426117 -1.4047089 -0.30213928 -2.144165l0 0c0.4691162 1.6127625 0.7659607 3.493225 2.0712738 4.680603c-0.13516235 -1.0416107 -0.5380249 -2.0832214 -0.694397 -3.1632538l0 0c0.34057617 0.2849121 0.2292633 0.96209717 0.694397 1.0919647c-0.9236603 -2.7550812 -0.7672882 -5.9236298 -0.12986755 -8.571381l0 0c0.28094482 0.9130707 -0.25178528 2.1667023 -0.15637207 3.1857758c0.19082642 -0.9687195 0.23588562 -1.9599609 0.47044373 -2.916748c0.63874817 1.6405945 0.35780334 3.6323547 0.36973572 5.2119904c0.36309814 -1.6737213 0.4638214 -3.7344055 0.4638214 -5.559204l0 0c0.3087616 0.25709534 -0.15637207 1.4497681 0.18551636 1.7413177c0.015914917 -0.97402954 0.022537231 -1.9546661 -0.11264038 -2.922058l0 0c0.034454346 0.15106201 0.1789093 0.3286438 0.2531128 0.3286438c0.060958862 0 0.07685852 -0.11529541 -0.045059204 -0.45188904c-0.30213928 -3.9186096 -0.9355774 -7.703369 -2.077896 -11.40332l0 0c2.4582367 5.177536 2.9737396 11.038895 2.5695496 16.716034c0.10734558 1.3318176 0.3419037 2.6477356 0.33659363 3.9901733c0.009277344 -0.37239075 0.06097412 -0.5062256 0.13252258 -0.5062256c0.09277344 0 0.21601868 0.2199707 0.32600403 0.43995667c-0.010604858 -0.30213928 -0.1391449 -0.94618225 0.062286377 -1.0084686c0.3246765 1.4789124 0.93955994 1.9771881 0.9687195 3.4932098c-24.32399 6.6842957 -48.69304 13.217514 -73.01702 19.884583c-0.98462677 0.26371765 -0.65995026 1.5120544 -0.621521 2.2568054c0.3471985 1.0853424 0.5539322 3.0227814 1.9758682 3.2189026c24.532043 -6.5729675 49.02301 -13.346054 73.56035 -19.884567l0 0c0.5764618 1.9533386 -2.3681183 2.7484589 -2.015625 4.7468567c-0.55392456 2.4966583 -2.3628235 4.472534 -3.6999512 6.5835724c-1.5902252 2.0818787 -2.8279572 4.450012 -4.730942 6.281433c-1.8022766 1.5279541 -3.7728424 2.866394 -5.4690857 4.5175934c-2.4966736 2.3681335 -4.4513397 5.2119904 -6.5160065 7.943222c-5.458481 6.443115 -12.663574 10.995178 -19.559906 15.714203c-1.2430267 2.833252 -0.46513367 6.045532 -0.15106201 9.024567c-1.3662872 2.5019836 -3.77417 4.4222107 -4.786621 7.1203003c0.7580261 3.1712036 4.069687 5.5684814 7.3031616 5.5684814c0.9912567 0 1.9732208 -0.2239685 2.8743591 -0.72091675c3.62706 -2.6026917 5.8891754 -6.538513 8.21225 -10.249084c1.9480286 -3.432251 3.8960724 -6.8578796 5.659912 -10.385559c2.232956 -4.2035217 3.9291992 -8.687988 6.1462555 -12.89151l0 0c-1.9705658 5.2398376 -4.2326813 10.372314 -6.7227173 15.388184c-3.7012787 7.3614807 -8.358017 14.510895 -9.601059 22.813263c-0.36972046 2.3615112 0.74476624 4.8475647 2.904831 5.9342346c3.6217651 1.7519226 7.4900208 2.9604797 11.358261 4.0524597c-0.42538452 3.1287842 -1.8976746 6.0124207 -4.0020905 8.358002c-5.9951935 6.5385437 -8.542221 15.266266 -10.910339 23.596466c-1.0137787 1.1635132 -0.9687195 2.7590637 -1.4789276 4.114746c-1.3145905 1.2483215 -2.250183 2.9776917 -1.6233673 4.8250427c-0.89450073 0.8401489 -1.4431305 2.0262146 -0.73812866 3.2082825c-0.5830841 1.0402832 -1.3888092 2.0593567 -1.6127625 3.2970886c-1.421936 1.9029846 -2.4794464 4.243286 -2.0090027 6.6670837c0.4585266 1.572998 -2.1057281 2.4860535 -1.1873779 4.1372375c-1.5557709 4.791931 -6.0004883 7.724579 -8.8112335 11.722717c-0.9011307 1.4656677 -2.5085907 2.4065552 -3.090355 4.0855713c-1.265564 0.6387329 -2.7033997 2.0275574 -2.0991135 3.560791c1.265564 0.7447815 2.4184875 1.8818054 3.8629532 2.1667175c0.27696228 0.55392456 0.8905258 0.84017944 1.5054169 0.84017944c0.56586456 0 1.133049 -0.2425232 1.4391708 -0.7447815c0.2623825 1.0800476 1.3371124 1.5902405 2.361496 1.6737366l0.9302826 0c1.8632355 -0.52612305 3.76091 -1.5001221 4.7017975 -3.281189c0.548645 -1.1979675 1.7187805 -1.8857727 2.5748596 -2.8319397c2.3959656 -2.6026917 3.4773254 -6.052185 5.397537 -8.968933c0.5260925 -0.7156067 0.8388519 -1.5451965 1.2589264 -2.3111572c0.05831909 0.0053100586 0.11264038 0.009277344 0.16564941 0.009277344c1.0429382 0 1.2722015 -1.1529236 2.1415253 -1.4987793c0.6148834 -0.5539551 0.38032532 -1.5054321 0.5194702 -2.1614075c1.2602692 -0.29022217 1.7413177 -1.8022766 1.192688 -2.9101257c-0.26239014 -0.96343994 1.0813599 -0.85079956 1.5173492 -1.4166565c1.5173492 -0.6599426 2.250183 -2.4290771 1.4113312 -3.9238892c1.8976746 -0.8348694 1.3145905 -3.079773 2.3840332 -4.501709c0.31407166 -0.8891907 1.1701508 -1.444458 1.4775848 -2.3336487c0.23588562 -0.63345337 1.3609772 -0.5380554 1.2774963 -1.371582c-0.28623962 -0.671875 0.5698395 -0.991272 0.73283386 -1.5730286c0.5592346 -0.8348694 -0.14576721 -1.9546509 0.5314026 -2.737854c0.37503052 -0.44259644 -0.09541321 -0.9793091 -0.1338501 -1.4497681c1.7519226 -2.5138855 3.2692719 -5.1841736 4.9098663 -7.769623c2.7259216 -4.5016785 3.7503052 -9.847534 6.649826 -14.241882c5.385605 -4.814453 7.585434 -11.958588 9.589127 -18.653473c2.9843445 -1.34375 5.7606354 -3.543579 6.9930725 -6.6564636c2.994934 -6.431183 3.2069702 -13.676025 3.811264 -20.617432c1.6803436 -2.8041077 2.9061584 -5.856018 4.4844666 -8.7052c0.94618225 6.7571716 0.14047241 13.620361 0.8852234 20.393463c0.09408569 1.2549438 0.86138916 2.317749 1.394104 3.4150085c0.8335571 -0.083465576 1.667099 -0.18948364 2.4900513 -0.3471985c3.175171 -1.8632202 5.408127 -4.8806763 8.123459 -7.304474c0.35118103 -0.14974976 0.70103455 -0.21069336 1.0495605 -0.21069336c1.5531311 0 3.0930023 1.2072449 4.632889 1.2072449c0.43466187 0 0.86932373 -0.09542847 1.3039856 -0.34191895c2.5298004 -0.6996765 3.3023987 -3.8019714 4.5069885 -5.526062c7.2885895 5.559204 14.4088745 11.526581 22.643646 15.681061c2.4582367 1.517334 5.1841736 2.5576172 7.580124 4.1703796c1.293396 0.7116394 1.164856 2.4184875 0.58706665 3.5541992c-1.1250916 1.9546509 -2.675583 3.6455994 -3.6098328 5.710266c-2.2568207 4.8422546 -2.5139008 10.390869 -2.0832214 15.635986c0.13517761 2.619934 1.4895325 5.015869 1.5571136 7.630493c-0.3193817 0.8282471 -0.3034668 1.7015381 -0.056991577 2.5576172c-0.64933777 0.26901245 -0.6824646 1.09729 -0.083480835 1.4617004c0.80041504 0.5260925 -0.4876709 0.56585693 -0.5592346 1.09198c-0.28094482 0.56451416 0.35780334 0.8891907 0.6599426 1.2363892c-0.22924805 0.8454895 -0.2849121 1.7015686 -0.11793518 2.56427c-0.07156372 -0.014587402 -0.13648987 -0.019897461 -0.19613647 -0.019897461c-0.6996918 0 -0.5804291 0.9024658 0.029159546 1.0773926c-0.029159546 1.170166 1.4497681 2.244873 0.40286255 3.4044495c-0.70632935 0.42007446 -0.30877686 1.2363892 0.31936646 1.4272156c0.10072327 0.8627014 -0.45983887 1.786377 0.20674133 2.536438c-0.9382477 0.060943604 -1.4033966 1.371582 -0.2690277 1.371582c0.015914917 0 0.03314209 0 0.050369263 0l0 0c-0.5764618 0.8057251 -0.32998657 1.8247986 0.30743408 2.5350952c-0.8613739 1.2045898 -0.822937 2.888916 0.072891235 4.059082c-0.0052948 0.54333496 -0.6095886 1.0469055 -0.36309814 1.6564941c-0.017227173 0.5155029 0.78318787 0.649353 0.6546478 1.1701355c-0.37503052 2.614624 -1.3821869 5.223938 -0.93426514 7.8995056c0.34057617 2.0036926 0.6321106 4.0975037 1.6790161 5.8772583c0.922348 1.1622009 2.27536 1.396759 3.7026062 1.396759c0.97268677 0 1.9798431 -0.108673096 2.9087982 -0.108673096c0.32865906 0 0.6480255 0.013244629 0.9514923 0.050354004c3.1394043 -0.14178467 6.1316833 -1.598175 9.263123 -1.598175c0.5751343 0 1.1555786 0.04901123 1.7426453 0.16564941c1.371582 0.059631348 2.8544617 0.9779968 4.2022095 0.9779968c0.41741943 0 0.82162476 -0.08880615 1.2059021 -0.3180542c1.4365234 0.49560547 3.1473694 0.9528198 4.7786865 0.9528198c1.3874817 0 2.7166443 -0.32998657 3.7688599 -1.2496643c1.1741028 0.21069336 2.4251099 0.46780396 3.6482544 0.46780396c0.9925842 0 1.9665833 -0.16964722 2.8624268 -0.67453c0.9581299 -0.5088806 1.1820679 -1.9096069 0.42538452 -2.6822205c-1.0522156 -0.38031006 -2.300537 -0.0211792 -3.1234741 -0.98461914c-2.5245056 -1.9480286 -6.078705 -0.6387329 -8.58728 -2.4966736c-2.121643 -1.2257996 -4.948303 -1.6061401 -6.3980713 -3.543579c-0.06225586 -0.9634094 -1.1264038 -0.8401489 -1.7585144 -0.895813c-0.20672607 -1.21521 -1.7015686 -0.598999 -2.071289 -1.6352844c-0.11795044 -0.9170532 -1.5836182 -0.3074646 -1.34906 -1.3994141c-0.7897949 -0.5645447 -1.6511841 -1.2589417 -2.2051086 -1.9586487c0.4982605 -1.1197815 -1.1091919 -1.8473206 -0.23590088 -2.81073c1.064148 -1.298706 1.2098999 -3.3077087 -0.14575195 -4.4672546c0.37503052 -0.50357056 0.4876709 -1.0574951 0.28622437 -1.6405945c0.39227295 -0.6201782 0.4585266 -1.2920532 0.11795044 -1.9705505c0.747406 -0.031829834 0.744751 -1.064148 0.0013122559 -1.064148c-0.013244629 0 -0.026489258 0 -0.04107666 0.0013427734c-0.03048706 0.0013122559 -0.059631348 0.0026245117 -0.08746338 0.0026245117c-1.2059326 0 -0.24649048 -1.7492371 -0.42803955 -2.4940186c0.55526733 -0.12854004 1.394104 -0.80041504 0.70632935 -1.3106079c-0.80703735 -0.17889404 -0.6784973 -1.1688232 -0.49298096 -1.7399902c1.2867737 -0.36972046 1.5332642 -2.0487366 0.7553711 -3.0121765c0.9461975 -0.5380249 0.55392456 -1.8141785 -0.47042847 -1.9811707c-0.2743225 -0.9687195 0.58306885 -2.2740173 -0.15637207 -3.2135925c0.25177002 -4.5069885 1.1582031 -8.957001 1.8022461 -13.424255c0.38034058 -3.6840515 1.3888245 -7.2673645 2.1892395 -10.877197c0.5155029 -3.286499 2.4688416 -6.130371 2.861084 -9.455292c0.5592346 -5.033081 -2.2793274 -9.662018 -5.659912 -13.122101c-4.5798645 -5.0556335 -8.722443 -10.479645 -13.323517 -15.507446c-4.870102 -5.4796753 -10.496887 -10.215942 -15.624069 -15.422638c0.16696167 -2.0540466 -2.3628387 -2.715332 -2.9167633 -4.477844c-0.5207977 -1.5001221 -1.164856 -2.9565125 -1.7134857 -4.4447174l0 0c1.3040009 0.7606659 2.4794464 1.7346954 3.6389923 2.703415c2.5470276 2.250183 3.3646698 6.0627747 6.392746 7.797455c0.30215454 0.09011841 0.6096039 0.13250732 0.91703796 0.13250732c1.5067596 0 3.008194 -1.0071411 3.7516327 -2.27536c-0.03312683 -1.5120544 -1.9480286 -2.3522034 -1.7015533 -3.9530487c-0.09010315 -1.1582336 -1.5332489 -1.1860657 -2.2621002 -1.7916718c-3.5992432 -3.554184 -8.111542 -5.955429 -12.158691 -8.939774c-3.0453033 -1.5332642 -5.899765 -3.425644 -8.670761 -5.413437c-1.4285583 -0.99124146 -2.3243866 -2.6305084 -2.55365 -4.3333893c-0.67718506 -1.2205048 -1.3371277 -2.6079865 -1.0402832 -4.041855c0.20143127 -0.93426514 -0.12986755 -1.8353882 -0.621521 -2.6026917c0.23986816 -2.6305084 -0.43200684 -5.272949 -0.4479065 -7.9207c3.1513062 -0.95280457 6.359619 -1.7360077 9.528168 -2.6424408c0.40151978 -0.12854004 0.80836487 -0.17359924 1.2165222 -0.17359924c0.9051056 0 1.8195038 0.21733093 2.7232819 0.21733093c0.35780334 0 0.71295166 -0.03312683 1.0641327 -0.12854004c0.5207977 -0.22395325 0.44792175 -0.9011383 0.5261078 -1.3490448c1.7240753 -0.5645447 3.5051422 -1.0018616 5.2623444 -1.4444733c1.5054321 1.3278503 2.871704 3.074463 4.7746887 3.9080048c0.108673096 0.029159546 0.2093811 0.04373169 0.3047943 0.04373169c0.90908813 0 1.268219 -1.2523041 1.9573212 -1.7227478c1.265564 -0.98065186 2.0262299 -2.3853607 2.5695496 -3.8576508c0.89053345 -0.5088806 2.2952423 -0.06758118 2.765686 -1.3040009c0.34588623 -0.2093811 0.6891022 -0.28623962 1.0310059 -0.28623962c0.98065186 0 1.9440613 0.63874817 2.910141 0.63874817c0.35514832 0 0.71162415 -0.086135864 1.0694275 -0.3246765c0.7659607 -0.38694763 0.43069458 -1.315918 0.10070801 -1.9029846c5.026474 -1.3053131 10.0264435 -2.6927948 15.03569 -4.048477c0.049041748 -0.019866943 0.09011841 -0.030471802 0.12722778 -0.030471802c0.27694702 0 0.27694702 0.5261078 0.57910156 0.54597473c0.26239014 -0.20672607 0.32998657 -0.63874817 0.722229 -0.6891022c7.5231323 -2.4012604 15.025085 -4.915146 22.57605 -7.220993c0.14181519 0.26635742 0.4015503 0.3975525 0.6361084 0.3975525c0.3140564 0 0.5844116 -0.23588562 0.4730835 -0.6996918l0 0c3.9464417 1.9811554 7.831909 4.086899 11.677643 6.2522736c1.572998 -0.16168213 2.9830017 -0.9899292 4.4553223 -1.538559c16.044159 -6.6339264 32.145294 -13.55278 46.358032 -23.669342c-0.021209717 -0.050354004 -0.072906494 -0.14576721 -0.100738525 -0.1894989c-4.1650696 -0.40286255 -8.332825 -0.5764618 -12.499237 -0.5764618c-13.938416 0 -27.860931 1.9506989 -41.65625 3.8510284c-0.80041504 0.19612122 -1.987793 0.078186035 -2.3787231 0.9793091c-2.111023 3.7675476 -4.5122986 7.3667755 -6.897644 10.960709c-0.10601807 -0.28227234 -0.31936646 -0.40815735 -0.5340576 -0.40815735c-0.3140869 0 -0.6321106 0.27166748 -0.61886597 0.71029663c-7.4794006 1.8088989 -15.042297 3.3540802 -22.54956 5.0781555c-0.20010376 0.06890869 -0.41345215 0.108673096 -0.6254883 0.108673096c-0.28622437 0 -0.5698242 -0.072891235 -0.80703735 -0.24250793c-0.31936646 0.1894989 -0.062286377 0.7659607 -0.47573853 0.83354187c-5.435974 1.4325409 -10.844101 3.0227814 -16.29065 4.377121c-1.2324371 -0.7937927 -1.2881012 -2.7762756 -2.7484589 -3.3474426c-0.23588562 -0.09408569 -0.47839355 -0.1338501 -0.72224426 -0.1338501c-0.55126953 0 -1.1091766 0.1987915 -1.6127625 0.4081726c-0.10601807 0.05168152 -0.21202087 0.07287598 -0.31671143 0.07287598c-0.3935852 0 -0.7818756 -0.28623962 -1.1834106 -0.28623962c-0.12854004 0 -0.2597351 0.029159546 -0.3922577 0.10734558c-1.4325409 1.0641327 -2.922058 2.088501 -4.259186 3.2692566c-3.847046 -2.5072632 -5.7447205 -6.936081 -8.330185 -10.580368c-0.57115173 -2.725937 -2.8107452 -4.6408386 -4.6024017 -6.5941772c-1.3265228 -2.3455963 -3.593933 -3.9411469 -5.2451324 -6.0402527c-1.6684265 -1.937439 -3.1234894 -3.9861908 -4.6408386 -6.05748c-0.9011383 -0.81233215 -1.6061401 -1.7413025 -2.6026917 -2.3853455c-0.8852234 -4.5904846 -3.998108 -9.651413 -9.092178 -10.092697c-0.47573853 -1.7466125 -0.12322998 -3.7344055 0.44792175 -5.481018c-0.1338501 -1.7240753 -0.03842163 -3.5329742 0.75668335 -5.1112823c1.8976898 -4.953583 0.7606659 -10.512787 1.5279541 -15.506134c-0.3975525 -2.2289734 -0.29153442 -4.597107 -1.2151947 -6.701523c0.66656494 -2.4635391 -0.63212585 -4.8873215 -1.2589417 -7.232918c-1.4007416 -4.0233 -5.6016083 -6.8128357 -9.82634 -6.8128357c-0.6891022 0 -1.3795319 0.07421112 -2.0593567 0.22925568c-1.2257996 -0.6996994 -2.6755676 -0.77259064 -4.0471497 -0.9064331z" fill-rule="evenodd"/><path fill="#2b67ff" fill-opacity="0.7151" d="m188.45303 206.17732l0 0c-1.6273041 -2.274704 -1.1013794 -5.436798 1.1746826 -7.062744q2.8011627 -2.0010834 4.54335 -5.4824677q0.5215454 3.8576355 2.5242767 6.657135l0 0c1.6273041 2.274704 1.1013794 5.436798 -1.1746674 7.062744l0 0c-2.276062 1.625946 -5.4403534 1.1000366 -7.067642 -1.1746674z" fill-rule="evenodd"/><path stroke="#2b67ff" stroke-width="1.0" stroke-linejoin="round" stroke-linecap="butt" d="m188.45303 206.17732l0 0c-1.6273041 -2.274704 -1.1013794 -5.436798 1.1746826 -7.062744q2.8011627 -2.0010834 4.54335 -5.4824677q0.5215454 3.8576355 2.5242767 6.657135l0 0c1.6273041 2.274704 1.1013794 5.436798 -1.1746674 7.062744l0 0c-2.276062 1.625946 -5.4403534 1.1000366 -7.067642 -1.1746674z" fill-rule="evenodd"/><path fill="#2b67ff" fill-opacity="0.7151" d="m199.58919 218.61673l0 0c-2.3775024 -1.4733734 -3.109848 -4.5936737 -1.6357574 -6.969391q2.6690826 -4.3016357 1.0333252 -11.271027q1.6357574 6.969391 5.9405823 9.637146l0 0c2.3774872 1.4733734 3.109848 4.5936737 1.6357574 6.969391l0 0c-1.4740906 2.3757324 -4.5964203 3.1072388 -6.9739075 1.6338806z" fill-rule="evenodd"/><path stroke="#2b67ff" stroke-width="1.0" stroke-linejoin="round" stroke-linecap="butt" d="m199.58919 218.61673l0 0c-2.3775024 -1.4733734 -3.109848 -4.5936737 -1.6357574 -6.969391q2.6690826 -4.3016357 1.0333252 -11.271027q1.6357574 6.969391 5.9405823 9.637146l0 0c2.3774872 1.4733734 3.109848 4.5936737 1.6357574 6.969391l0 0c-1.4740906 2.3757324 -4.5964203 3.1072388 -6.9739075 1.6338806z" fill-rule="evenodd"/><path fill="#2b67ff" fill-opacity="0.7151" d="m184.77174 223.1678l0 0c-0.94303894 -2.6330109 0.42829895 -5.5312347 3.0629883 -6.473343q4.3853455 -1.5681152 7.3388977 -7.1338654q-2.4305115 5.812958 -0.8608551 10.195526l0 0c0.94303894 2.6330109 -0.42829895 5.5312195 -3.0629883 6.4733276l0 0c-2.6346893 0.9421234 -5.5350037 -0.42863464 -6.4780426 -3.0616455z" fill-rule="evenodd"/><path stroke="#2b67ff" stroke-width="1.0" stroke-linejoin="round" stroke-linecap="butt" d="m184.77174 223.1678l0 0c-0.94303894 -2.6330109 0.42829895 -5.5312347 3.0629883 -6.473343q4.3853455 -1.5681152 7.3388977 -7.1338654q-2.4305115 5.812958 -0.8608551 10.195526l0 0c0.94303894 2.6330109 -0.42829895 5.5312195 -3.0629883 6.4733276l0 0c-2.6346893 0.9421234 -5.5350037 -0.42863464 -6.4780426 -3.0616455z" fill-rule="evenodd"/><path fill="#2b67ff" fill-opacity="0.7151" d="m193.0569 244.6959l0 0c-2.5232086 -2.5216217 -2.523346 -6.60968 -3.0517578E-4 -9.13092q4.5683746 -4.565094 4.568054 -13.696014q3.2043457E-4 9.13092 4.5690155 13.696732l0 0c2.5232239 2.5216217 2.5233612 6.60968 3.2043457E-4 9.130905l0 0c-2.523056 2.5212402 -6.613861 2.5209198 -9.137085 -7.019043E-4z" fill-rule="evenodd"/><path stroke="#2b67ff" stroke-width="1.0" stroke-linejoin="round" stroke-linecap="butt" d="m193.0569 244.6959l0 0c-2.5232086 -2.5216217 -2.523346 -6.60968 -3.0517578E-4 -9.13092q4.5683746 -4.565094 4.568054 -13.696014q3.2043457E-4 9.13092 4.5690155 13.696732l0 0c2.5232239 2.5216217 2.5233612 6.60968 3.2043457E-4 9.130905l0 0c-2.523056 2.5212402 -6.613861 2.5209198 -9.137085 -7.019043E-4z" fill-rule="evenodd"/><path fill="#2b67ff" fill-opacity="0.7151" d="m178.18713 253.02295l0 0c-1.7837982 -3.0874481 -0.72546387 -7.0351257 2.363861 -8.817368q5.5937347 -3.227066 7.957596 -12.044434q-2.363861 8.817368 0.8659973 14.4077l0 0c1.7837982 3.0874329 0.72546387 7.0351105 -2.3638763 8.817368l0 0c-3.089325 1.7822418 -7.0397797 0.7241974 -8.823578 -2.363266z" fill-rule="evenodd"/><path stroke="#2b67ff" stroke-width="1.0" stroke-linejoin="round" stroke-linecap="butt" d="m178.18713 253.02295l0 0c-1.7837982 -3.0874481 -0.72546387 -7.0351257 2.363861 -8.817368q5.5937347 -3.227066 7.957596 -12.044434q-2.363861 8.817368 0.8659973 14.4077l0 0c1.7837982 3.0874329 0.72546387 7.0351105 -2.3638763 8.817368l0 0c-3.089325 1.7822418 -7.0397797 0.7241974 -8.823578 -2.363266z" fill-rule="evenodd"/><path fill="#2b67ff" fill-opacity="0.7151" d="m126.0982 210.81746l0 0c2.0850601 0.5987549 4.258995 -0.6062012 4.8556137 -2.6913605q0.99305725 -3.4706573 5.1518097 -6.032242q-4.376343 2.1692047 -7.846863 1.1725922l0 0c-2.0850601 -0.5987549 -4.2589874 0.6062012 -4.8556137 2.6913605l0 0c-0.5966263 2.085144 0.609993 4.2608795 2.695053 4.8596497z" fill-rule="evenodd"/><path stroke="#2b67ff" stroke-width="1.0" stroke-linejoin="round" stroke-linecap="butt" d="m126.0982 210.81746l0 0c2.0850601 0.5987549 4.258995 -0.6062012 4.8556137 -2.6913605q0.99305725 -3.4706573 5.1518097 -6.032242q-4.376343 2.1692047 -7.846863 1.1725922l0 0c-2.0850601 -0.5987549 -4.2589874 0.6062012 -4.8556137 2.6913605l0 0c-0.5966263 2.085144 0.609993 4.2608795 2.695053 4.8596497z" fill-rule="evenodd"/><path fill="#2b67ff" fill-opacity="0.7151" d="m129.47728 222.07004l0 0c2.08609 -0.5919647 3.295868 -2.7639313 2.7021332 -4.851227q-0.98825073 -3.474228 1.1907349 -7.8472137q-2.570755 4.1543884 -6.0429764 5.1397095l0 0c-2.0860825 0.5919647 -3.295868 2.7639313 -2.7021332 4.851227l0 0c0.59373474 2.0872803 2.766159 3.2994843 4.8522415 2.7075043z" fill-rule="evenodd"/><path stroke="#2b67ff" stroke-width="1.0" stroke-linejoin="round" stroke-linecap="butt" d="m129.47728 222.07004l0 0c2.08609 -0.5919647 3.295868 -2.7639313 2.7021332 -4.851227q-0.98825073 -3.474228 1.1907349 -7.8472137q-2.570755 4.1543884 -6.0429764 5.1397095l0 0c-2.0860825 0.5919647 -3.295868 2.7639313 -2.7021332 4.851227l0 0c0.59373474 2.0872803 2.766159 3.2994843 4.8522415 2.7075043z" fill-rule="evenodd"/><path fill="#2b67ff" fill-opacity="0.7151" d="m114.91604 225.61913l0 0c2.761734 0.14828491 5.1186523 -1.9709015 5.2643204 -4.733368q0.24245453 -4.5980225 4.677986 -8.970886q-4.8179855 3.947342 -9.414803 3.7005005l0 0c-2.761734 -0.14828491 -5.1186447 1.9709015 -5.2643127 4.733368l0 0c-0.14566803 2.7624512 1.9750748 5.1220856 4.736809 5.2703857z" fill-rule="evenodd"/><path stroke="#2b67ff" stroke-width="1.0" stroke-linejoin="round" stroke-linecap="butt" d="m114.91604 225.61913l0 0c2.761734 0.14828491 5.1186523 -1.9709015 5.2643204 -4.733368q0.24245453 -4.5980225 4.677986 -8.970886q-4.8179855 3.947342 -9.414803 3.7005005l0 0c-2.761734 -0.14828491 -5.1186447 1.9709015 -5.2643127 4.733368l0 0c-0.14566803 2.7624512 1.9750748 5.1220856 4.736809 5.2703857z" fill-rule="evenodd"/><path fill="#2b67ff" fill-opacity="0.7151" d="m210.52422 264.0065l0 0c-3.2615204 -1.4611511 -4.7210083 -5.282593 -3.259842 -8.535416q2.6456604 -5.8897705 -0.6141815 -14.425201q3.259842 8.535431 9.1653595 11.181107l0 0c3.2615204 1.4611511 4.7210083 5.282593 3.259842 8.535431l0 0c-1.4611664 3.2528076 -5.2896576 4.705261 -8.551178 3.2440796z" fill-rule="evenodd"/><path stroke="#2b67ff" stroke-width="1.0" stroke-linejoin="round" stroke-linecap="butt" d="m210.52422 264.0065l0 0c-3.2615204 -1.4611511 -4.7210083 -5.282593 -3.259842 -8.535416q2.6456604 -5.8897705 -0.6141815 -14.425201q3.259842 8.535431 9.1653595 11.181107l0 0c3.2615204 1.4611511 4.7210083 5.282593 3.259842 8.535431l0 0c-1.4611664 3.2528076 -5.2896576 4.705261 -8.551178 3.2440796z" fill-rule="evenodd"/><path fill="#000000" d="m382.9379 175.16968c0 0 0 0.0052948 0 0.0105896l0.0053100586 0c0 -0.0052948 0 -0.0105896 -0.0053100586 -0.0105896zm-28.416199 24.586365c0 0.011932373 0.0053100586 0.022537231 0.0053100586 0.027832031c0.0053100586 -0.0052948 0.011932373 -0.015899658 0.017211914 -0.027832031zm3.157959 0.54333496l0 0c-0.2743225 0.19082642 0.116607666 0.8123474 -0.062286377 1.1423187c-0.6321411 0.3419037 0.571167 2.0885162 -0.29684448 2.16008c0.29153442 2.1613922 0.3869629 4.4234924 0.5883789 6.152878c0.39624023 0.080841064 0.8242798 0.12324524 1.2602539 0.12324524c0.92233276 0 1.8844299 -0.18684387 2.6861877 -0.5817566c0.22924805 -1.1595459 0.24118042 -2.3455963 0.39224243 -3.5104523c-1.6631165 -1.7863617 -2.631836 -3.9517365 -4.567932 -5.486313zm44.37024 22.493896l0 0c0.11791992 0.3299713 0.81100464 1.1025543 1.2814636 1.4272308c-0.29684448 -0.5764618 -0.7050171 -1.1025696 -1.2814636 -1.4272308zm-67.81033 28.925064c-1.4828796 0.64404297 -2.9618225 1.4895172 -4.4553223 2.182602c-0.61621094 0.9024658 -1.2708435 1.8261261 -1.7691345 2.8001404c1.2032776 0.29022217 2.3787231 0.76065063 3.5992432 0.9289551c0.95150757 -1.9480286 1.942749 -3.8735352 3.1685486 -5.659912c-0.1736145 -0.09541321 -0.3578186 -0.17889404 -0.54333496 -0.25178528zm7.165344 0.84017944c-1.5557861 1.9414062 -2.670288 4.5401154 -4.1478577 6.677658c2.121643 0.5155029 4.210144 1.142334 6.3198547 1.6962585c-0.5817566 -0.64404297 0.28625488 -1.4497681 -0.1736145 -2.149475c-1.4550476 -1.7969666 0.07952881 -4.7017975 -1.9983826 -6.2244415zm50.814667 11.912186l0 0c-0.19613647 0.649353 -0.25708008 1.5557861 -0.40286255 2.30719c0.37503052 -0.60562134 0.30215454 -1.5677185 0.40286255 -2.30719zm-3.0625305 0.64404297c-0.07287598 0.7381592 -0.25708008 1.4829102 -0.11795044 2.222351c0.062286377 -0.7394409 0.31939697 -1.5557556 0.11795044 -2.222351zm2.1269531 -0.26901245l0 0c-0.22927856 0.6546631 -0.43600464 1.7797546 -0.3074646 2.5019836c0.17892456 -0.8163147 0.30215454 -1.6618042 0.3074646 -2.5019836zm-19.98529 -102.37277c3.717163 0.31407166 7.2898865 2.2621155 9.338654 5.4134216c2.3562012 2.9552002 2.6026917 6.863205 3.744995 10.333893c0.49298096 0.97932434 1.5054321 1.9983978 1.0628052 3.1857758c0.991272 2.6808624 2.1839294 5.3007812 2.8783264 8.088989c1.2867737 2.609314 1.970581 5.453186 2.1945496 8.34079c2.0090027 5.1735687 4.981415 9.892609 7.288574 14.925705c1.0694275 1.9414062 1.6459045 4.1253357 1.6790161 6.3304596c0.32998657 2.5695496 3.2692566 3.1075897 4.271118 5.2623596c1.0243835 1.5624084 2.9843445 2.244873 3.975586 3.8576508c0.85076904 1.6511841 2.2276611 2.9326477 3.5091248 4.210144c0.8958435 -0.80174255 1.6578064 -2.043457 2.9618225 -2.2515106c0.11264038 -0.037109375 0.23721313 -0.05697632 0.3644104 -0.05697632c0.4373169 0 0.89715576 0.22660828 0.94488525 0.6904144c0.09539795 1.8579407 -1.6896362 3.0055542 -2.3840332 4.5281982c0.088775635 0.2743225 0.26901245 0.520813 0.46380615 0.72753906c0.94088745 -0.58706665 2.038147 -0.92233276 3.152649 -0.92233276c0.16033936 0 0.32070923 0.007949829 0.48104858 0.021194458c1.0747375 0.1285553 1.5120544 1.7134857 0.65463257 2.3575287c-0.6095886 0.26239014 -1.2257996 0.53671265 -1.72406 0.9899292c2.144165 1.5292664 5.553894 0.3975525 7.1997986 2.7431488c1.3370972 0.53804016 2.9273376 0.21865845 4.180969 1.0243835c1.1754761 1.293396 0.7619934 4.126663 2.9220886 4.4513397c1.1369934 0.5433197 3.376587 0.26901245 3.532959 1.8473206c-0.671875 2.4290771 -2.5801697 4.271103 -3.437561 6.6339264c-1.3092957 2.0487518 -3.9186096 3.1287994 -4.7243347 5.547287c-0.35247803 0.845459 -0.3140564 2.3124695 -1.494812 2.4290771c-1.1012268 0.03842163 -2.2303162 0.111328125 -3.3554077 0.111328125c-1.2231445 0 -2.4410095 -0.08615112 -3.6138 -0.4015503c-3.6615295 -1.315918 -5.1563416 -5.375 -7.831909 -7.8438416c-0.27963257 0.03048706 -0.5592346 0.04373169 -0.8388672 0.04373169c-1.5305786 0 -3.0492554 -0.39888 -4.541443 -0.7209015c-1.2761536 -0.2796173 -2.2607727 -1.3265228 -2.5417175 -2.5920868c-0.5141907 -1.9135742 -2.6808777 -3.2295074 -2.4622192 -5.3736725c-0.99124146 -0.99124146 -1.8764954 -2.0606842 -2.30188 -3.4256287l0 0c-0.7553406 1.2205048 0.072906494 2.41185 0.4876709 3.5594788c1.142334 2.4078827 1.5451965 5.066223 2.4184875 7.569519c0.76068115 2.5019684 1.5451965 5.2676544 0.571167 7.825302c-0.35913086 0.8520813 -0.30877686 1.9493408 -0.7341614 2.6994019c-0.9965515 -2.189209 -3.8284912 -3.588623 -3.0611877 -6.376831c0.5817566 -2.2395935 -0.067596436 -4.5798798 0.5711365 -6.8128357c-0.2531128 -1.3543549 -0.7513733 -2.743164 -1.3503723 -4.008728c-1.6167297 5.8838806 -2.4794312 11.929413 -3.0611877 17.992188c-0.04373169 -0.0119018555 -0.078186035 -0.017211914 -0.10736084 -0.017211914c-0.25576782 0 0.010620117 0.4333496 -0.005279541 0.6387329c-0.3471985 -0.088775635 -0.010620117 -0.61486816 -0.26901245 -0.7434387l0 0c-0.16168213 1.2311096 -0.4413147 2.4622192 -0.87332153 3.6270752c-0.16564941 -0.09011841 0.075531006 -0.8043823 0.009277344 -0.8043823c-0.015899658 0 -0.05166626 0.04373169 -0.11529541 0.14974976c-0.21865845 0.9673767 -0.5592346 1.2536316 -1.0694275 1.7797241c0.36444092 -0.89053345 0.7792053 -1.7466125 0.50491333 -2.710022l0 0c-0.09011841 0.11264038 -0.10736084 0.31936646 -0.2637329 0.35913086c0.1338501 -0.7845154 0.42538452 -1.5796509 0.20672607 -2.380066c-0.011932373 -0.003967285 -0.022521973 -0.0066223145 -0.033111572 -0.0066223145c-0.17758179 0 -0.026519775 0.72488403 -0.19082642 0.75668335c-0.083496094 -0.77789307 0.08480835 -1.572998 0.05697632 -2.3562012l0 0c-0.3538208 0.9687195 -0.23590088 2.2621155 -0.66656494 3.286499c0.15637207 -1.5398865 0.43597412 -3.07312 0.4584961 -4.624939l0 0c-0.2849121 2.065979 -0.51416016 4.142578 -1.001831 6.180725c-0.09542847 -0.15771484 -0.16036987 -0.22131348 -0.20672607 -0.22131348c-0.17758179 0 -0.06628418 0.97003174 -0.3869629 1.139679c0.08480835 -0.7222595 0.44259644 -1.4047241 0.30212402 -2.1441956l0 0c-0.4691162 1.612793 -0.7659607 3.493225 -2.0712585 4.680603c0.13516235 -1.0415955 0.5380249 -2.083191 0.694397 -3.1632385l0 0c-0.34057617 0.2849121 -0.22927856 0.96209717 -0.694397 1.0919495c0.923645 -2.755066 0.76727295 -5.9236145 0.1298523 -8.57135l0 0c-0.28094482 0.9130554 0.25180054 2.166687 0.15637207 3.1857605c-0.19082642 -0.9687195 -0.23587036 -1.9599609 -0.47042847 -2.916748c-0.6387634 1.6405945 -0.3578186 3.6323547 -0.36975098 5.2120056c-0.36309814 -1.6737366 -0.46380615 -3.7344055 -0.46380615 -5.559204l0 0c-0.30877686 0.25708008 0.15637207 1.4497681 -0.18551636 1.7413025c-0.015930176 -0.97402954 -0.02255249 -1.9546814 0.11264038 -2.922058l0 0c-0.034454346 0.15106201 -0.17892456 0.3286438 -0.2531128 0.3286438c-0.06097412 0 -0.07687378 -0.11529541 0.045043945 -0.4519043c0.30215454 -3.9186096 0.9355774 -7.703354 2.0779114 -11.403305l0 0c-2.458252 5.177536 -2.973755 11.038895 -2.5695496 16.716019c-0.10736084 1.3318481 -0.34191895 2.647766 -0.3366089 3.9901733c-0.009277344 -0.3723755 -0.060943604 -0.5062256 -0.13250732 -0.5062256c-0.09277344 0 -0.21603394 0.22000122 -0.3260193 0.43997192c0.010620117 -0.30215454 0.13916016 -0.9461975 -0.062286377 -1.0084839c-0.3246765 1.4789429 -0.9395447 1.9772034 -0.9687195 3.493225c24.324005 6.6842957 48.693054 13.217529 73.01703 19.884583c0.98461914 0.2637024 0.6599426 1.5120544 0.621521 2.2568054c-0.3471985 1.0853271 -0.55392456 3.022766 -1.9758606 3.2189026c-24.532043 -6.5729675 -49.02301 -13.346039 -73.56036 -19.884583l0 0c-0.57644653 1.9533386 2.3681335 2.7484741 2.015625 4.7468567c0.55392456 2.4966736 2.3628235 4.472534 3.6999512 6.5835876c1.5902405 2.0818787 2.8279724 4.450012 4.730957 6.281433c1.8022766 1.5279541 3.7728271 2.866394 5.4690857 4.517578c2.4966736 2.3681335 4.4513245 5.2120056 6.515991 7.9432373c5.458496 6.443115 12.663574 10.995178 19.559906 15.714203c1.243042 2.833252 0.46514893 6.045532 0.15106201 9.024567c1.3663025 2.5019836 3.77417 4.42218 4.786621 7.1203003c-0.7580261 3.1712036 -4.0696716 5.5684814 -7.3031616 5.5684814c-0.99124146 0 -1.9732056 -0.2239685 -2.8743591 -0.72091675c-3.6270447 -2.6026917 -5.88916 -6.538513 -8.21225 -10.249084c-1.9480286 -3.432251 -3.8960571 -6.8578796 -5.659912 -10.385559c-2.2329407 -4.2035217 -3.9291992 -8.687988 -6.14624 -12.89151l0 0c1.9705505 5.2398376 4.232666 10.372314 6.7227173 15.388184c3.7012634 7.3614807 8.358002 14.510895 9.601044 22.813263c0.36972046 2.3615112 -0.744751 4.8475647 -2.9048157 5.9342346c-3.6217651 1.7519226 -7.4900208 2.9604797 -11.358276 4.0524597c0.42538452 3.1287842 1.8976746 6.0124207 4.0021057 8.358002c5.995178 6.538513 8.542206 15.266266 10.910339 23.596466c1.0137634 1.1635132 0.9687195 2.7590637 1.4789124 4.114746c1.3146057 1.2483215 2.250183 2.9776917 1.6233826 4.825012c0.89450073 0.84017944 1.4431152 2.026245 0.73812866 3.208313c0.58306885 1.0402832 1.388794 2.0593567 1.6127625 3.2970886c1.421936 1.9029846 2.4794312 4.243286 2.0090027 6.6670837c-0.4585266 1.572998 2.1057434 2.4860535 1.1873779 4.1372375c1.5557556 4.791931 6.0004883 7.724579 8.811218 11.722717c0.90115356 1.4656677 2.508606 2.4065552 3.0903625 4.0855713c1.265564 0.6387329 2.7033997 2.0275574 2.099121 3.560791c-1.265564 0.7447815 -2.4184875 1.8818054 -3.8629456 2.1667175c-0.27697754 0.55392456 -0.89053345 0.84017944 -1.5054321 0.84017944c-0.56585693 0 -1.1330566 -0.2425232 -1.4391785 -0.7447815c-0.26239014 1.0800476 -1.3370972 1.5902405 -2.3614807 1.6737366l-0.93029785 0c-1.8632202 -0.52612305 -3.7608948 -1.5001221 -4.701782 -3.281189c-0.548645 -1.197998 -1.7187805 -1.8857727 -2.5748596 -2.8319397c-2.3959656 -2.6026917 -3.4773254 -6.052185 -5.3975525 -8.968933c-0.5260925 -0.7156067 -0.83883667 -1.5451965 -1.2589111 -2.3111572c-0.05831909 0.0053100586 -0.11264038 0.009277344 -0.16564941 0.009277344c-1.0429382 0 -1.2722168 -1.1529236 -2.1415405 -1.4988098c-0.61486816 -0.55392456 -0.38031006 -1.5054016 -0.5194702 -2.161377c-1.2602539 -0.29022217 -1.7413025 -1.8022766 -1.192688 -2.9101257c0.26239014 -0.96343994 -1.0813599 -0.85079956 -1.517334 -1.4166565c-1.5173645 -0.6599426 -2.250183 -2.4290771 -1.4113464 -3.9238892c-1.8976746 -0.8348694 -1.3145752 -3.079773 -2.3840332 -4.501709c-0.3140564 -0.8891907 -1.1701355 -1.444458 -1.4775696 -2.3336792c-0.23590088 -0.63342285 -1.3609924 -0.5380249 -1.2774963 -1.3715515c0.28622437 -0.671875 -0.56985474 -0.991272 -0.7328491 -1.5730286c-0.5592346 -0.8348694 0.14578247 -1.9546509 -0.5314026 -2.737854c-0.37503052 -0.44259644 0.09542847 -0.9793091 0.1338501 -1.4497681c-1.7518921 -2.5138855 -3.2692566 -5.1841736 -4.909851 -7.769623c-2.7259216 -4.5016785 -3.7503052 -9.847534 -6.6498413 -14.241882c-5.3855896 -4.814453 -7.5854187 -11.958588 -9.589111 -18.653473c-2.9843445 -1.34375 -5.7606506 -3.543579 -6.9930725 -6.6564636c-2.994934 -6.431183 -3.2069702 -13.676025 -3.8112793 -20.617432c-1.6803284 -2.8041077 -2.9061584 -5.856018 -4.4844666 -8.7052c-0.946167 6.7571716 -0.14047241 13.620361 -0.8852234 20.393463c-0.09408569 1.2549438 -0.86135864 2.317749 -1.394104 3.4150085c-0.8335571 -0.083465576 -1.6670837 -0.18948364 -2.4900513 -0.3471985c-3.175171 -1.8632202 -5.4081116 -4.880707 -8.123444 -7.304474c-0.3511963 -0.14974976 -0.7010193 -0.21072388 -1.0495605 -0.21072388c-1.5531311 0 -3.0930176 1.2072754 -4.632904 1.2072754c-0.43466187 0 -0.86932373 -0.09542847 -1.3039856 -0.34191895c-2.5297852 -0.69970703 -3.3023682 -3.8019714 -4.5069885 -5.526062c-7.288574 5.559204 -14.4088745 11.52655 -22.643646 15.681061c-2.4582214 1.517334 -5.1841736 2.5576172 -7.5801086 4.1703796c-1.293396 0.7116394 -1.164856 2.4184875 -0.58706665 3.5541992c1.1250916 1.9546509 2.6755676 3.6455994 3.6098328 5.710266c2.2568054 4.8422546 2.5138855 10.390869 2.0832214 15.635986c-0.13519287 2.619934 -1.4895325 5.015869 -1.5571289 7.630493c0.31939697 0.8282471 0.3034668 1.7015381 0.057006836 2.5576172c0.6493225 0.26901245 0.6824646 1.0972595 0.083465576 1.4617004c-0.80041504 0.5260925 0.4876709 0.56585693 0.5592346 1.0919495c0.28094482 0.5645447 -0.3577881 0.8892212 -0.6599426 1.2364197c0.22924805 0.8454895 0.2849121 1.7015686 0.11795044 2.56427c0.07156372 -0.014587402 0.13647461 -0.019897461 0.19613647 -0.019897461c0.6996765 0 0.5804138 0.9024658 -0.029174805 1.0773926c0.029174805 1.170166 -1.4497681 2.244873 -0.40286255 3.404419c0.70632935 0.42010498 0.30877686 1.2364197 -0.31936646 1.4272461c-0.10070801 0.8627014 0.45983887 1.786377 -0.20672607 2.536438c0.9382324 0.060943604 1.4033813 1.371582 0.26901245 1.371582c-0.015899658 0 -0.03314209 0 -0.050354004 0l0 0c0.57644653 0.8057251 0.32998657 1.8247986 -0.30743408 2.5350952c0.86135864 1.2045898 0.822937 2.888916 -0.072906494 4.059082c0.0053100586 0.54333496 0.6095886 1.0469055 0.36309814 1.6564941c0.017242432 0.5155029 -0.7831726 0.649353 -0.65463257 1.1701355c0.37503052 2.614624 1.3821716 5.223938 0.93426514 7.8995056c-0.34057617 2.0036926 -0.6321106 4.0975037 -1.6790161 5.8772583c-0.9223633 1.1622009 -2.27536 1.396759 -3.7026062 1.396759c-0.97268677 0 -1.9798584 -0.108673096 -2.9088135 -0.108673096c-0.3286438 0 -0.64801025 0.013244629 -0.95147705 0.050354004c-3.1394043 -0.14178467 -6.131714 -1.598175 -9.263153 -1.598175c-0.5751343 0 -1.1555481 0.04901123 -1.7426147 0.16564941c-1.371582 0.059631348 -2.8544922 0.9779968 -4.2022095 0.9779968c-0.41741943 0 -0.82162476 -0.08880615 -1.2059326 -0.3180542c-1.4364929 0.49560547 -3.1473389 0.9528198 -4.778656 0.9528198c-1.3874817 0 -2.7166443 -0.32998657 -3.7688599 -1.2496643c-1.1741333 0.21069336 -2.4251099 0.46777344 -3.6482544 0.46777344c-0.9925842 0 -1.9666138 -0.1696167 -2.8624268 -0.6744995c-0.9581299 -0.5088806 -1.1820679 -1.9096069 -0.42538452 -2.6822205c1.052185 -0.38031006 2.300537 -0.0211792 3.1234741 -0.98461914c2.5245056 -1.9480286 6.0786743 -0.6387329 8.58728 -2.4966736c2.121643 -1.2257996 4.9482727 -1.6061401 6.398041 -3.543579c0.062286377 -0.9634094 1.1264343 -0.8401489 1.7585449 -0.895813c0.20672607 -1.21521 1.7015686 -0.598999 2.071289 -1.6352844c0.11795044 -0.9170532 1.5836182 -0.3074646 1.34906 -1.3994141c0.7897949 -0.5645447 1.6511841 -1.2589417 2.2051086 -1.9586487c-0.4982605 -1.1197815 1.1091919 -1.8473206 0.23590088 -2.81073c-1.064148 -1.298706 -1.2099304 -3.3077087 0.14575195 -4.4672546c-0.37503052 -0.50357056 -0.4876709 -1.0574951 -0.28622437 -1.6405945c-0.39227295 -0.6201782 -0.4585266 -1.2920532 -0.11795044 -1.9705505c-0.747406 -0.031829834 -0.744751 -1.064148 -0.0013427734 -1.064148c0.0132751465 0 0.026519775 0 0.041107178 0.0013122559c0.030456543 0.0013427734 0.059631348 0.0026550293 0.08746338 0.0026550293c1.2059326 0 0.24649048 -1.7492371 0.42803955 -2.4940186c-0.55526733 -0.12854004 -1.3941345 -0.80041504 -0.70632935 -1.3106079c0.80703735 -0.17889404 0.6784973 -1.1688232 0.49295044 -1.7399902c-1.2867432 -0.36972046 -1.5332336 -2.048767 -0.7553406 -3.0121765c-0.9461975 -0.5380249 -0.5539551 -1.8141785 0.47042847 -1.9811707c0.2743225 -0.9687195 -0.58306885 -2.2740173 0.15637207 -3.2135925c-0.25177002 -4.5069885 -1.1582031 -8.957001 -1.8022766 -13.424255c-0.38031006 -3.6840515 -1.388794 -7.2673645 -2.189209 -10.877197c-0.5155029 -3.286499 -2.4688416 -6.130371 -2.8611145 -9.455292c-0.5592346 -5.033081 2.279358 -9.662018 5.6599426 -13.122101c4.5798645 -5.0556335 8.722443 -10.479645 13.323517 -15.507446c4.8700867 -5.479706 10.496887 -10.215942 15.624084 -15.422638c-0.16699219 -2.0540466 2.3628235 -2.715332 2.916748 -4.477844c0.5207825 -1.5001221 1.164856 -2.9565125 1.7134705 -4.444702l0 0c-1.3039856 0.76065063 -2.4794312 1.7346802 -3.638977 2.7033997c-2.5470276 2.250183 -3.364685 6.0627747 -6.392761 7.797455c-0.30215454 0.09011841 -0.6095886 0.13250732 -0.9170227 0.13250732c-1.5067749 0 -3.0082092 -1.0071411 -3.751648 -2.27536c0.03314209 -1.5120544 1.9480286 -2.352234 1.7015686 -3.953064c0.09008789 -1.1582031 1.5332336 -1.1860352 2.262085 -1.7916565c3.5992432 -3.5541687 8.111542 -5.9554443 12.158691 -8.939789c3.0453186 -1.5332336 5.8997803 -3.4256287 8.670776 -5.4134216c1.4285583 -0.99124146 2.3243713 -2.6305237 2.55365 -4.3334045c0.67718506 -1.2204895 1.3371277 -2.6079712 1.0402832 -4.0418396c-0.20144653 -0.93426514 0.1298523 -1.8353882 0.621521 -2.6026917c-0.23986816 -2.6305237 0.43200684 -5.272949 0.4479065 -7.920685c-3.1513062 -0.9528198 -6.359619 -1.736023 -9.528168 -2.642456c-0.40151978 -0.12854004 -0.8083801 -0.17358398 -1.2165222 -0.17358398c-0.90512085 0 -1.8194885 0.21731567 -2.723297 0.21731567c-0.3577881 0 -0.71295166 -0.03314209 -1.0641174 -0.12854004c-0.520813 -0.2239685 -0.447937 -0.90112305 -0.52612305 -1.34906c-1.72406 -0.56451416 -3.505127 -1.001831 -5.262329 -1.444458c-1.5054321 1.3278503 -2.871704 3.074463 -4.7746887 3.90802c-0.108673096 0.029144287 -0.2093811 0.04373169 -0.30480957 0.04373169c-0.90908813 0 -1.268219 -1.2523193 -1.9573059 -1.7227783c-1.265564 -0.98065186 -2.026245 -2.3853455 -2.5695496 -3.8576355c-0.89053345 -0.5088806 -2.2952576 -0.067596436 -2.765686 -1.3039856c-0.34588623 -0.2093811 -0.68911743 -0.28625488 -1.0310059 -0.28625488c-0.98065186 0 -1.9440613 0.6387329 -2.9101562 0.6387329c-0.35513306 0 -0.7116089 -0.086120605 -1.0694275 -0.324646c-0.7659607 -0.3869629 -0.43069458 -1.3159485 -0.10070801 -1.9029846c-5.0264587 -1.3053284 -10.026428 -2.69281 -15.035675 -4.0484924c-0.049041748 -0.019866943 -0.09011841 -0.030471802 -0.12722778 -0.030471802c-0.27697754 0 -0.27697754 0.5260925 -0.57910156 0.54597473c-0.26239014 -0.20672607 -0.32998657 -0.63874817 -0.722229 -0.6891022c-7.523163 -2.4012604 -15.025085 -4.915146 -22.57605 -7.220993c-0.14181519 0.26635742 -0.4015503 0.3975525 -0.6361084 0.3975525c-0.3140869 0 -0.5844116 -0.23588562 -0.4730835 -0.69970703l0 0c-3.9464417 1.9811707 -7.8319397 4.086914 -11.677643 6.252289c-1.5730133 -0.16168213 -2.983017 -0.9899292 -4.4553223 -1.538559c-16.044159 -6.6339264 -32.145294 -13.55278 -46.358032 -23.669342c0.021209717 -0.050354004 0.072891235 -0.14576721 0.10072327 -0.1894989c4.165085 -0.40286255 8.332825 -0.5764618 12.499252 -0.5764618c13.938416 0 27.860931 1.9506836 41.65625 3.8510284c0.80041504 0.19612122 1.987793 0.078186035 2.3787231 0.9793091c2.111023 3.7675323 4.5122986 7.3667755 6.897644 10.960709c0.10601807 -0.28227234 0.31936646 -0.40815735 0.5340576 -0.40815735c0.3140564 0 0.6321106 0.27166748 0.61886597 0.71029663c7.4794006 1.8088989 15.042297 3.3540802 22.54953 5.0781555c0.20010376 0.06890869 0.41348267 0.108673096 0.6255188 0.108673096c0.28622437 0 0.5698242 -0.072891235 0.80703735 -0.24250793c0.31936646 0.1894989 0.062286377 0.7659607 0.47573853 0.83354187c5.435974 1.4325409 10.844086 3.0227814 16.29065 4.377121c1.2324219 -0.7937927 1.2880859 -2.7762756 2.7484436 -3.3474426c0.23590088 -0.09408569 0.47842407 -0.1338501 0.7222595 -0.1338501c0.55126953 0 1.1091614 0.1987915 1.6127625 0.4081726c0.10601807 0.05168152 0.21200562 0.07287598 0.31671143 0.07287598c0.3935852 0 0.78186035 -0.28623962 1.1834106 -0.28623962c0.12854004 0 0.2597351 0.029159546 0.39224243 0.10734558c1.4325562 1.0641327 2.922058 2.088501 4.259186 3.2692566c3.847046 -2.5072784 5.7447205 -6.936081 8.3302 -10.580368c0.5711365 -2.725937 2.81073 -4.6408386 4.6023865 -6.5941772c1.3265381 -2.3456116 3.593933 -3.9411469 5.2451477 -6.0402527c1.6684265 -1.937439 3.1234741 -3.9861908 4.6408386 -6.05748c0.90112305 -0.8123474 1.6061401 -1.7413025 2.6026917 -2.3853455c0.8852234 -4.5904846 3.998108 -9.651413 9.092163 -10.092697c0.47573853 -1.7466125 0.12322998 -3.7344055 -0.4479065 -5.481018c0.1338501 -1.7240906 0.03842163 -3.5329742 -0.75668335 -5.1112823c-1.8977051 -4.953583 -0.76068115 -10.512787 -1.5279541 -15.506134c0.3975525 -2.2289734 0.29153442 -4.597107 1.2151794 -6.701523c-0.66656494 -2.4635315 0.6321411 -4.887329 1.2589417 -7.2329254c1.4007568 -4.0233 5.6016235 -6.8128357 9.826355 -6.8128357c0.6890869 0 1.3795166 0.07421875 2.0593567 0.2292633c1.2257996 -0.69970703 2.6755676 -0.772583 4.0471497 -0.9064331z" fill-rule="evenodd"/><path fill="#2b67ff" fill-opacity="0.7151" d="m360.11005 196.75786l0 0c1.6272888 -2.2753754 1.1002808 -5.4374695 -1.177124 -7.062744q-2.802826 -2.0002441 -4.5466614 -5.4812317q-0.5206909 3.858017 -2.523407 6.6583557l0 0c-1.6273193 2.2753754 -1.1002808 5.4374847 1.177124 7.062744l0 0c2.2774048 1.6252747 5.4427795 1.0982513 7.0700684 -1.177124z" fill-rule="evenodd"/><path stroke="#2b67ff" stroke-width="1.0" stroke-linejoin="round" stroke-linecap="butt" d="m360.11005 196.75786l0 0c1.6272888 -2.2753754 1.1002808 -5.4374695 -1.177124 -7.062744q-2.802826 -2.0002441 -4.5466614 -5.4812317q-0.5206909 3.858017 -2.523407 6.6583557l0 0c-1.6273193 2.2753754 -1.1002808 5.4374847 1.177124 7.062744l0 0c2.2774048 1.6252747 5.4427795 1.0982513 7.0700684 -1.177124z" fill-rule="evenodd"/><path fill="#2b67ff" fill-opacity="0.7151" d="m348.97302 209.20172l0 0c2.3780212 -1.4742432 3.1097717 -4.5949707 1.6344299 -6.970337q-2.6713257 -4.3009796 -1.0368958 -11.271301q-1.6344299 6.9703217 -5.940216 9.639694l0 0c-2.3779907 1.4742432 -3.1097717 4.5949707 -1.6344299 6.970337l0 0c1.4753418 2.375351 4.5990906 3.1058502 6.977112 1.631607z" fill-rule="evenodd"/><path stroke="#2b67ff" stroke-width="1.0" stroke-linejoin="round" stroke-linecap="butt" d="m348.97302 209.20172l0 0c2.3780212 -1.4742432 3.1097717 -4.5949707 1.6344299 -6.970337q-2.6713257 -4.3009796 -1.0368958 -11.271301q-1.6344299 6.9703217 -5.940216 9.639694l0 0c-2.3779907 1.4742432 -3.1097717 4.5949707 -1.6344299 6.970337l0 0c1.4753418 2.375351 4.5990906 3.1058502 6.977112 1.631607z" fill-rule="evenodd"/><path fill="#2b67ff" fill-opacity="0.7151" d="m363.79758 213.74805l0 0c0.9426575 -2.6334686 -0.4300232 -5.5313873 -3.0660095 -6.4726562q-4.387512 -1.5667267 -7.343811 -7.1318054q2.4331055 5.8124695 0.8640747 10.195801l0 0c-0.942688 2.633484 0.4300232 5.5314026 3.0660095 6.4726715l0 0c2.6359863 0.9412842 5.5370483 -0.43052673 6.4797363 -3.0640106z" fill-rule="evenodd"/><path stroke="#2b67ff" stroke-width="1.0" stroke-linejoin="round" stroke-linecap="butt" d="m363.79758 213.74805l0 0c0.9426575 -2.6334686 -0.4300232 -5.5313873 -3.0660095 -6.4726562q-4.387512 -1.5667267 -7.343811 -7.1318054q2.4331055 5.8124695 0.8640747 10.195801l0 0c-0.942688 2.633484 0.4300232 5.5314026 3.0660095 6.4726715l0 0c2.6359863 0.9412842 5.5370483 -0.43052673 6.4797363 -3.0640106z" fill-rule="evenodd"/><path fill="#2b67ff" fill-opacity="0.7151" d="m355.5152 235.28017l0 0c2.5234985 -2.5226288 2.5224915 -6.610901 -0.0022583008 -9.131439q-4.5714417 -4.5638123 -4.5737 -13.695236q0.0022583008 9.131424 -4.5669556 13.699036l0 0c-2.5234985 2.5226135 -2.5224915 6.6108856 0.0022583008 9.131424l0 0c2.5247498 2.520523 6.617157 2.5188293 9.1406555 -0.0037841797z" fill-rule="evenodd"/><path stroke="#2b67ff" stroke-width="1.0" stroke-linejoin="round" stroke-linecap="butt" d="m355.5152 235.28017l0 0c2.5234985 -2.5226288 2.5224915 -6.610901 -0.0022583008 -9.131439q-4.5714417 -4.5638123 -4.5737 -13.695236q0.0022583008 9.131424 -4.5669556 13.699036l0 0c-2.5234985 2.5226135 -2.5224915 6.6108856 0.0022583008 9.131424l0 0c2.5247498 2.520523 6.617157 2.5188293 9.1406555 -0.0037841797z" fill-rule="evenodd"/><path fill="#2b67ff" fill-opacity="0.7151" d="m370.39316 243.60266l0 0c1.7836304 -3.0882263 0.7237549 -7.0357666 -2.367279 -8.817078q-5.5968323 -3.2253418 -7.9641113 -12.042419q2.367279 8.817078 -0.86227417 14.408798l0 0c-1.7836304 3.088211 -0.7237549 7.0357513 2.367279 8.817062l0 0c3.091034 1.781311 7.042755 0.7218628 8.8263855 -2.3663635z" fill-rule="evenodd"/><path stroke="#2b67ff" stroke-width="1.0" stroke-linejoin="round" stroke-linecap="butt" d="m370.39316 243.60266l0 0c1.7836304 -3.0882263 0.7237549 -7.0357666 -2.367279 -8.817078q-5.5968323 -3.2253418 -7.9641113 -12.042419q2.367279 8.817078 -0.86227417 14.408798l0 0c-1.7836304 3.088211 -0.7237549 7.0357513 2.367279 8.817062l0 0c3.091034 1.781311 7.042755 0.7218628 8.8263855 -2.3663635z" fill-rule="evenodd"/><path fill="#2b67ff" fill-opacity="0.7151" d="m431.86243 257.90723l0 0c-2.0850525 0.5987549 -4.2590027 -0.6062012 -4.8556213 -2.6913452q-0.993042 -3.4706573 -5.1517944 -6.032257q4.376343 2.16922 7.846863 1.1726074l0 0c2.0850525 -0.5987549 4.258972 0.6062012 4.8556213 2.6913605l0 0c0.59661865 2.085144 -0.61001587 4.2608795 -2.6950684 4.8596344z" fill-rule="evenodd"/><path stroke="#2b67ff" stroke-width="1.0" stroke-linejoin="round" stroke-linecap="butt" d="m431.86243 257.90723l0 0c-2.0850525 0.5987549 -4.2590027 -0.6062012 -4.8556213 -2.6913452q-0.993042 -3.4706573 -5.1517944 -6.032257q4.376343 2.16922 7.846863 1.1726074l0 0c2.0850525 -0.5987549 4.258972 0.6062012 4.8556213 2.6913605l0 0c0.59661865 2.085144 -0.61001587 4.2608795 -2.6950684 4.8596344z" fill-rule="evenodd"/><path fill="#2b67ff" fill-opacity="0.7151" d="m428.48334 269.15982l0 0c-2.08609 -0.59198 -3.295868 -2.7639465 -2.702118 -4.851227q0.98825073 -3.4742126 -1.1907349 -7.847229q2.5707397 4.1543884 6.0429688 5.1397095l0 0c2.08609 0.59198 3.295868 2.7639465 2.7021484 4.851227l0 0c-0.59375 2.0873108 -2.7661743 3.2994995 -4.8522644 2.7075195z" fill-rule="evenodd"/><path stroke="#2b67ff" stroke-width="1.0" stroke-linejoin="round" stroke-linecap="butt" d="m428.48334 269.15982l0 0c-2.08609 -0.59198 -3.295868 -2.7639465 -2.702118 -4.851227q0.98825073 -3.4742126 -1.1907349 -7.847229q2.5707397 4.1543884 6.0429688 5.1397095l0 0c2.08609 0.59198 3.295868 2.7639465 2.7021484 4.851227l0 0c-0.59375 2.0873108 -2.7661743 3.2994995 -4.8522644 2.7075195z" fill-rule="evenodd"/><path fill="#2b67ff" fill-opacity="0.7151" d="m443.0446 272.7089l0 0c-2.7617493 0.14831543 -5.1186523 -1.9708862 -5.2643127 -4.7333374q-0.24246216 -4.598053 -4.6779785 -8.970917q4.8179626 3.9473572 9.414795 3.700531l0 0c2.7617188 -0.14831543 5.1186523 1.9708862 5.2643127 4.7333374l0 0c0.1456604 2.7624817 -1.9750671 5.122101 -4.7368164 5.2703857z" fill-rule="evenodd"/><path stroke="#2b67ff" stroke-width="1.0" stroke-linejoin="round" stroke-linecap="butt" d="m443.0446 272.7089l0 0c-2.7617493 0.14831543 -5.1186523 -1.9708862 -5.2643127 -4.7333374q-0.24246216 -4.598053 -4.6779785 -8.970917q4.8179626 3.9473572 9.414795 3.700531l0 0c2.7617188 -0.14831543 5.1186523 1.9708862 5.2643127 4.7333374l0 0c0.1456604 2.7624817 -1.9750671 5.122101 -4.7368164 5.2703857z" fill-rule="evenodd"/><path fill="#2b67ff" fill-opacity="0.7151" d="m388.65286 206.29715l0 0c-1.0784607 -3.4006958 -4.709564 -5.283203 -8.1102295 -4.204727q-6.1574707 1.9527588 -14.267731 -2.2519684q8.11026 4.204727 10.062988 10.362198l0 0c1.0784912 3.4006805 4.709564 5.283203 8.11026 4.204727l0 0c3.4006653 -1.078476 5.283203 -4.709549 4.204712 -8.1102295z" fill-rule="evenodd"/><path stroke="#2b67ff" stroke-width="1.0" stroke-linejoin="round" stroke-linecap="butt" d="m388.65286 206.29715l0 0c-1.0784607 -3.4006958 -4.709564 -5.283203 -8.1102295 -4.204727q-6.1574707 1.9527588 -14.267731 -2.2519684q8.11026 4.204727 10.062988 10.362198l0 0c1.0784912 3.4006805 4.709564 5.283203 8.11026 4.204727l0 0c3.4006653 -1.078476 5.283203 -4.709549 4.204712 -8.1102295z" fill-rule="evenodd"/></g></svg>