<svg version="1.1" viewBox="0.0 0.0 557.8582677165355 557.8582677165355" fill="none" stroke="none" stroke-linecap="square" stroke-miterlimit="10" xmlns:xlink="http://www.w3.org/1999/xlink" xmlns="http://www.w3.org/2000/svg"><clipPath id="p.0"><path d="m0 0l557.8583 0l0 557.8583l-557.8583 0l0 -557.8583z" clip-rule="nonzero"/></clipPath><g clip-path="url(#p.0)"><path fill="#000000" fill-opacity="0.0" d="m0 0l557.8583 0l0 557.8583l-557.8583 0z" fill-rule="evenodd"/><path fill="#000000" fill-opacity="0.0" d="m60.55118 108.087326l292.75592 0l0 323.30707l-292.75592 0z" fill-rule="evenodd"/><path fill="#000000" d="m198.99707 350.89398q-9.515625 0 -18.59375 -3.171875q-9.0625 -3.1875 -14.28125 -9.984375q-5.203125 -6.796875 -4.75 -18.125q0.453125 -7.703125 3.625 -14.5q3.171875 -6.8125 11.78125 -16.546875q8.625 -9.75 24.484375 -24.71875q11.328125 -10.42186 20.171875 -21.07811q8.84375 -10.65625 14.5 -23.34375q5.671875 -12.6875 6.578125 -29.921875q0.90625 -14.046875 -2.265625 -25.15625q-3.171875 -11.109375 -11.328125 -17.671875q-8.15625 -6.578125 -23.578125 -6.578125q-7.25 0 -14.28125 2.265625q-7.03125 2.265625 -12.46875 5.4375q-5.4375 3.171875 -8.609375 6.796875q4.53125 4.53125 6.34375 12.015625q1.8125 7.484375 0.90625 12.46875q-0.453125 5.890625 -4.3125 12.921875q-3.84375 7.015625 -10.875 11.5625q-7.015625 4.53125 -17.90625 4.078125q-14.046875 -0.90625 -20.625008 -9.75q-6.5625 -8.84375 -6.109375 -22.4375q0.90625 -16.328125 14.046883 -31.734375q13.140625 -15.421875 35.125 -25.390625q22.0 -9.96875 49.1875 -9.96875q35.8125 0 56.4375 10.421875q20.640625 10.421875 28.796875 26.96875q8.15625 16.546875 7.25 34.6875q-0.90625 19.03125 -11.34375 34.671875q-10.421875 15.640625 -25.15625 28.796875q-14.71875 13.14061 -29.453125 23.79686q-14.734375 10.65625 -24.71875 20.171875q-9.96875 9.515625 -10.421875 18.125q-0.453125 5.90625 3.84375 9.765625q4.3125 3.84375 13.84375 3.84375q2.71875 0 6.109375 -0.453125q3.40625 -0.453125 7.484375 -1.359375l5.890625 23.109375q-11.328125 5.90625 -24.03125 7.953125q-12.6875 2.03125 -21.296875 2.03125zm0 89.296875q-13.140625 0 -22.21875 -10.421875q-9.0625 -10.421875 -8.609375 -24.9375q0.90625 -14.5 11.328125 -24.921875q10.4375 -10.4375 23.578125 -10.4375q14.046875 0 22.890625 10.4375q8.84375 10.421875 7.9375 24.921875q-0.453125 14.515625 -11.109375 24.9375q-10.65625 10.421875 -23.796875 10.421875z" fill-rule="nonzero"/><path fill="#000000" d="m312.66852 50.162815c2.0980835 17.87717 8.594879 75.58455 -1.5740356 107.25316c-10.168915 31.668594 -57.49716 84.72432 -59.439453 82.75842c-1.9422913 -1.9658813 39.977203 -62.883545 47.785736 -94.55379c7.808502 -31.670242 -3.1392822 -79.558014 -0.93463135 -95.46764c2.2046204 -15.90963 12.064331 -17.867313 14.162384 0.009853363z" fill-rule="evenodd"/><path fill="#000000" d="m294.93555 61.747562c3.2719116 15.865597 13.586548 67.100876 6.937622 96.27504c-6.648926 29.174164 -44.93741 80.38286 -46.831223 78.76993c-1.8938141 -1.6129303 30.935104 -59.453552 35.46837 -88.447464c4.5332947 -28.993927 -9.006226 -71.08314 -8.268677 -85.51605c0.7375488 -14.432915 9.421997 -16.947048 12.693909 -1.0814476z" fill-rule="evenodd"/><path fill="#000000" d="m278.4052 74.37097c4.152466 13.988228 17.336578 59.180298 13.612732 85.8802c-3.723816 26.699905 -34.1333 75.62077 -35.955658 74.319244c-1.8223419 -1.3015289 23.181427 -55.753647 25.021576 -82.12842c1.8401489 -26.374771 -13.53421 -63.10839 -13.980652 -76.12023c-0.44644165 -13.011837 7.1495667 -15.9390335 11.302002 -1.950798z" fill-rule="evenodd"/><path fill="#000000" d="m264.60016 88.96717c4.8198547 12.2308655 20.183594 51.76078 18.912018 75.88268c-1.2716064 24.121902 -24.802368 69.89102 -26.541595 68.84871c-1.7391968 -1.0423279 16.502625 -51.396988 16.106354 -75.10263c-0.39630127 -23.705658 -17.071228 -55.52648 -18.484009 -67.13128c-1.412796 -11.60479 5.1873474 -14.728348 10.007233 -2.4974823z" fill-rule="evenodd"/><path fill="#000000" d="m442.52536 144.71326c-19.514893 0.30238342 -82.46936 1.5748291 -115.053345 17.035522c-32.584015 15.460678 -82.841385 73.922134 -80.45062 75.72859c2.390747 1.8064423 61.871826 -51.96608 94.795135 -64.88991c32.92331 -12.923813 85.95993 -8.007294 102.74475 -12.653c16.78479 -4.645706 17.478943 -15.52359 -2.0359192 -15.221207z" fill-rule="evenodd"/><path stroke="#ffffff" stroke-width="1.0" stroke-linejoin="round" stroke-linecap="butt" d="m442.52536 144.71326c-19.514893 0.30238342 -82.46936 1.5748291 -115.053345 17.035522c-32.584015 15.460678 -82.841385 73.922134 -80.45062 75.72859c2.390747 1.8064423 61.871826 -51.96608 94.795135 -64.88991c32.92331 -12.923813 85.95993 -8.007294 102.74475 -12.653c16.78479 -4.645706 17.478943 -15.52359 -2.0359192 -15.221207z" fill-rule="evenodd"/><path fill="#000000" d="m432.6097 165.43106c-17.52066 -1.2471313 -74.06473 -5.0042114 -104.47101 6.3161316c-30.406311 11.320343 -79.97119 59.801056 -77.96675 61.605896c2.0044556 1.8048401 59.478287 -41.756363 89.99339 -50.776886c30.515106 -9.020523 77.68994 -0.48872375 93.09732 -3.3462524c15.40741 -2.8575287 16.867706 -12.551773 -0.6529541 -13.798889z" fill-rule="evenodd"/><path fill="#000000" d="m421.40573 185.00476c-15.628754 -2.462143 -66.08777 -10.168045 -94.25299 -2.345749c-28.165222 7.822281 -76.39786 47.50688 -74.73833 49.279465c1.6595306 1.7725677 56.610336 -32.89293 84.69548 -38.644028c28.085114 -5.7510834 69.76602 5.5190887 83.81531 4.1374817c14.049316 -1.3816223 16.109253 -9.965012 0.4805298 -12.42717z" fill-rule="evenodd"/><path fill="#000000" d="m407.69156 201.93144c-13.835327 -3.430954 -58.520233 -14.289673 -84.2652 -9.472015c-25.744995 4.8176727 -71.57376 36.65773 -70.20473 38.37802c1.3690186 1.7202911 52.882797 -25.090866 78.4189 -28.05626c25.536133 -2.965393 62.12262 10.405533 74.79779 10.263916c12.675171 -0.14163208 15.088562 -7.682724 1.2532349 -11.113663z" fill-rule="evenodd"/></g></svg>