<svg version="1.1" viewBox="0.0 0.0 557.8582677165355 557.8582677165355" fill="none" stroke="none" stroke-linecap="square" stroke-miterlimit="10" xmlns:xlink="http://www.w3.org/1999/xlink" xmlns="http://www.w3.org/2000/svg"><clipPath id="p.0"><path d="m0 0l557.8583 0l0 557.8583l-557.8583 0l0 -557.8583z" clip-rule="nonzero"/></clipPath><g clip-path="url(#p.0)"><path fill="#000000" fill-opacity="0.0" d="m0 0l557.8583 0l0 557.8583l-557.8583 0z" fill-rule="evenodd"/><path fill="#2b67ff" d="m218.2529 261.55722l172.81793 0l0 55.23712l-172.81793 0z" fill-rule="evenodd"/><path fill="#2252cb" d="m391.07083 261.55722l36.128815 -36.12883l0 55.237106l-36.128815 36.128845z" fill-rule="evenodd"/><path fill="#5585ff" d="m218.2529 261.55722l36.12883 -36.12883l172.81792 0l-36.128815 36.12883z" fill-rule="evenodd"/><path fill="#000000" fill-opacity="0.0" d="m218.2529 261.55722l36.12883 -36.12883l172.81792 0l0 55.237106l-36.128815 36.128845l-172.81793 0zm0 0l172.81793 0l36.128815 -36.12883m-36.128815 36.12883l0 55.23712" fill-rule="evenodd"/><path fill="#2b67ff" d="m183.63289 296.17725l172.81792 0l0 55.23709l-172.81792 0z" fill-rule="evenodd"/><path fill="#2252cb" d="m356.4508 296.17725l36.128845 -36.128845l0 55.23712l-36.128845 36.128815z" fill-rule="evenodd"/><path fill="#5585ff" d="m183.63289 296.17725l36.12883 -36.128845l172.81793 0l-36.128845 36.128845z" fill-rule="evenodd"/><path fill="#000000" fill-opacity="0.0" d="m183.63289 296.17725l36.12883 -36.128845l172.81793 0l0 55.23712l-36.128845 36.128815l-172.81792 0zm0 0l172.81792 0l36.128845 -36.128845m-36.128845 36.128845l0 55.23709" fill-rule="evenodd"/><path fill="#2b67ff" d="m149.01288 330.79724l172.81793 0l0 55.23712l-172.81793 0z" fill-rule="evenodd"/><path fill="#2252cb" d="m321.8308 330.79724l36.128815 -36.128815l0 55.23709l-36.128815 36.128845z" fill-rule="evenodd"/><path fill="#5585ff" d="m149.01288 330.79724l36.12883 -36.128815l172.81792 0l-36.128815 36.128815z" fill-rule="evenodd"/><path fill="#000000" fill-opacity="0.0" d="m149.01288 330.79724l36.12883 -36.128815l172.81792 0l0 55.23709l-36.128815 36.128845l-172.81793 0zm0 0l172.81793 0l36.128815 -36.128815m-36.128815 36.128815l0 55.23712" fill-rule="evenodd"/><path fill="#2b67ff" d="m218.2529 208.32843l172.81793 0l0 55.23709l-172.81793 0z" fill-rule="evenodd"/><path fill="#2252cb" d="m391.07083 208.32843l36.128815 -36.12883l0 55.23709l-36.128815 36.12883z" fill-rule="evenodd"/><path fill="#5585ff" d="m218.2529 208.32843l36.12883 -36.12883l172.81792 0l-36.128815 36.12883z" fill-rule="evenodd"/><path fill="#000000" fill-opacity="0.0" d="m218.2529 208.32843l36.12883 -36.12883l172.81792 0l0 55.23709l-36.128815 36.12883l-172.81793 0zm0 0l172.81793 0l36.128815 -36.12883m-36.128815 36.12883l0 55.23709" fill-rule="evenodd"/><path fill="#2b67ff" d="m183.63289 242.94844l172.81792 0l0 55.237106l-172.81792 0z" fill-rule="evenodd"/><path fill="#2252cb" d="m356.4508 242.94844l36.128845 -36.12883l0 55.23709l-36.128845 36.128845z" fill-rule="evenodd"/><path fill="#5585ff" d="m183.63289 242.94844l36.12883 -36.12883l172.81793 0l-36.128845 36.12883z" fill-rule="evenodd"/><path fill="#000000" fill-opacity="0.0" d="m183.63289 242.94844l36.12883 -36.12883l172.81793 0l0 55.23709l-36.128845 36.128845l-172.81792 0zm0 0l172.81792 0l36.128845 -36.12883m-36.128845 36.12883l0 55.237106" fill-rule="evenodd"/><path fill="#2b67ff" d="m218.2529 155.09962l172.81793 0l0 55.237106l-172.81793 0z" fill-rule="evenodd"/><path fill="#2252cb" d="m391.07083 155.09962l36.128815 -36.12883l0 55.237106l-36.128815 36.12883z" fill-rule="evenodd"/><path fill="#5585ff" d="m218.2529 155.09962l36.12883 -36.12883l172.81792 0l-36.128815 36.12883z" fill-rule="evenodd"/><path fill="#000000" fill-opacity="0.0" d="m218.2529 155.09962l36.12883 -36.12883l172.81792 0l0 55.237106l-36.128815 36.12883l-172.81793 0zm0 0l172.81793 0l36.128815 -36.12883m-36.128815 36.12883l0 55.237106" fill-rule="evenodd"/><path fill="#000000" d="m237.63664 321.24643c-5.933441 0 -11.881851 1.1069031 -13.641937 4.1384583c-3.201065 5.5395203 -6.2625275 16.613647 -3.0564728 23.020752c3.2060547 6.4121094 4.0786285 11.8020935 6.117935 11.8020935c2.0393066 0 -3.2060547 3.7894287 -3.934021 5.2453613c-0.30415344 0.45373535 -0.39390564 0.5933533 -0.6980591 0.5933533c-0.4786682 0 -1.4758759 -0.34405518 -4.642044 -0.34405518c-0.6132965 0 -1.306366 0.009979248 -2.0891724 0.044891357c-3.7495422 -2.1739502 -12.849152 -4.278076 -20.093948 -4.278076c-3.4503632 0 -6.4868927 0.4786682 -8.316788 1.655365c-5.539551 3.639862 -8.306824 15.1527405 -7.5788574 18.35382c0.8775482 3.2060547 2.3334808 9.907349 5.9733276 12.385437c1.6504059 3.0564575 1.4908447 7.733429 -1.0071869 7.733429c-0.59832764 0 -1.326294 -0.2692566 -2.1988678 -0.8875427c-0.857605 -2.6725464 -3.784439 -5.225403 -5.6193237 -5.225403c-0.95732117 0 -1.6154938 0.70303345 -1.5157623 2.45813c-0.8077545 -0.23434448 -1.5556641 -0.34902954 -2.2387543 -0.34902954c-1.4110718 0 -2.562851 0.48864746 -3.4453888 1.3711853c-1.6005402 1.6005249 -3.2060547 11.652496 -3.934021 15.15271c-0.72798157 3.7894287 0.43876648 4.223236 2.0393066 6.1179504c0.25428772 0.27423096 0.45872498 0.39389038 0.6382141 0.39389038c0.9523468 0 1.0022125 -3.4802856 1.9844666 -5.2005005c1.166748 -3.061432 2.9168549 -6.4121094 3.350647 -6.4121094c0 0 1.166748 1.6005554 1.8947144 2.1839294c-1.1966553 4.058655 1.9794769 8.177185 3.809372 8.177185c1.0620422 0 1.6703491 -1.3861389 0.7080231 -4.9711304l0 0c4.0786285 3.0614624 7.4292755 3.7894287 9.618179 4.3728027c1.4260101 0.47366333 2.7124329 0.7329407 3.9040985 0.7329407c2.448166 0 4.4775085 -1.0969238 6.437042 -3.6498108c6.4121094 -7.429291 6.267517 -18.64798 5.389969 -19.520538c-0.28919983 -0.29418945 9.473572 -2.0393066 14.135559 -2.6226807c3.6398468 0.8725586 5.534561 10.051941 7.573868 11.946655c3.350647 3.350647 8.162231 12.53006 11.3632965 13.8414c2.6226807 1.071991 7.5888367 1.1717224 9.543381 1.1717224c0.43876648 0 0.7229767 -0.0049743652 0.80274963 -0.0049743652c0.11468506 0.07476807 0.53352356 0.1595459 1.0670319 0.1595459c1.5307312 0 3.9838867 -0.70803833 2.5778046 -4.3877563c-1.0221405 -0.28918457 -3.7894287 -0.7279663 -6.267517 -1.6005554c4.00383 -1.9994202 2.163971 -2.767273 -0.27423096 -2.767273c-1.1118927 0 -2.3534393 0.15957642 -3.2210083 0.43380737c-2.6226807 -6.407135 -9.907364 -17.33664 -9.468582 -19.231354c0.43377686 -1.7451477 4.8065796 -9.179382 5.8237457 -17.33664c0 0 0.8775482 -4.0786133 2.0393066 -7.868042l0.73295593 -2.3284912c0.20941162 -0.90249634 0.49861145 -1.2066345 0.8675842 -1.2066345c0.6382141 0 1.5157623 0.9273987 2.6276703 1.2066345c2.049286 0.50857544 2.4980316 0.7229614 3.0115967 0.7229614c0.36897278 0 0.7678528 -0.109680176 1.7949829 -0.28918457c2.333496 -0.43377686 7.868042 -8.012634 7.868042 -13.985992c0 -5.8287354 -1.7500916 -11.657471 -0.14459229 -14.863525c1.6005554 -3.2010498 -2.4780731 -11.946655 -8.012634 -14.275177c-2.5080109 -1.0570374 -7.3943787 -1.8099365 -12.2957 -1.8099365z" fill-rule="evenodd"/><path stroke="#000000" stroke-width="0.38320209973753283" stroke-miterlimit="29.2208" stroke-linecap="butt" d="m237.63664 321.24643c-5.933441 0 -11.881851 1.1069031 -13.641937 4.1384583c-3.201065 5.5395203 -6.2625275 16.613647 -3.0564728 23.020752c3.2060547 6.4121094 4.0786285 11.8020935 6.117935 11.8020935c2.0393066 0 -3.2060547 3.7894287 -3.934021 5.2453613c-0.30415344 0.45373535 -0.39390564 0.5933533 -0.6980591 0.5933533c-0.4786682 0 -1.4758759 -0.34405518 -4.642044 -0.34405518c-0.6132965 0 -1.306366 0.009979248 -2.0891724 0.044891357c-3.7495422 -2.1739502 -12.849152 -4.278076 -20.093948 -4.278076c-3.4503632 0 -6.4868927 0.4786682 -8.316788 1.655365c-5.539551 3.639862 -8.306824 15.1527405 -7.5788574 18.35382c0.8775482 3.2060547 2.3334808 9.907349 5.9733276 12.385437c1.6504059 3.0564575 1.4908447 7.733429 -1.0071869 7.733429c-0.59832764 0 -1.326294 -0.2692566 -2.1988678 -0.8875427c-0.857605 -2.6725464 -3.784439 -5.225403 -5.6193237 -5.225403c-0.95732117 0 -1.6154938 0.70303345 -1.5157623 2.45813c-0.8077545 -0.23434448 -1.5556641 -0.34902954 -2.2387543 -0.34902954c-1.4110718 0 -2.562851 0.48864746 -3.4453888 1.3711853c-1.6005402 1.6005249 -3.2060547 11.652496 -3.934021 15.15271c-0.72798157 3.7894287 0.43876648 4.223236 2.0393066 6.1179504c0.25428772 0.27423096 0.45872498 0.39389038 0.6382141 0.39389038c0.9523468 0 1.0022125 -3.4802856 1.9844666 -5.2005005c1.166748 -3.061432 2.9168549 -6.4121094 3.350647 -6.4121094c0 0 1.166748 1.6005554 1.8947144 2.1839294c-1.1966553 4.058655 1.9794769 8.177185 3.809372 8.177185c1.0620422 0 1.6703491 -1.3861389 0.7080231 -4.9711304l0 0c4.0786285 3.0614624 7.4292755 3.7894287 9.618179 4.3728027c1.4260101 0.47366333 2.7124329 0.7329407 3.9040985 0.7329407c2.448166 0 4.4775085 -1.0969238 6.437042 -3.6498108c6.4121094 -7.429291 6.267517 -18.64798 5.389969 -19.520538c-0.28919983 -0.29418945 9.473572 -2.0393066 14.135559 -2.6226807c3.6398468 0.8725586 5.534561 10.051941 7.573868 11.946655c3.350647 3.350647 8.162231 12.53006 11.3632965 13.8414c2.6226807 1.071991 7.5888367 1.1717224 9.543381 1.1717224c0.43876648 0 0.7229767 -0.0049743652 0.80274963 -0.0049743652c0.11468506 0.07476807 0.53352356 0.1595459 1.0670319 0.1595459c1.5307312 0 3.9838867 -0.70803833 2.5778046 -4.3877563c-1.0221405 -0.28918457 -3.7894287 -0.7279663 -6.267517 -1.6005554c4.00383 -1.9994202 2.163971 -2.767273 -0.27423096 -2.767273c-1.1118927 0 -2.3534393 0.15957642 -3.2210083 0.43380737c-2.6226807 -6.407135 -9.907364 -17.33664 -9.468582 -19.231354c0.43377686 -1.7451477 4.8065796 -9.179382 5.8237457 -17.33664c0 0 0.8775482 -4.0786133 2.0393066 -7.868042l0.73295593 -2.3284912c0.20941162 -0.90249634 0.49861145 -1.2066345 0.8675842 -1.2066345c0.6382141 0 1.5157623 0.9273987 2.6276703 1.2066345c2.049286 0.50857544 2.4980316 0.7229614 3.0115967 0.7229614c0.36897278 0 0.7678528 -0.109680176 1.7949829 -0.28918457c2.333496 -0.43377686 7.868042 -8.012634 7.868042 -13.985992c0 -5.8287354 -1.7500916 -11.657471 -0.14459229 -14.863525c1.6005554 -3.2010498 -2.4780731 -11.946655 -8.012634 -14.275177c-2.5080109 -1.0570374 -7.3943787 -1.8099365 -12.2957 -1.8099365z" fill-rule="evenodd"/></g></svg>