<svg version="1.1" viewBox="0.0 0.0 557.8582677165355 557.8582677165355" fill="none" stroke="none" stroke-linecap="square" stroke-miterlimit="10" xmlns:xlink="http://www.w3.org/1999/xlink" xmlns="http://www.w3.org/2000/svg"><clipPath id="p.0"><path d="m0 0l557.8583 0l0 557.8583l-557.8583 0l0 -557.8583z" clip-rule="nonzero"/></clipPath><g clip-path="url(#p.0)"><path fill="#000000" fill-opacity="0.0" d="m0 0l557.8583 0l0 557.8583l-557.8583 0z" fill-rule="evenodd"/><path fill="#000000" d="m231.17725 252.0077c-47.28241 1.4246063 -34.465347 11.961868 -24.781113 13.1028595c-4.2738037 5.126831 -6.837219 20.790924 -7.120819 43.8638c-0.85520935 46.427216 -1.7104034 96.844604 26.489319 135.8652c19.937881 23.642303 56.397232 18.799072 71.494095 -9.114838c24.209534 -32.471344 33.32437 -71.77771 37.028778 -111.08411c0.28359985 -16.521454 -3.4186096 -46.99878 -9.684265 -57.53824c-11.678253 -10.537262 -37.598145 -11.392456 -93.425995 -15.094681z" fill-rule="evenodd"/><path fill="#000000" d="m206.39613 261.97556c15.949875 -14.81105 42.439194 -9.96785 63.51808 -2.563385c5.126831 7.690216 50.415222 -14.241684 59.53006 6.2677917c-6.551422 25.919922 -32.471344 33.61017 -60.95465 15.664093c-24.495316 -2.5634155 -36.17357 33.612335 -62.09349 -19.3685z" fill-rule="evenodd"/><path fill="#000000" d="m328.30548 352.55457c-1.9940186 45.28839 -11.96405 56.966644 -33.61017 93.425995c-21.931885 10.253662 -41.30255 19.3685 -50.417404 12.817047c-13.100662 -42.724976 38.73915 2.5634155 84.02757 -106.24304z" fill-rule="evenodd"/><path fill="#2b67ff" d="m231.17725 252.0077c-47.28241 1.4246063 -34.465347 11.961868 -24.781113 13.1028595c-4.2738037 5.126831 -6.837219 20.790924 -7.120819 43.8638c-0.85520935 46.427216 -1.7104034 96.844604 26.489319 135.8652c19.937881 23.642303 56.397232 18.799072 71.494095 -9.114838c24.209534 -32.471344 33.32437 -71.77771 37.028778 -111.08411c0.28359985 -16.521454 -3.4186096 -46.99878 -9.684265 -57.53824c-11.678253 -10.537262 -37.598145 -11.392456 -93.425995 -15.094681z" fill-rule="evenodd"/><path fill="#d9ead3" fill-opacity="0.8827" d="m328.30548 352.55457c-1.9940186 45.28839 -11.96405 56.966644 -33.61017 93.425995c-21.931885 10.253662 -41.30255 19.3685 -50.417404 12.817047c-13.100662 -42.724976 38.73915 2.5634155 84.02757 -106.24304z" fill-rule="evenodd"/><path fill="#2b67ff" d="m206.39613 261.97556c15.949875 -14.81105 42.439194 -9.96785 63.51808 -2.563385c5.126831 7.690216 50.415222 -14.241684 59.53006 6.2677917c-6.551422 25.919922 -32.471344 33.61017 -60.95465 15.664093c-24.495316 -2.5634155 -36.17357 33.612335 -62.09349 -19.3685z" fill-rule="evenodd"/><path fill="#000000" d="m227.74748 245.72426c-47.28241 1.7104034 -90.2932 13.672256 -132.44878 36.175735c17.946068 7.4044495 37.028763 -4.8432007 54.403244 -3.9880066c14.241653 -2.5634155 37.314545 -10.825226 46.998795 -9.970032c-4.2738037 5.412628 -4.2738037 19.3685 -4.557419 42.724976c-0.8551941 46.429413 4.557419 99.40805 33.04074 138.43082c19.654282 23.640106 62.662888 21.362488 77.75975 -6.551422c24.4953 -32.471344 32.185547 -73.20233 35.889954 -112.510895c0.28359985 -16.235657 5.410431 -52.123444 3.1328125 -64.087494c28.483307 -3.9880066 78.89856 15.096863 105.10425 27.058746c-5.4125977 -16.805084 -20.223694 -20.790924 -34.75113 -24.209534c-56.11145 -18.799072 -125.89737 -23.072891 -184.57222 -23.072891zm1.1388092 12.81926c14.527451 -0.57159424 32.471344 3.9858093 37.028748 15.6640625c4.843231 16.521484 -2.2776184 33.326538 0 49.848022c-1.138794 32.754944 -2.2776184 65.512085 -3.4186096 97.98123c13.958069 -12.5312805 7.4066467 -33.610138 8.545441 -49.560028c5.696228 -33.326538 -1.993988 -66.65088 5.982025 -99.69165c3.4186096 -7.690216 11.392456 -13.388641 19.937897 -12.819244c24.781097 3.1350098 37.314545 31.618347 33.04074 54.11963c-1.4245911 46.427216 -12.5312805 91.14621 -42.724976 128.46078c-19.937897 20.507294 -55.258453 10.823029 -65.2263 -15.66629c-20.79309 -36.74295 -15.666275 -75.19632 -17.090866 -116.213104c-0.2836151 -17.374481 0.28578186 -52.695007 11.392456 -49.845795c3.4186096 -1.4246216 7.9760284 -1.9940186 12.533447 -2.2776184zm-160.6463 5.1268005c-3.9880142 9.114838 -2.5634155 19.6521 -1.7082138 29.336365c2.2776184 14.243835 10.823051 28.485504 24.209518 34.465332c8.83123 3.7044067 37.028763 5.126831 38.167572 0.28579712c-0.2836151 -3.7022095 -23.92591 -7.9760437 -31.616142 -9.400635c-10.823059 -2.5634155 -14.811073 -9.967865 -18.229683 -19.937897c-3.4186096 -9.684235 -8.829041 -33.32434 -10.823051 -34.748962zm411.87158 4.557434c-4.2738037 -0.28579712 0.85302734 32.754944 -2.5634155 41.014587c-3.7043762 7.6924133 -11.394623 13.102844 -19.36847 15.096863c-8.545441 2.5634155 -17.376678 2.5634155 -24.781097 7.120819c6.835022 8.259644 35.31836 2.5634155 42.724976 -2.8470154c10.253662 -8.545441 13.955872 -23.072876 11.678253 -35.889954c-1.1388245 -8.545441 -3.9880066 -16.805054 -7.6902466 -24.4953z" fill-rule="evenodd"/></g></svg>