<svg version="1.1" viewBox="0.0 0.0 557.8582677165355 557.8582677165355" fill="none" stroke="none" stroke-linecap="square" stroke-miterlimit="10" xmlns:xlink="http://www.w3.org/1999/xlink" xmlns="http://www.w3.org/2000/svg"><clipPath id="p.0"><path d="m0 0l557.8583 0l0 557.8583l-557.8583 0l0 -557.8583z" clip-rule="nonzero"/></clipPath><g clip-path="url(#p.0)"><path fill="#000000" fill-opacity="0.0" d="m0 0l557.8583 0l0 557.8583l-557.8583 0z" fill-rule="evenodd"/><path fill="#2b67ff" fill-opacity="0.7151" d="m162.24606 133.59578l0 3.597412l-15.173859 0l0 -3.597412zm312.5391 0l0 3.597412l-15.185944 0l0 -3.597412zm-259.99548 -4.698242c4.723633 0 9.487137 0.07733154 14.117722 0.07733154c1.5165405 0 3.0197906 -0.008453369 4.5012817 -0.030212402c0.58125305 -0.0096588135 1.5322571 -0.029006958 2.7744904 -0.029006958c10.279846 0 40.484985 1.338913 45.84665 21.21225c5.7314453 21.230347 -2.7732544 48.225983 -20.87024 63.482025c-7.2588654 6.1229553 -26.778137 12.546799 -45.75 12.546799c-13.990845 0 -27.684418 -3.4934692 -35.946243 -13.172745c-13.329849 -15.61615 -16.161118 -29.79187 -17.576157 -49.445282c-0.90509033 -12.459793 2.3080444 -25.151611 22.645401 -31.612915c8.074509 -2.5751038 18.666138 -3.0161743 29.52481 -3.028244c0.24409485 0 0.4881897 0 0.73228455 0zm170.7649 -0.0012207031c1.3002319 0 2.2947388 0.037460327 2.8941345 0.048339844c1.4814758 0.021759033 2.9835205 0.030212402 4.500061 0.030212402c4.6318054 0 9.395294 -0.07733154 14.117737 -0.07733154c0.24407959 0 0.4881897 0 0.7322693 0c10.858673 0.012069702 21.451508 0.45314026 29.526031 3.028244c20.336151 6.4613037 23.538391 19.153122 22.645386 31.612915c-1.427124 19.653412 -4.2463074 33.829132 -17.576141 49.445282c-8.261841 9.6792755 -21.955414 13.172745 -35.94626 13.172745c-18.973083 0 -38.49112 -6.4238434 -45.74997 -12.546799c-18.098206 -15.2560425 -26.601715 -42.25168 -20.87027 -63.482025c5.266205 -19.49028 34.40915 -21.172363 45.232788 -21.230362c0.16918945 -0.0012207031 0.3335266 -0.0012207031 0.49423218 -0.0012207031zm-162.45473 -10.068375c-29.32785 0 -58.174744 1.0090103 -84.74019 5.0583572l0.88212585 19.977257c7.644333 2.7962341 9.964462 8.004425 11.00972 14.292938c4.8251495 29.002777 11.5776825 53.66742 24.153488 63.805878c8.504715 6.860092 19.092697 12.877914 38.210785 12.877914c0.96188354 0 1.9443054 -0.015716553 2.9496918 -0.045928955c22.379547 -0.68515015 46.1391 -6.833496 57.79773 -20.291428c10.244812 -11.821762 20.917389 -30.000916 24.78064 -49.873047c1.4621582 -7.483612 6.763397 -10.800659 12.784851 -10.800659c6.020233 0 11.322693 3.317047 12.784851 10.800659c3.8632507 19.872131 14.535858 38.051285 24.77945 49.873047c11.659821 13.4579315 35.419373 19.606277 57.79773 20.291428c1.0053711 0.030212402 1.9890137 0.045928955 2.9508972 0.045928955c19.118073 0 29.704865 -6.0178223 38.210785 -12.877914c12.575806 -10.138458 19.327118 -34.8031 24.153473 -63.805878c1.0440674 -6.288513 3.3641968 -11.496704 10.99765 -14.292938l0.89419556 -19.977257c-26.56543 -4.049347 -55.412323 -5.0583572 -84.741394 -5.0583572c-0.16796875 0 -0.3371277 0 -0.50509644 0c-10.464752 0 -45.546967 4.2922363 -59.467743 11.995773c-5.8015137 3.2252197 -11.450775 4.4662476 -16.845062 4.6982574c-3.6662903 0.16313171 -7.338623 0.24409485 -11.009735 0.24409485c-3.6723328 0 -7.343445 -0.080963135 -11.009705 -0.24409485c-5.3943176 -0.23200989 -11.044769 -1.4730377 -16.845093 -4.6982574c-13.921967 -7.703537 -49.00421 -11.995773 -59.467728 -11.995773c-0.1691742 0 -0.33714294 0 -0.50631714 0z" fill-rule="evenodd"/><path stroke="#2b67ff" stroke-width="1.0" stroke-linejoin="round" stroke-linecap="butt" d="m162.24606 133.59578l0 3.597412l-15.173859 0l0 -3.597412zm312.5391 0l0 3.597412l-15.185944 0l0 -3.597412zm-259.99548 -4.698242c4.723633 0 9.487137 0.07733154 14.117722 0.07733154c1.5165405 0 3.0197906 -0.008453369 4.5012817 -0.030212402c0.58125305 -0.0096588135 1.5322571 -0.029006958 2.7744904 -0.029006958c10.279846 0 40.484985 1.338913 45.84665 21.21225c5.7314453 21.230347 -2.7732544 48.225983 -20.87024 63.482025c-7.2588654 6.1229553 -26.778137 12.546799 -45.75 12.546799c-13.990845 0 -27.684418 -3.4934692 -35.946243 -13.172745c-13.329849 -15.61615 -16.161118 -29.79187 -17.576157 -49.445282c-0.90509033 -12.459793 2.3080444 -25.151611 22.645401 -31.612915c8.074509 -2.5751038 18.666138 -3.0161743 29.52481 -3.028244c0.24409485 0 0.4881897 0 0.73228455 0zm170.7649 -0.0012207031c1.3002319 0 2.2947388 0.037460327 2.8941345 0.048339844c1.4814758 0.021759033 2.9835205 0.030212402 4.500061 0.030212402c4.6318054 0 9.395294 -0.07733154 14.117737 -0.07733154c0.24407959 0 0.4881897 0 0.7322693 0c10.858673 0.012069702 21.451508 0.45314026 29.526031 3.028244c20.336151 6.4613037 23.538391 19.153122 22.645386 31.612915c-1.427124 19.653412 -4.2463074 33.829132 -17.576141 49.445282c-8.261841 9.6792755 -21.955414 13.172745 -35.94626 13.172745c-18.973083 0 -38.49112 -6.4238434 -45.74997 -12.546799c-18.098206 -15.2560425 -26.601715 -42.25168 -20.87027 -63.482025c5.266205 -19.49028 34.40915 -21.172363 45.232788 -21.230362c0.16918945 -0.0012207031 0.3335266 -0.0012207031 0.49423218 -0.0012207031zm-162.45473 -10.068375c-29.32785 0 -58.174744 1.0090103 -84.74019 5.0583572l0.88212585 19.977257c7.644333 2.7962341 9.964462 8.004425 11.00972 14.292938c4.8251495 29.002777 11.5776825 53.66742 24.153488 63.805878c8.504715 6.860092 19.092697 12.877914 38.210785 12.877914c0.96188354 0 1.9443054 -0.015716553 2.9496918 -0.045928955c22.379547 -0.68515015 46.1391 -6.833496 57.79773 -20.291428c10.244812 -11.821762 20.917389 -30.000916 24.78064 -49.873047c1.4621582 -7.483612 6.763397 -10.800659 12.784851 -10.800659c6.020233 0 11.322693 3.317047 12.784851 10.800659c3.8632507 19.872131 14.535858 38.051285 24.77945 49.873047c11.659821 13.4579315 35.419373 19.606277 57.79773 20.291428c1.0053711 0.030212402 1.9890137 0.045928955 2.9508972 0.045928955c19.118073 0 29.704865 -6.0178223 38.210785 -12.877914c12.575806 -10.138458 19.327118 -34.8031 24.153473 -63.805878c1.0440674 -6.288513 3.3641968 -11.496704 10.99765 -14.292938l0.89419556 -19.977257c-26.56543 -4.049347 -55.412323 -5.0583572 -84.741394 -5.0583572c-0.16796875 0 -0.3371277 0 -0.50509644 0c-10.464752 0 -45.546967 4.2922363 -59.467743 11.995773c-5.8015137 3.2252197 -11.450775 4.4662476 -16.845062 4.6982574c-3.6662903 0.16313171 -7.338623 0.24409485 -11.009735 0.24409485c-3.6723328 0 -7.343445 -0.080963135 -11.009705 -0.24409485c-5.3943176 -0.23200989 -11.044769 -1.4730377 -16.845093 -4.6982574c-13.921967 -7.703537 -49.00421 -11.995773 -59.467728 -11.995773c-0.1691742 0 -0.33714294 0 -0.50631714 0z" fill-rule="evenodd"/><path fill="#2b67ff" fill-opacity="0.7151" d="m138.24606 229.59578l0 3.597412l-15.173859 0l0 -3.597412zm312.5391 0l0 3.597412l-15.185944 0l0 -3.597412zm-259.99548 -4.698242c4.723633 0 9.487137 0.07733154 14.117722 0.07733154c1.5165405 0 3.0197906 -0.008453369 4.5012817 -0.030212402c0.58125305 -0.0096588135 1.5322571 -0.029006958 2.7744904 -0.029006958c10.279846 0 40.484985 1.338913 45.84665 21.21225c5.7314453 21.230347 -2.7732697 48.225983 -20.870255 63.482025c-7.25885 6.1229553 -26.778122 12.546814 -45.749985 12.546814c-13.990845 0 -27.684418 -3.4934998 -35.946243 -13.17276c-13.329849 -15.61615 -16.161118 -29.79187 -17.576157 -49.445282c-0.90509033 -12.459793 2.3080444 -25.151611 22.645401 -31.612915c8.074509 -2.5751038 18.666138 -3.0161743 29.52481 -3.028244c0.24409485 0 0.4881897 0 0.73228455 0zm170.7649 -0.0012207031c1.3002319 0 2.2947388 0.037460327 2.8941345 0.048339844c1.4814758 0.021759033 2.9835205 0.030212402 4.500061 0.030212402c4.6318054 0 9.395294 -0.07733154 14.117737 -0.07733154c0.24407959 0 0.4881897 0 0.7322693 0c10.858673 0.012069702 21.451508 0.45314026 29.526031 3.028244c20.336151 6.4613037 23.538391 19.153122 22.645386 31.612915c-1.427124 19.653412 -4.2463074 33.829132 -17.576141 49.445282c-8.261841 9.67926 -21.955414 13.17276 -35.94626 13.17276c-18.973083 0 -38.49112 -6.4238586 -45.74997 -12.546814c-18.098206 -15.2560425 -26.601715 -42.25168 -20.87027 -63.482025c5.266205 -19.49028 34.40915 -21.172363 45.232788 -21.230362c0.16918945 -0.0012207031 0.3335266 -0.0012207031 0.49423218 -0.0012207031zm-162.45473 -10.068375c-29.32785 0 -58.174744 1.009018 -84.74019 5.058365l0.88212585 19.97725c7.644333 2.7962341 9.964462 8.004425 11.0097275 14.292938c4.825142 29.002777 11.577675 53.66742 24.15348 63.805878c8.504715 6.860077 19.092697 12.877899 38.210785 12.877899c0.96188354 0 1.9443054 -0.015686035 2.9496918 -0.045898438c22.379547 -0.68518066 46.1391 -6.833496 57.79773 -20.291443c10.244812 -11.821777 20.917389 -30.000916 24.78064 -49.873047c1.4621582 -7.483612 6.763397 -10.800659 12.784851 -10.800659c6.020233 0 11.322693 3.317047 12.784851 10.800659c3.8632507 19.872131 14.535858 38.05127 24.77945 49.873047c11.659821 13.457947 35.419373 19.606262 57.79773 20.291443c1.0053711 0.030212402 1.9890137 0.045898438 2.9508972 0.045898438c19.118073 0 29.704865 -6.0178223 38.210785 -12.877899c12.575806 -10.138458 19.327118 -34.8031 24.153473 -63.805878c1.0440674 -6.288513 3.3641968 -11.496704 10.99765 -14.292938l0.89419556 -19.97725c-26.56543 -4.049347 -55.412323 -5.058365 -84.741394 -5.058365c-0.16796875 0 -0.3371277 0 -0.50509644 0c-10.464752 0 -45.546967 4.2922363 -59.467743 11.995773c-5.8015137 3.2252197 -11.450775 4.4662476 -16.845062 4.6982574c-3.6662903 0.16313171 -7.338623 0.24409485 -11.009735 0.24409485c-3.6723328 0 -7.343445 -0.080963135 -11.009705 -0.24409485c-5.3943176 -0.23200989 -11.044769 -1.4730377 -16.845093 -4.6982574c-13.921967 -7.703537 -49.00421 -11.995773 -59.467728 -11.995773c-0.1691742 0 -0.33714294 0 -0.50631714 0z" fill-rule="evenodd"/><path stroke="#2b67ff" stroke-width="1.0" stroke-linejoin="round" stroke-linecap="butt" d="m138.24606 229.59578l0 3.597412l-15.173859 0l0 -3.597412zm312.5391 0l0 3.597412l-15.185944 0l0 -3.597412zm-259.99548 -4.698242c4.723633 0 9.487137 0.07733154 14.117722 0.07733154c1.5165405 0 3.0197906 -0.008453369 4.5012817 -0.030212402c0.58125305 -0.0096588135 1.5322571 -0.029006958 2.7744904 -0.029006958c10.279846 0 40.484985 1.338913 45.84665 21.21225c5.7314453 21.230347 -2.7732697 48.225983 -20.870255 63.482025c-7.25885 6.1229553 -26.778122 12.546814 -45.749985 12.546814c-13.990845 0 -27.684418 -3.4934998 -35.946243 -13.17276c-13.329849 -15.61615 -16.161118 -29.79187 -17.576157 -49.445282c-0.90509033 -12.459793 2.3080444 -25.151611 22.645401 -31.612915c8.074509 -2.5751038 18.666138 -3.0161743 29.52481 -3.028244c0.24409485 0 0.4881897 0 0.73228455 0zm170.7649 -0.0012207031c1.3002319 0 2.2947388 0.037460327 2.8941345 0.048339844c1.4814758 0.021759033 2.9835205 0.030212402 4.500061 0.030212402c4.6318054 0 9.395294 -0.07733154 14.117737 -0.07733154c0.24407959 0 0.4881897 0 0.7322693 0c10.858673 0.012069702 21.451508 0.45314026 29.526031 3.028244c20.336151 6.4613037 23.538391 19.153122 22.645386 31.612915c-1.427124 19.653412 -4.2463074 33.829132 -17.576141 49.445282c-8.261841 9.67926 -21.955414 13.17276 -35.94626 13.17276c-18.973083 0 -38.49112 -6.4238586 -45.74997 -12.546814c-18.098206 -15.2560425 -26.601715 -42.25168 -20.87027 -63.482025c5.266205 -19.49028 34.40915 -21.172363 45.232788 -21.230362c0.16918945 -0.0012207031 0.3335266 -0.0012207031 0.49423218 -0.0012207031zm-162.45473 -10.068375c-29.32785 0 -58.174744 1.009018 -84.74019 5.058365l0.88212585 19.97725c7.644333 2.7962341 9.964462 8.004425 11.0097275 14.292938c4.825142 29.002777 11.577675 53.66742 24.15348 63.805878c8.504715 6.860077 19.092697 12.877899 38.210785 12.877899c0.96188354 0 1.9443054 -0.015686035 2.9496918 -0.045898438c22.379547 -0.68518066 46.1391 -6.833496 57.79773 -20.291443c10.244812 -11.821777 20.917389 -30.000916 24.78064 -49.873047c1.4621582 -7.483612 6.763397 -10.800659 12.784851 -10.800659c6.020233 0 11.322693 3.317047 12.784851 10.800659c3.8632507 19.872131 14.535858 38.05127 24.77945 49.873047c11.659821 13.457947 35.419373 19.606262 57.79773 20.291443c1.0053711 0.030212402 1.9890137 0.045898438 2.9508972 0.045898438c19.118073 0 29.704865 -6.0178223 38.210785 -12.877899c12.575806 -10.138458 19.327118 -34.8031 24.153473 -63.805878c1.0440674 -6.288513 3.3641968 -11.496704 10.99765 -14.292938l0.89419556 -19.97725c-26.56543 -4.049347 -55.412323 -5.058365 -84.741394 -5.058365c-0.16796875 0 -0.3371277 0 -0.50509644 0c-10.464752 0 -45.546967 4.2922363 -59.467743 11.995773c-5.8015137 3.2252197 -11.450775 4.4662476 -16.845062 4.6982574c-3.6662903 0.16313171 -7.338623 0.24409485 -11.009735 0.24409485c-3.6723328 0 -7.343445 -0.080963135 -11.009705 -0.24409485c-5.3943176 -0.23200989 -11.044769 -1.4730377 -16.845093 -4.6982574c-13.921967 -7.703537 -49.00421 -11.995773 -59.467728 -11.995773c-0.1691742 0 -0.33714294 0 -0.50631714 0z" fill-rule="evenodd"/><path fill="#2b67ff" fill-opacity="0.7151" d="m138.24606 165.59578l0 3.597412l-15.173859 0l0 -3.597412zm312.5391 0l0 3.597412l-15.185944 0l0 -3.597412zm-259.99548 -4.698242c4.723633 0 9.487137 0.07733154 14.117722 0.07733154c1.5165405 0 3.0197906 -0.008453369 4.5012817 -0.030212402c0.58125305 -0.0096588135 1.5322571 -0.029006958 2.7744904 -0.029006958c10.279846 0 40.484985 1.338913 45.84665 21.21225c5.7314453 21.230347 -2.7732697 48.225983 -20.870255 63.482025c-7.25885 6.1229553 -26.778122 12.546814 -45.749985 12.546814c-13.990845 0 -27.684418 -3.4934845 -35.946243 -13.17276c-13.329849 -15.61615 -16.161118 -29.79187 -17.576157 -49.445282c-0.90509033 -12.459793 2.3080444 -25.151611 22.645401 -31.612915c8.074509 -2.5751038 18.666138 -3.0161743 29.52481 -3.028244c0.24409485 0 0.4881897 0 0.73228455 0zm170.7649 -0.0012207031c1.3002319 0 2.2947388 0.037460327 2.8941345 0.048339844c1.4814758 0.021759033 2.9835205 0.030212402 4.500061 0.030212402c4.6318054 0 9.395294 -0.07733154 14.117737 -0.07733154c0.24407959 0 0.4881897 0 0.7322693 0c10.858673 0.012069702 21.451508 0.45314026 29.526031 3.028244c20.336151 6.4613037 23.538391 19.153122 22.645386 31.612915c-1.427124 19.653412 -4.2463074 33.829132 -17.576141 49.445282c-8.261841 9.6792755 -21.955414 13.17276 -35.94626 13.17276c-18.973083 0 -38.49112 -6.4238586 -45.74997 -12.546814c-18.098206 -15.2560425 -26.601715 -42.25168 -20.87027 -63.482025c5.266205 -19.49028 34.40915 -21.172363 45.232788 -21.230362c0.16918945 -0.0012207031 0.3335266 -0.0012207031 0.49423218 -0.0012207031zm-162.45473 -10.068375c-29.32785 0 -58.174744 1.009018 -84.74019 5.058365l0.88212585 19.97725c7.644333 2.7962341 9.964462 8.004425 11.0097275 14.292938c4.825142 29.002777 11.577675 53.66742 24.15348 63.805878c8.504715 6.860077 19.092697 12.877899 38.210785 12.877899c0.96188354 0 1.9443054 -0.015686035 2.9496918 -0.045898438c22.379547 -0.68518066 46.1391 -6.833496 57.79773 -20.291443c10.244812 -11.821762 20.917389 -30.000916 24.78064 -49.873047c1.4621582 -7.483612 6.763397 -10.800659 12.784851 -10.800659c6.020233 0 11.322693 3.317047 12.784851 10.800659c3.8632507 19.872131 14.535858 38.051285 24.77945 49.873047c11.659821 13.457947 35.419373 19.606262 57.79773 20.291443c1.0053711 0.030212402 1.9890137 0.045898438 2.9508972 0.045898438c19.118073 0 29.704865 -6.0178223 38.210785 -12.877899c12.575806 -10.138458 19.327118 -34.8031 24.153473 -63.805878c1.0440674 -6.288513 3.3641968 -11.496704 10.99765 -14.292938l0.89419556 -19.97725c-26.56543 -4.049347 -55.412323 -5.058365 -84.741394 -5.058365c-0.16796875 0 -0.3371277 0 -0.50509644 0c-10.464752 0 -45.546967 4.2922363 -59.467743 11.995773c-5.8015137 3.2252197 -11.450775 4.4662476 -16.845062 4.6982574c-3.6662903 0.16313171 -7.338623 0.24409485 -11.009735 0.24409485c-3.6723328 0 -7.343445 -0.080963135 -11.009705 -0.24409485c-5.3943176 -0.23200989 -11.044769 -1.4730377 -16.845093 -4.6982574c-13.921967 -7.703537 -49.00421 -11.995773 -59.467728 -11.995773c-0.1691742 0 -0.33714294 0 -0.50631714 0z" fill-rule="evenodd"/><path stroke="#2b67ff" stroke-width="1.0" stroke-linejoin="round" stroke-linecap="butt" d="m138.24606 165.59578l0 3.597412l-15.173859 0l0 -3.597412zm312.5391 0l0 3.597412l-15.185944 0l0 -3.597412zm-259.99548 -4.698242c4.723633 0 9.487137 0.07733154 14.117722 0.07733154c1.5165405 0 3.0197906 -0.008453369 4.5012817 -0.030212402c0.58125305 -0.0096588135 1.5322571 -0.029006958 2.7744904 -0.029006958c10.279846 0 40.484985 1.338913 45.84665 21.21225c5.7314453 21.230347 -2.7732697 48.225983 -20.870255 63.482025c-7.25885 6.1229553 -26.778122 12.546814 -45.749985 12.546814c-13.990845 0 -27.684418 -3.4934845 -35.946243 -13.17276c-13.329849 -15.61615 -16.161118 -29.79187 -17.576157 -49.445282c-0.90509033 -12.459793 2.3080444 -25.151611 22.645401 -31.612915c8.074509 -2.5751038 18.666138 -3.0161743 29.52481 -3.028244c0.24409485 0 0.4881897 0 0.73228455 0zm170.7649 -0.0012207031c1.3002319 0 2.2947388 0.037460327 2.8941345 0.048339844c1.4814758 0.021759033 2.9835205 0.030212402 4.500061 0.030212402c4.6318054 0 9.395294 -0.07733154 14.117737 -0.07733154c0.24407959 0 0.4881897 0 0.7322693 0c10.858673 0.012069702 21.451508 0.45314026 29.526031 3.028244c20.336151 6.4613037 23.538391 19.153122 22.645386 31.612915c-1.427124 19.653412 -4.2463074 33.829132 -17.576141 49.445282c-8.261841 9.6792755 -21.955414 13.17276 -35.94626 13.17276c-18.973083 0 -38.49112 -6.4238586 -45.74997 -12.546814c-18.098206 -15.2560425 -26.601715 -42.25168 -20.87027 -63.482025c5.266205 -19.49028 34.40915 -21.172363 45.232788 -21.230362c0.16918945 -0.0012207031 0.3335266 -0.0012207031 0.49423218 -0.0012207031zm-162.45473 -10.068375c-29.32785 0 -58.174744 1.009018 -84.74019 5.058365l0.88212585 19.97725c7.644333 2.7962341 9.964462 8.004425 11.0097275 14.292938c4.825142 29.002777 11.577675 53.66742 24.15348 63.805878c8.504715 6.860077 19.092697 12.877899 38.210785 12.877899c0.96188354 0 1.9443054 -0.015686035 2.9496918 -0.045898438c22.379547 -0.68518066 46.1391 -6.833496 57.79773 -20.291443c10.244812 -11.821762 20.917389 -30.000916 24.78064 -49.873047c1.4621582 -7.483612 6.763397 -10.800659 12.784851 -10.800659c6.020233 0 11.322693 3.317047 12.784851 10.800659c3.8632507 19.872131 14.535858 38.051285 24.77945 49.873047c11.659821 13.457947 35.419373 19.606262 57.79773 20.291443c1.0053711 0.030212402 1.9890137 0.045898438 2.9508972 0.045898438c19.118073 0 29.704865 -6.0178223 38.210785 -12.877899c12.575806 -10.138458 19.327118 -34.8031 24.153473 -63.805878c1.0440674 -6.288513 3.3641968 -11.496704 10.99765 -14.292938l0.89419556 -19.97725c-26.56543 -4.049347 -55.412323 -5.058365 -84.741394 -5.058365c-0.16796875 0 -0.3371277 0 -0.50509644 0c-10.464752 0 -45.546967 4.2922363 -59.467743 11.995773c-5.8015137 3.2252197 -11.450775 4.4662476 -16.845062 4.6982574c-3.6662903 0.16313171 -7.338623 0.24409485 -11.009735 0.24409485c-3.6723328 0 -7.343445 -0.080963135 -11.009705 -0.24409485c-5.3943176 -0.23200989 -11.044769 -1.4730377 -16.845093 -4.6982574c-13.921967 -7.703537 -49.00421 -11.995773 -59.467728 -11.995773c-0.1691742 0 -0.33714294 0 -0.50631714 0z" fill-rule="evenodd"/><path fill="#2b67ff" fill-opacity="0.7151" d="m162.24606 205.59578l0 3.597412l-15.173859 0l0 -3.597412zm312.5391 0l0 3.597412l-15.185944 0l0 -3.597412zm-259.99548 -4.698242c4.723633 0 9.487137 0.07733154 14.117722 0.07733154c1.5165405 0 3.0197906 -0.008453369 4.5012817 -0.030212402c0.58125305 -0.0096588135 1.5322571 -0.029006958 2.7744904 -0.029006958c10.279846 0 40.484985 1.338913 45.84665 21.21225c5.7314453 21.230347 -2.7732544 48.225983 -20.87024 63.482025c-7.2588654 6.1229553 -26.778137 12.546814 -45.75 12.546814c-13.990845 0 -27.684418 -3.4934998 -35.946243 -13.17276c-13.329849 -15.61615 -16.161118 -29.79187 -17.576157 -49.445282c-0.90509033 -12.459793 2.3080444 -25.151611 22.645401 -31.612915c8.074509 -2.5751038 18.666138 -3.0161743 29.52481 -3.028244c0.24409485 0 0.4881897 0 0.73228455 0zm170.7649 -0.0012207031c1.3002319 0 2.2947388 0.037460327 2.8941345 0.048339844c1.4814758 0.021759033 2.9835205 0.030212402 4.500061 0.030212402c4.6318054 0 9.395294 -0.07733154 14.117737 -0.07733154c0.24407959 0 0.4881897 0 0.7322693 0c10.858673 0.012069702 21.451508 0.45314026 29.526031 3.028244c20.336151 6.4613037 23.538391 19.153122 22.645386 31.612915c-1.427124 19.653412 -4.2463074 33.829132 -17.576141 49.445282c-8.261841 9.67926 -21.955414 13.17276 -35.94626 13.17276c-18.973083 0 -38.49112 -6.4238586 -45.74997 -12.546814c-18.098206 -15.2560425 -26.601715 -42.25168 -20.87027 -63.482025c5.266205 -19.49028 34.40915 -21.172363 45.232788 -21.230362c0.16918945 -0.0012207031 0.3335266 -0.0012207031 0.49423218 -0.0012207031zm-162.45473 -10.068375c-29.32785 0 -58.174744 1.009018 -84.74019 5.058365l0.88212585 19.97725c7.644333 2.7962341 9.964462 8.004425 11.00972 14.292938c4.8251495 29.002777 11.5776825 53.66742 24.153488 63.805878c8.504715 6.860077 19.092697 12.877899 38.210785 12.877899c0.96188354 0 1.9443054 -0.015686035 2.9496918 -0.045898438c22.379547 -0.68518066 46.1391 -6.833496 57.79773 -20.291443c10.244812 -11.821777 20.917389 -30.000916 24.78064 -49.873047c1.4621582 -7.483612 6.763397 -10.800659 12.784851 -10.800659c6.020233 0 11.322693 3.317047 12.784851 10.800659c3.8632507 19.872131 14.535858 38.05127 24.77945 49.873047c11.659821 13.457947 35.419373 19.606262 57.79773 20.291443c1.0053711 0.030212402 1.9890137 0.045898438 2.9508972 0.045898438c19.118073 0 29.704865 -6.0178223 38.210785 -12.877899c12.575806 -10.138458 19.327118 -34.8031 24.153473 -63.805878c1.0440674 -6.288513 3.3641968 -11.496704 10.99765 -14.292938l0.89419556 -19.97725c-26.56543 -4.049347 -55.412323 -5.058365 -84.741394 -5.058365c-0.16796875 0 -0.3371277 0 -0.50509644 0c-10.464752 0 -45.546967 4.2922363 -59.467743 11.995773c-5.8015137 3.2252197 -11.450775 4.4662476 -16.845062 4.6982574c-3.6662903 0.16313171 -7.338623 0.24409485 -11.009735 0.24409485c-3.6723328 0 -7.343445 -0.080963135 -11.009705 -0.24409485c-5.3943176 -0.23200989 -11.044769 -1.4730377 -16.845093 -4.6982574c-13.921967 -7.703537 -49.00421 -11.995773 -59.467728 -11.995773c-0.1691742 0 -0.33714294 0 -0.50631714 0z" fill-rule="evenodd"/><path stroke="#2b67ff" stroke-width="1.0" stroke-linejoin="round" stroke-linecap="butt" d="m162.24606 205.59578l0 3.597412l-15.173859 0l0 -3.597412zm312.5391 0l0 3.597412l-15.185944 0l0 -3.597412zm-259.99548 -4.698242c4.723633 0 9.487137 0.07733154 14.117722 0.07733154c1.5165405 0 3.0197906 -0.008453369 4.5012817 -0.030212402c0.58125305 -0.0096588135 1.5322571 -0.029006958 2.7744904 -0.029006958c10.279846 0 40.484985 1.338913 45.84665 21.21225c5.7314453 21.230347 -2.7732544 48.225983 -20.87024 63.482025c-7.2588654 6.1229553 -26.778137 12.546814 -45.75 12.546814c-13.990845 0 -27.684418 -3.4934998 -35.946243 -13.17276c-13.329849 -15.61615 -16.161118 -29.79187 -17.576157 -49.445282c-0.90509033 -12.459793 2.3080444 -25.151611 22.645401 -31.612915c8.074509 -2.5751038 18.666138 -3.0161743 29.52481 -3.028244c0.24409485 0 0.4881897 0 0.73228455 0zm170.7649 -0.0012207031c1.3002319 0 2.2947388 0.037460327 2.8941345 0.048339844c1.4814758 0.021759033 2.9835205 0.030212402 4.500061 0.030212402c4.6318054 0 9.395294 -0.07733154 14.117737 -0.07733154c0.24407959 0 0.4881897 0 0.7322693 0c10.858673 0.012069702 21.451508 0.45314026 29.526031 3.028244c20.336151 6.4613037 23.538391 19.153122 22.645386 31.612915c-1.427124 19.653412 -4.2463074 33.829132 -17.576141 49.445282c-8.261841 9.67926 -21.955414 13.17276 -35.94626 13.17276c-18.973083 0 -38.49112 -6.4238586 -45.74997 -12.546814c-18.098206 -15.2560425 -26.601715 -42.25168 -20.87027 -63.482025c5.266205 -19.49028 34.40915 -21.172363 45.232788 -21.230362c0.16918945 -0.0012207031 0.3335266 -0.0012207031 0.49423218 -0.0012207031zm-162.45473 -10.068375c-29.32785 0 -58.174744 1.009018 -84.74019 5.058365l0.88212585 19.97725c7.644333 2.7962341 9.964462 8.004425 11.00972 14.292938c4.8251495 29.002777 11.5776825 53.66742 24.153488 63.805878c8.504715 6.860077 19.092697 12.877899 38.210785 12.877899c0.96188354 0 1.9443054 -0.015686035 2.9496918 -0.045898438c22.379547 -0.68518066 46.1391 -6.833496 57.79773 -20.291443c10.244812 -11.821777 20.917389 -30.000916 24.78064 -49.873047c1.4621582 -7.483612 6.763397 -10.800659 12.784851 -10.800659c6.020233 0 11.322693 3.317047 12.784851 10.800659c3.8632507 19.872131 14.535858 38.05127 24.77945 49.873047c11.659821 13.457947 35.419373 19.606262 57.79773 20.291443c1.0053711 0.030212402 1.9890137 0.045898438 2.9508972 0.045898438c19.118073 0 29.704865 -6.0178223 38.210785 -12.877899c12.575806 -10.138458 19.327118 -34.8031 24.153473 -63.805878c1.0440674 -6.288513 3.3641968 -11.496704 10.99765 -14.292938l0.89419556 -19.97725c-26.56543 -4.049347 -55.412323 -5.058365 -84.741394 -5.058365c-0.16796875 0 -0.3371277 0 -0.50509644 0c-10.464752 0 -45.546967 4.2922363 -59.467743 11.995773c-5.8015137 3.2252197 -11.450775 4.4662476 -16.845062 4.6982574c-3.6662903 0.16313171 -7.338623 0.24409485 -11.009735 0.24409485c-3.6723328 0 -7.343445 -0.080963135 -11.009705 -0.24409485c-5.3943176 -0.23200989 -11.044769 -1.4730377 -16.845093 -4.6982574c-13.921967 -7.703537 -49.00421 -11.995773 -59.467728 -11.995773c-0.1691742 0 -0.33714294 0 -0.50631714 0z" fill-rule="evenodd"/><path fill="#000000" d="m130.24606 181.59578l0 3.597412l-15.173859 0l0 -3.597412zm312.5391 0l0 3.597412l-15.185944 0l0 -3.597412zm-259.99548 -4.698242c4.723633 0 9.487137 0.07733154 14.117722 0.07733154c1.5165405 0 3.0197906 -0.008453369 4.5012817 -0.030212402c0.58125305 -0.0096588135 1.5322571 -0.029006958 2.7744904 -0.029006958c10.279846 0 40.484985 1.338913 45.846664 21.21225c5.73143 21.230347 -2.773285 48.225983 -20.87027 63.482025c-7.25885 6.1229553 -26.778122 12.546814 -45.749985 12.546814c-13.990845 0 -27.684418 -3.4934998 -35.946243 -13.17276c-13.329849 -15.61615 -16.161118 -29.79187 -17.576157 -49.445282c-0.90509033 -12.459793 2.3080444 -25.151611 22.645401 -31.612915c8.074509 -2.5751038 18.666138 -3.0161743 29.52481 -3.028244c0.24409485 0 0.4881897 0 0.73228455 0zm170.7649 -0.0012207031c1.3002319 0 2.2947388 0.037460327 2.8941345 0.048339844c1.4814758 0.021759033 2.9835205 0.030212402 4.500061 0.030212402c4.6318054 0 9.395294 -0.07733154 14.117737 -0.07733154c0.24407959 0 0.4881897 0 0.7322693 0c10.858673 0.012069702 21.451508 0.45314026 29.526031 3.028244c20.336151 6.4613037 23.538391 19.153122 22.645386 31.612915c-1.427124 19.653412 -4.2463074 33.829132 -17.576141 49.445282c-8.261841 9.67926 -21.955414 13.17276 -35.94626 13.17276c-18.973083 0 -38.49112 -6.4238586 -45.74997 -12.546814c-18.098206 -15.2560425 -26.601715 -42.25168 -20.87027 -63.482025c5.266205 -19.49028 34.40915 -21.172363 45.232788 -21.230362c0.16918945 -0.0012207031 0.3335266 -0.0012207031 0.49423218 -0.0012207031zm-162.45473 -10.068375c-29.32785 0 -58.174744 1.009018 -84.74019 5.058365l0.88212585 19.97725c7.644333 2.7962341 9.964462 8.004425 11.0097275 14.292938c4.8251343 29.002777 11.577675 53.66742 24.15348 63.805878c8.504715 6.860077 19.092697 12.877899 38.210785 12.877899c0.96188354 0 1.9443054 -0.015686035 2.9496918 -0.045898438c22.379547 -0.68518066 46.1391 -6.833496 57.79773 -20.291443c10.244797 -11.821762 20.917389 -30.000916 24.78064 -49.873047c1.4621582 -7.483612 6.763397 -10.800659 12.784851 -10.800659c6.020233 0 11.322693 3.317047 12.784851 10.800659c3.8632507 19.872131 14.535858 38.051285 24.77945 49.873047c11.659821 13.457947 35.419373 19.606262 57.79773 20.291443c1.0053711 0.030212402 1.9890137 0.045898438 2.9508972 0.045898438c19.118073 0 29.704865 -6.0178223 38.210785 -12.877899c12.575806 -10.138458 19.327118 -34.8031 24.153473 -63.805878c1.0440674 -6.288513 3.3641968 -11.496704 10.99765 -14.292938l0.89419556 -19.97725c-26.56543 -4.049347 -55.412323 -5.058365 -84.741394 -5.058365c-0.16796875 0 -0.3371277 0 -0.50509644 0c-10.464752 0 -45.546967 4.2922363 -59.467743 11.995773c-5.8015137 3.2252197 -11.450775 4.4662476 -16.845062 4.6982574c-3.6662903 0.16313171 -7.338623 0.24409485 -11.009735 0.24409485c-3.6723328 0 -7.343445 -0.080963135 -11.009705 -0.24409485c-5.3943176 -0.23200989 -11.044769 -1.4730377 -16.845093 -4.6982574c-13.921967 -7.703537 -49.00421 -11.995773 -59.467728 -11.995773c-0.1691742 0 -0.33714294 0 -0.50631714 0z" fill-rule="evenodd"/></g></svg>