<svg version="1.1" viewBox="0.0 0.0 557.8582677165355 557.8582677165355" fill="none" stroke="none" stroke-linecap="square" stroke-miterlimit="10" xmlns:xlink="http://www.w3.org/1999/xlink" xmlns="http://www.w3.org/2000/svg"><clipPath id="p.0"><path d="m0 0l557.8583 0l0 557.8583l-557.8583 0l0 -557.8583z" clip-rule="nonzero"/></clipPath><g clip-path="url(#p.0)"><path fill="#000000" fill-opacity="0.0" d="m0 0l557.8583 0l0 557.8583l-557.8583 0z" fill-rule="evenodd"/><path fill="#2b67ff" fill-opacity="0.7151" d="m214.1376 150.02362l248.34647 25.70079l-18.48819 178.48817l-248.34645 -25.700775z" fill-rule="evenodd"/><path stroke="#2b67ff" stroke-width="8.0" stroke-linejoin="round" stroke-linecap="butt" d="m214.1376 150.02362l248.34647 25.70079l-18.48819 178.48817l-248.34645 -25.700775z" fill-rule="evenodd"/><path fill="#2b67ff" d="m272.32306 207.94768q2.2225647 -0.22554016 2.6952515 -0.23945618q0.48983765 -0.02784729 0.8366089 -0.03907776q0.34835815 -0.026794434 0.58148193 -0.0026550293q0.24868774 0.025726318 0.5782776 0.028427124q0.34677124 -0.011245728 0.96255493 -0.041763306q0.6157837 -0.030532837 1.2208862 -0.10928345q0.26965332 -0.6318512 0.65145874 -2.1946106q0.39892578 -1.5766754 0.7303772 -3.4116821q0.33306885 -1.8505402 0.60128784 -3.8334656q0.2854004 -1.9968567 0.5348511 -3.9503021q0.2494812 -1.9534454 0.5359192 -3.8088226q0.2880249 -1.8709106 1.5626526 -3.1056366q-0.17590332 0.94000244 -0.31201172 0.73742676q-0.118927 -0.21652222 -0.15435791 0.12539673q-0.76156616 -0.078811646 -1.5928345 0.2121582q-0.8296814 0.2754364 -1.7670898 0.6810913q-0.935791 0.39012146 -2.0114746 0.7657623q-1.0740662 0.36010742 -3.203308 0.13975525l-0.019348145 -3.7563171q1.0213928 0.90682983 1.4588013 0.323761q0.4545288 -0.5970154 1.361908 -0.86439514q0.9229431 -0.26579285 2.0730896 -0.6023102q1.150177 -0.33651733 2.2783508 -0.61247253q1.1298218 -0.2915039 2.1443787 -0.53208923q1.0300903 -0.23898315 3.0286255 -0.42486572l-2.511383 24.24527q-0.111450195 -0.13719177 0.4727173 -0.013916016q0.60131836 0.10935974 1.4765015 0.15280151q0.89071655 0.045059204 1.8591309 0.09814453q0.9839783 0.054718018 2.533844 0.5606842l-0.4763794 3.6893158q-2.8286438 -0.2927246 -4.6819153 -0.2960205q-1.8532715 -0.0032958984 -3.7253113 0.022888184q-1.8548889 0.012252808 -3.7547913 0.0041503906q-1.8843689 -0.006515503 -3.7493896 -0.19952393q-1.2900085 -0.13349915 -1.4158325 -1.0419006q-0.12582397 -0.9084015 -0.80352783 -2.7064667zm18.77597 -11.566177l5.722168 0.26229858l0.55862427 -5.3930206q1.8779602 -0.38687134 2.7445374 -0.108688354q0.8681946 0.26263428 1.3150635 0.95292664q0.4640503 0.6763611 0.52182007 1.4834747q0.07333374 0.8087158 0.009979248 1.5718842q-0.046203613 0.7492218 -0.22903442 1.4528809q-0.16729736 0.7052765 -0.79486084 0.54608154l5.989105 -0.03994751l-0.3428955 3.3104095q-2.47818 -0.0365448 -3.6009827 0.0357666q-1.1072388 0.073913574 -1.7756042 0.46028137q-0.65283203 0.38798523 -1.0307922 1.3070831q-0.36242676 0.92071533 -0.47857666 3.8618774q0 0 -0.93896484 -0.034332275q-0.92178345 -0.04826355 -1.4223633 -0.06864929q-0.48339844 -0.034317017 -1.3912659 -0.06544495q-0.8907471 -0.045043945 -0.8907471 -0.045043945q0.13052368 -2.1699677 0.44735718 -2.9540253q0.316864 -0.78404236 0.53933716 -1.2637024q0.22409058 -0.49517822 0.22409058 -0.49517822q0.0016174316 -0.015548706 -0.08682251 -0.07182312q-0.088409424 -0.056274414 -1.0423584 -0.24925232q-0.9367981 -0.20689392 -3.718811 -0.49479675l-0.32800293 -3.9610596zm14.095337 14.967957q2.2225647 -0.22554016 2.695282 -0.23945618q0.48983765 -0.02784729 0.83657837 -0.039093018q0.34838867 -0.026779175 0.58151245 -0.0026550293q0.24865723 0.025741577 0.5782776 0.028427124q0.34674072 -0.011230469 0.9625244 -0.041763306q0.6158142 -0.030517578 1.2208862 -0.10928345q0.26968384 -0.63183594 0.65145874 -2.1945953q0.3989563 -1.5766754 0.7304077 -3.4116821q0.33306885 -1.8505554 0.60128784 -3.8334656q0.28536987 -1.9968567 0.5348511 -3.9503021q0.24945068 -1.9534607 0.5358887 -3.8088226q0.28805542 -1.8709106 1.5626831 -3.1056366q-0.17590332 0.94000244 -0.31201172 0.7374115q-0.11895752 -0.21650696 -0.15438843 0.12541199q-0.76153564 -0.078811646 -1.5928345 0.2121582q-0.8296509 0.2754364 -1.7670593 0.6810913q-0.935791 0.39012146 -2.0114746 0.7657623q-1.0740662 0.36010742 -3.2033386 0.13975525l-0.019317627 -3.7563171q1.0213623 0.90682983 1.4587708 0.32374573q0.45455933 -0.5970001 1.3619385 -0.86439514q0.9229126 -0.2657776 2.0730896 -0.6022949q1.150177 -0.33651733 2.2783508 -0.61247253q1.1297913 -0.2915039 2.1443481 -0.53208923q1.0301208 -0.23898315 3.028656 -0.42488098l-2.511383 24.245285q-0.111450195 -0.13720703 0.47268677 -0.013916016q0.60131836 0.10935974 1.4765015 0.15280151q0.89071655 0.045059204 1.8591614 0.09814453q0.9839783 0.05470276 2.533844 0.5606842l-0.4764099 3.6893158q-2.8286438 -0.29273987 -4.6819153 -0.2960205q-1.8532715 -0.0032958984 -3.7253113 0.022888184q-1.8548889 0.012252808 -3.7547913 0.004135132q-1.8843384 -0.006500244 -3.7493896 -0.19950867q-1.289978 -0.13349915 -1.415802 -1.0419006q-0.12582397 -0.9084015 -0.80355835 -2.7064667zm21.185822 -1.4676056q0.38012695 -1.0916595 1.5291748 -1.1141205q1.1662292 -0.03640747 2.517334 -0.03794861q1.3666382 4.5776367E-5 2.8651123 0.092285156q1.500061 0.07670593 2.776123 0.1930542q1.2776489 0.10079956 2.3838196 0.34094238q1.1216736 0.241745 1.632843 1.2214355l-0.24630737 2.3779144q0 0 -1.1860352 -0.07562256q-1.1844177 -0.091156006 -2.3066406 -0.1758728q-1.120636 -0.1002655 -2.5553284 -0.20161438q-1.4191589 -0.099731445 -2.791687 -0.19465637q-1.3569946 -0.093307495 -2.5821228 -0.09442139q-1.2235718 -0.016662598 -2.0724792 -0.010269165q-1.1034851 -0.11419678 -1.0310364 -0.8135834q0.074035645 -0.71492004 0.0949707 -0.91696167q0.020935059 -0.20204163 0.49417114 -0.37298584q0.4732666 -0.17094421 0.47808838 -0.21757507zm-0.5823059 -5.9037933q2.0601501 -0.02243042 3.6058044 -0.08239746q1.5456543 -0.059951782 3.1765137 -0.032562256q1.6463928 0.029006958 3.3034973 0.10624695q1.6726379 0.07884216 4.237091 0.34423828l-0.39440918 3.8077545l-14.268188 -0.86395264l0.33969116 -3.2793274zm22.656189 12.696503q-1.0526428 0.45655823 -2.2344055 0.49134827q-1.1661987 0.036392212 -2.533905 -0.10513306q-0.5750427 -0.059524536 -1.3130188 -0.21443176q-0.7207947 -0.1688385 -1.4003296 -0.5847473q-0.6795044 -0.4159088 -1.1387024 -1.1389008q-0.459198 -0.7229767 -0.34170532 -1.857544q0.13201904 -1.2744293 1.4960022 -1.4003143q1.3656006 -0.14143372 2.7901306 -0.24534607q1.42453 -0.10391235 2.9975586 -0.42808533q1.588562 -0.32255554 2.9520874 -1.2024994q1.3790894 -0.8783264 2.4190369 -2.577179q1.041565 -1.7144012 1.3474426 -4.667343q0.13198853 -1.2744293 0.054473877 -2.6490936q-0.077545166 -1.3746643 -0.48257446 -2.46904q-0.40499878 -1.0943756 -1.2093506 -1.8216705q-0.8027344 -0.74282837 -2.201538 -0.88757324q-0.43518066 -0.045043945 -0.8478699 0.14787292q-0.4126892 0.19291687 -0.8554077 0.5241089q-0.42718506 0.3327942 -0.90478516 0.84887695q-0.4776001 0.5160675 -1.1089783 1.000534q-0.61587524 0.48605347 -1.4176636 0.7957916q-0.7862854 0.31134033 -2.8688965 0.09580994q0.2591858 -2.5022278 1.0766602 -3.7214355q0.81744385 -1.2192078 2.0019836 -2.0391235q1.2000732 -0.8183136 2.606964 -1.2068024q1.4068909 -0.38850403 2.805664 -0.2437439q2.144806 0.22195435 3.7449646 1.4557343q1.6156921 1.2353821 2.5999756 2.9552155q1.0014343 1.7058868 1.4111633 3.6647186q0.40975952 1.9588318 0.2197876 3.7927704q-0.18353271 1.7717743 -0.8579712 3.4299164q-0.6727905 1.6425934 -1.6435852 3.1286774q-0.96917725 1.4705505 -2.1103516 2.7819214q-1.1395874 1.2958221 -1.5747986 1.7063293q0.11306763 0.121658325 1.3081055 0.71658325q1.2106323 0.59654236 2.5648804 1.0194397q1.3558655 0.4073639 2.7122803 0.6576843q1.3719788 0.25195312 2.9572754 0.41600037q0.49993896 0.6329498 0.509552 0.99523926q0.025115967 0.36390686 0.012237549 0.48823547q-0.10140991 0.97914124 -0.7933655 1.4416199q-0.69033813 0.44692993 -1.3779602 0.56427q-0.6876221 0.11734009 -1.326477 0.06694031q-0.6248779 -0.0332489 -1.0134277 -0.07347107q-1.3677063 -0.14152527 -2.5386963 -0.51405334q-1.1709595 -0.37251282 -2.2947693 -0.89723206q-1.1221619 -0.5402527 -2.2518616 -1.1598358q-1.1296692 -0.61958313 -1.9458313 -1.0810394zm-3.3374634 -2.811615q0.6109009 0.4716339 0.3423767 0.7894287q-0.2514038 0.30386353 -0.4845276 0.27973938q-0.21759033 -0.022521973 -0.4324646 -0.3746338q-0.21325684 -0.36764526 0.49691772 -0.7025757q-0.2518921 0.005340576 -0.15060425 -0.06271362q0.11685181 -0.06645203 0.21011353 -0.056793213q0.108795166 0.011260986 0.16452026 0.07984924q0.055725098 0.068603516 -0.14633179 0.047698975z" fill-rule="nonzero"/><path fill="#2b67ff" d="m331.2811 244.46066q2.253601 0.23321533 3.624878 1.5532684q1.3713074 1.3200378 2.2087097 3.2445984q0.8529663 1.9261475 1.2862244 4.2644196q0.44882202 2.3398895 0.6141052 4.838928q0.18240356 2.4851074 0.15795898 4.9959106q-0.008911133 2.5124512 -0.1394043 4.6824036q-0.13052368 2.169983 -0.2952881 3.912262q-0.14923096 1.7438965 -0.3536682 3.7177124l-2.9529724 -0.3055725l-0.77734375 -10.542297q0.29797363 0.15652466 -0.3269348 0.1232605q-0.62490845 -0.033233643 -1.6914062 -0.04937744q-1.0509949 -0.01449585 -2.358673 0.022949219q-1.3060913 0.021942139 -2.4953308 -0.022583008q-1.1876221 -0.06008911 -2.2895203 -0.18981934q-1.0847168 -0.14367676 -0.8487854 -0.9046936l-0.3400879 10.410919l-4.3673096 -0.45196533q0.12075806 -1.1656189 0.17654419 -1.5525513q0.07293701 -0.4008789 0.118011475 -0.8360596q0.045074463 -0.43515015 0.13034058 -0.8033447q0.08526611 -0.36816406 0.09814453 -0.4925232q0.56307983 -2.7063904 1.0050659 -5.4567566q0.45910645 -2.7643127 0.96432495 -5.3667603q0.5068054 -2.617981 1.1636353 -5.0162354q0.6739807 -2.4121857 1.6791382 -4.3816833q1.0067444 -1.9850311 2.4094849 -3.3950043q1.4182739 -1.4083557 3.6001587 -1.9994049zm0.20898438 4.2000732q-0.481781 -0.049850464 -1.1539307 0.5246277q-0.67214966 0.5744934 -1.2671814 1.7695923q-0.5779114 1.1811523 -1.0079346 2.7546234q-0.4300232 1.5734711 -0.68588257 3.1335602q-0.25582886 1.5600586 -0.42858887 2.92453q-0.15722656 1.3660583 -0.40426636 1.3247986q1.4866943 -0.097473145 3.853424 -0.19815063q2.3822327 -0.09902954 4.365692 0.46749878q-0.70529175 -0.16723633 -0.65270996 -0.5230713q0.06970215 -0.3697815 0.1383667 -0.881073q0.084228516 -0.5096741 0.14645386 -0.95877075q0.07937622 -0.4630432 0.09063721 -0.5718384q0.1529541 -1.476471 0.13275146 -2.7980652q-0.018585205 -1.337143 -0.3453369 -2.5805054q-0.30960083 -1.2572937 -1.0115356 -2.3666992q-0.7003174 -1.124939 -1.7699585 -2.0210571zm10.631561 15.347809q0.07595825 0.93466187 -0.5065918 0.7958374q-0.5809326 -0.15438843 -0.99838257 -0.37039185q-0.4003296 -0.22991943 -0.7920227 -0.6945801q-0.3761902 -0.46307373 -0.30374146 -1.1624451q0.19802856 -1.9116516 1.4747925 -3.3189392q1.2939453 -1.4212341 2.9715576 -2.3000793q1.6931458 -0.8772583 3.5245056 -1.2689362q1.8329468 -0.40724182 3.3405151 -0.2512207q2.3468628 0.24285889 4.190338 1.250473q1.8606567 0.99368286 3.0834656 2.5339966q1.2383423 1.5419312 1.7911682 3.4841309q0.55285645 1.9422302 0.3371277 4.0248413q-0.23187256 2.693573 -1.7209778 4.7857666q-1.4875183 2.0766602 -3.636261 3.4094238q-2.1487427 1.3327637 -4.669342 1.8573608q-2.5205994 0.52456665 -3.7526855 0.28710938q-0.030090332 0.5937805 -0.39855957 2.786255q-0.36846924 2.1924744 -0.86883545 4.748291q-0.5003662 2.5558167 -1.1556702 5.3940735q-0.63974 2.8398438 -1.5517578 5.730072q0.13009644 1.0187988 -0.7091675 0.9319458q-0.82373047 -0.085235596 -1.1715393 -0.21548462q-0.34939575 -0.11468506 -0.48440552 -0.63134766q-0.121032715 -0.4994812 -1.6750488 1.9158936q1.2233276 -6.5023804 1.8187256 -10.430695q0.59381104 -3.9127808 0.95770264 -7.8807983q0.36227417 -3.9524536 0.3885193 -7.8454285q0.04336548 -3.9069214 0.51657104 -7.5651245zm7.7056885 -4.025055q-0.79745483 -0.03540039 -1.7337646 0.05621338q-0.9362793 0.09158325 -1.5917664 0.3536377q-0.65548706 0.26205444 -0.9958801 0.6666565q-0.3248291 0.40621948 -0.31149292 1.0359192q0.046539307 0.46038818 0.110198975 1.3623352q0.07922363 0.903595 0.1637268 2.0590515q0.10168457 1.1415405 0.17816162 2.3746948q0.0920105 1.2348022 0.17816162 2.3747253q0.103271484 1.1259766 0.1637268 2.059021q0.07757568 0.9191284 -0.4277954 0.94537354q0.099731445 -0.50805664 1.1180115 -0.4812317q1.0198975 0.011291504 2.1351929 -0.14031982q1.1308594 -0.15002441 2.2965698 -0.48492432q1.1812439 -0.33328247 2.2098083 -1.0122681q1.0301514 -0.69451904 1.8658447 -1.7861938q0.8511963 -1.0900269 1.2597961 -2.7599792q0.15615845 -1.5075378 -0.2906494 -2.6533813q-0.4296875 -1.1597595 -1.302063 -1.9883423q-0.872406 -0.82858276 -2.1875305 -1.3259583q-1.3151245 -0.497406 -2.8382568 -0.6550293zm13.462494 6.2156982q0.07598877 0.93466187 -0.5065613 0.7958374q-0.5809326 -0.15438843 -0.9984131 -0.37039185q-0.40029907 -0.22991943 -0.7920227 -0.6945801q-0.37615967 -0.4630432 -0.30371094 -1.1624451q0.19799805 -1.9116516 1.4747925 -3.3189392q1.2939453 -1.4212341 2.9715576 -2.3000793q1.6931152 -0.8772583 3.524475 -1.2689514q1.8329773 -0.40722656 3.3405457 -0.2511902q2.3468323 0.24285889 4.190338 1.2504578q1.8606567 0.9937134 3.0834656 2.5339966q1.2383423 1.5419312 1.7911682 3.4841614q0.5528259 1.9421997 0.3371277 4.024811q-0.23190308 2.693573 -1.7210083 4.7857666q-1.4874878 2.0766602 -3.636261 3.4094238q-2.1487427 1.3327942 -4.6693115 1.8573608q-2.5205994 0.52456665 -3.7526855 0.28710938q-0.030090332 0.59381104 -0.3985901 2.786255q-0.36846924 2.1924744 -0.86883545 4.748291q-0.5003662 2.5558167 -1.1556396 5.3940735q-0.6397705 2.8398438 -1.5517578 5.730072q0.13009644 1.0187988 -0.7091675 0.9319458q-0.82373047 -0.085235596 -1.1715393 -0.21548462q-0.34942627 -0.11468506 -0.48440552 -0.63134766q-0.12106323 -0.4994812 -1.6750488 1.9158936q1.2233276 -6.5023804 1.8187256 -10.430695q0.5937805 -3.9127808 0.9576721 -7.8807983q0.36227417 -3.9524536 0.3885193 -7.8454285q0.043395996 -3.9069214 0.51657104 -7.5651245zm7.705719 -4.025055q-0.79748535 -0.03540039 -1.7337646 0.05621338q-0.9363098 0.09158325 -1.5917969 0.3536377q-0.65548706 0.26205444 -0.9958496 0.6666565q-0.3248291 0.40621948 -0.31152344 1.0359497q0.046569824 0.46035767 0.11022949 1.3623047q0.079193115 0.903595 0.1637268 2.0590515q0.10168457 1.1415405 0.17816162 2.3746948q0.0920105 1.2348022 0.1781311 2.3747253q0.103302 1.1259766 0.1637268 2.059021q0.0776062 0.9191284 -0.4277954 0.94537354q0.09976196 -0.50805664 1.118042 -0.4812317q1.0198975 0.0113220215 2.1351929 -0.14031982q1.1308594 -0.15002441 2.2965698 -0.48492432q1.1812439 -0.33328247 2.2098083 -1.0122681q1.0301514 -0.69451904 1.8658142 -1.7861938q0.8512268 -1.0900269 1.2598267 -2.7599487q0.15615845 -1.5075684 -0.29067993 -2.6534119q-0.42965698 -1.1597595 -1.302063 -1.9883423q-0.872406 -0.82858276 -2.1875305 -1.3259583q-1.3151245 -0.497406 -2.8382263 -0.6550293zm14.789642 -19.48735q1.9292908 0.48240662 2.6039734 0.9449463q0.691864 0.44859314 1.0684509 1.6656952q-0.111083984 1.0723877 -0.2098999 2.6330109q-0.08166504 1.5466766 -0.23361206 3.6201782q-0.13479614 2.0595703 -0.2878418 4.4471283q-0.15304565 2.3875427 -0.3109436 4.8217163q-0.15786743 2.4341736 -0.3420105 4.818512q-0.16860962 2.3859558 -0.3189392 4.4439087q-0.13479614 2.0595703 -0.25238037 3.6496582q-0.1159668 1.5745544 -0.15786743 2.4341736q-0.017730713 0.17095947 -0.07455444 0.41641235q-0.0413208 0.24707031 -0.10620117 0.57022095q-0.049346924 0.32479858 -0.10940552 0.60131836q-0.044525146 0.2781372 -0.06384277 0.46466064q-0.07559204 0.27490234 -0.11907959 0.69454956q-0.04345703 0.4196167 -0.23806763 0.93356323q-0.17745972 0.5000305 -0.62557983 1.0348511q-0.4465027 0.5193176 -1.921936 0.5079956l-0.9634094 -1.4663391q-0.25079346 -0.30871582 -0.1321106 -2.21286q0.11871338 -1.9041443 0.27770996 -4.6523743q0.17453003 -2.7466125 0.43545532 -6.175476q0.2625122 -3.444397 0.5003967 -6.954193q0.25341797 -3.5081482 0.4934082 -6.73497q0.23999023 -3.226822 0.4364624 -5.5784607q0.022521973 -0.21759033 0.09765625 -0.7910309q0.09063721 -0.5718231 0.16574097 -1.1452637q0.09225464 -0.5873718 0.16091919 -1.0986481q0.08581543 -0.5252075 0.22750854 -1.8928833zm3.1895447 26.98732q0.15777588 -1.5231018 1.0021057 -3.3050537q0.8598938 -1.780304 2.158661 -3.248169q1.2987671 -1.4678345 2.9410095 -2.4603271q1.6422424 -0.99246216 3.414032 -0.80911255q0.99468994 0.10293579 1.8714294 0.58639526q0.8767395 0.48342896 1.6221313 1.1732178q0.7609253 0.69137573 1.3487549 1.5376282q0.5877991 0.84625244 0.8829956 1.7878723q0.31069946 0.9432678 0.24038696 1.9255981q-0.07034302 0.98236084 -1.0689392 1.9786072l-10.359253 0.8286743q-0.07388306 -0.6517029 0.089538574 -0.25778198q0.17895508 0.3955078 0.044891357 0.9314575q-0.13406372 0.5359192 -0.2842102 1.2272644q-0.13461304 0.6929321 -0.24884033 1.3408813q-0.11425781 0.6479187 -0.16897583 1.1763306q-0.053131104 0.5128784 -0.0821228 0.79263306q-0.09979248 0.96362305 0.2897339 1.6008301q0.39117432 0.6217041 1.1483765 1.0456543q0.7588501 0.40841675 1.8789368 0.66571045q1.1216736 0.24172974 2.2717896 0.3607483q1.1656494 0.12063599 2.2477112 0.1383667q1.0820618 0.017730713 2.822754 0.19787598q-0.15133667 1.4609375 -0.42471313 1.8253479q-0.27337646 0.3644104 -0.5510254 0.6184387q-0.26049805 0.24008179 -0.48025513 0.39013672q-0.20419312 0.15167236 -0.44433594 0.34674072q-0.6843872 0.086242676 -1.494751 0.1751709q-0.7947998 0.090545654 -1.6951904 0.13873291q-0.9003906 0.048217773 -1.7042847 0.07498169q-0.7867737 0.012817383 -1.0354309 -0.012908936q-1.6174927 0.14678955 -2.896698 -0.39404297q-1.2792053 -0.540802 -2.0824585 -1.5821228q-0.8016052 -1.0568848 -1.1980286 -2.3860168q-0.3808899 -1.3274841 -0.48468018 -2.7519836q-0.103759766 -1.4244995 0.016479492 -2.8886719q0.13739014 -1.4780884 0.4124756 -2.769104zm8.411285 -6.1355286q-0.062164307 -0.0064086914 -0.59329224 0.26849365q-0.515625 0.27651978 -1.0880737 0.79849243q-0.5569153 0.5235596 -0.8946228 1.0541382q-0.3360901 0.51501465 -0.55096436 0.16290283q0.53970337 -0.054107666 1.7369995 -0.08731079q1.214447 -0.047088623 2.199524 -0.30645752q1.0006409 -0.25772095 1.4696045 -0.539093q0.47061157 -0.296875 0.47061157 -0.296875q0.0015869141 -0.015533447 -0.49945068 -0.33444214q-0.49945068 -0.33444214 -2.2503357 -0.71984863z" fill-rule="nonzero"/><path fill="#000000" d="m278.07825 249.93784c-12.017578 -0.6430969 -15.211182 -1.7936707 -21.090912 5.494751c-6.522827 7.9271545 -5.8841095 19.559753 -3.8367004 26.33194c2.6861267 8.950836 6.2647095 11.125122 14.318726 12.14444c2.3011475 0.25811768 0.5118408 4.987274 0.12686157 7.16156c-0.38497925 2.174286 -8.054016 0.38061523 -10.2282715 1.7893066l-5.626007 3.8367004c-1.1505737 0.89245605 -4.3441772 5.2409973 -4.3441772 5.2409973c-3.7054596 0.25375366 -8.054016 1.531189 -8.054016 1.531189c0 0 -9.716431 39.88507 -8.438995 42.18622c1.6624298 2.6861267 7.8002777 1.0237122 7.8002777 1.0237122l-1.4043121 13.548767l-4.3485565 15.854279c-0.63871765 4.4710693 3.9635773 13.933746 9.077713 13.675659l-3.3248444 -9.20459c0 0 3.3248444 9.20459 5.625992 -2.3011475c1.7892914 -9.4583435 4.98291 -12.783173 4.98291 -13.675659c0 -2.5592346 -0.7655945 1.0193481 -1.4043121 4.602295c-0.7655945 3.7054749 -8.819611 70.56122 -5.4991302 71.71179c3.963562 1.2817993 -3.959198 8.950836 -6.518463 13.295013c-2.5548859 4.348572 27.355652 4.348572 29.788025 3.9635925c2.5549011 -0.38061523 6.2603455 -4.344208 3.3204956 -6.518463c-2.9398804 -2.174286 -12.783173 -4.3441772 -12.783173 -5.3678894c0 -1.0237122 16.108032 -65.57831 16.108032 -65.57831c0 0 -4.344208 57.524292 -2.174286 58.036133c5.499115 1.4043274 -0.25375366 9.585205 -0.38061523 14.445618l32.08481 -0.7699585l-0.7655945 -3.9635925c-0.38497925 -2.5548706 -13.806885 -4.9828796 -13.806885 -4.9828796l11.632599 -74.529144l-7.2884216 -64.17401c10.10144 -5.367859 10.482025 -3.832306 18.282318 -20.0672c0.5118408 -9.331451 -0.6387329 -14.9574585 -1.9161682 -21.987762l2.9398804 -25.56636c0 0 -0.6387329 -6.522827 -2.5592651 -4.7291565c0 0 -0.6387329 5.367874 -2.428009 8.946472c-1.5355835 3.1936035 -4.090454 4.7291718 -4.4754333 5.7528534c-0.7655945 2.174286 -0.7655945 -5.2410126 -0.7655945 -5.2410126c0 0 -1.1505737 -3.0667267 -1.535553 -1.2774353l-1.531189 9.712051c0 0 0 3.9635925 0.89245605 6.26474c1.1505737 2.428009 2.5592651 9.843292 2.5592651 9.843292c0 0 -0.38497925 9.589569 -1.0237122 11.763855c-0.7655945 2.1698914 -4.0904236 8.6927185 -5.87973 8.946472c-9.4627075 1.7892761 -13.168152 -1.0237122 -13.168152 -1.0237122c0 0 0.12686157 -2.8129883 2.3011475 -3.7054443c5.3678894 -2.174286 7.415283 1.2774353 8.054016 -8.054016c2.0430298 -6.3916016 -3.197998 -12.14447 -1.6624146 -14.572479c1.535553 -2.3011475 2.428009 -4.987274 0.76556396 -9.843292c-1.4042969 -4.9872894 -12.398193 -9.970184 -12.398193 -9.970184z" fill-rule="evenodd"/><path stroke="#000000" stroke-width="0.30708661417322836" stroke-miterlimit="29.2208" stroke-linecap="butt" d="m278.07825 249.93784c-12.017578 -0.6430969 -15.211182 -1.7936707 -21.090912 5.494751c-6.522827 7.9271545 -5.8841095 19.559753 -3.8367004 26.33194c2.6861267 8.950836 6.2647095 11.125122 14.318726 12.14444c2.3011475 0.25811768 0.5118408 4.987274 0.12686157 7.16156c-0.38497925 2.174286 -8.054016 0.38061523 -10.2282715 1.7893066l-5.626007 3.8367004c-1.1505737 0.89245605 -4.3441772 5.2409973 -4.3441772 5.2409973c-3.7054596 0.25375366 -8.054016 1.531189 -8.054016 1.531189c0 0 -9.716431 39.88507 -8.438995 42.18622c1.6624298 2.6861267 7.8002777 1.0237122 7.8002777 1.0237122l-1.4043121 13.548767l-4.3485565 15.854279c-0.63871765 4.4710693 3.9635773 13.933746 9.077713 13.675659l-3.3248444 -9.20459c0 0 3.3248444 9.20459 5.625992 -2.3011475c1.7892914 -9.4583435 4.98291 -12.783173 4.98291 -13.675659c0 -2.5592346 -0.7655945 1.0193481 -1.4043121 4.602295c-0.7655945 3.7054749 -8.819611 70.56122 -5.4991302 71.71179c3.963562 1.2817993 -3.959198 8.950836 -6.518463 13.295013c-2.5548859 4.348572 27.355652 4.348572 29.788025 3.9635925c2.5549011 -0.38061523 6.2603455 -4.344208 3.3204956 -6.518463c-2.9398804 -2.174286 -12.783173 -4.3441772 -12.783173 -5.3678894c0 -1.0237122 16.108032 -65.57831 16.108032 -65.57831c0 0 -4.344208 57.524292 -2.174286 58.036133c5.499115 1.4043274 -0.25375366 9.585205 -0.38061523 14.445618l32.08481 -0.7699585l-0.7655945 -3.9635925c-0.38497925 -2.5548706 -13.806885 -4.9828796 -13.806885 -4.9828796l11.632599 -74.529144l-7.2884216 -64.17401c10.10144 -5.367859 10.482025 -3.832306 18.282318 -20.0672c0.5118408 -9.331451 -0.6387329 -14.9574585 -1.9161682 -21.987762l2.9398804 -25.56636c0 0 -0.6387329 -6.522827 -2.5592651 -4.7291565c0 0 -0.6387329 5.367874 -2.428009 8.946472c-1.5355835 3.1936035 -4.090454 4.7291718 -4.4754333 5.7528534c-0.7655945 2.174286 -0.7655945 -5.2410126 -0.7655945 -5.2410126c0 0 -1.1505737 -3.0667267 -1.535553 -1.2774353l-1.531189 9.712051c0 0 0 3.9635925 0.89245605 6.26474c1.1505737 2.428009 2.5592651 9.843292 2.5592651 9.843292c0 0 -0.38497925 9.589569 -1.0237122 11.763855c-0.7655945 2.1698914 -4.0904236 8.6927185 -5.87973 8.946472c-9.4627075 1.7892761 -13.168152 -1.0237122 -13.168152 -1.0237122c0 0 0.12686157 -2.8129883 2.3011475 -3.7054443c5.3678894 -2.174286 7.415283 1.2774353 8.054016 -8.054016c2.0430298 -6.3916016 -3.197998 -12.14447 -1.6624146 -14.572479c1.535553 -2.3011475 2.428009 -4.987274 0.76556396 -9.843292c-1.4042969 -4.9872894 -12.398193 -9.970184 -12.398193 -9.970184z" fill-rule="evenodd"/></g></svg>