<svg version="1.1" viewBox="0.0 0.0 557.8582677165355 557.8582677165355" fill="none" stroke="none" stroke-linecap="square" stroke-miterlimit="10" xmlns:xlink="http://www.w3.org/1999/xlink" xmlns="http://www.w3.org/2000/svg"><clipPath id="p.0"><path d="m0 0l557.8583 0l0 557.8583l-557.8583 0l0 -557.8583z" clip-rule="nonzero"/></clipPath><g clip-path="url(#p.0)"><path fill="#000000" fill-opacity="0.0" d="m0 0l557.8583 0l0 557.8583l-557.8583 0z" fill-rule="evenodd"/><path fill="#000000" d="m214.15614 386.9975l-30.751572 0l0 0c-2.0390167 0 -3.994522 -0.80999756 -5.436325 -2.2518005c-1.441803 -1.441803 -2.2518005 -3.3973083 -2.2518005 -5.43631l0 -39.397003c0 -4.633789 3.7564087 -8.390198 8.3901825 -8.390198l29.347458 0c4.633774 0 8.3901825 3.7564087 8.3901825 8.390198l0 39.397003l0 0c0 4.2460327 -3.442093 7.6881104 -7.6881256 7.6881104z" fill-rule="evenodd"/><path fill="#2b67ff" fill-opacity="0.7151" d="m164.81902 375.54977l23.054886 0l0 0c1.5286865 0 2.994751 0.6072693 4.0756836 1.6882019c1.0809479 1.0809326 1.6882172 2.546997 1.6882172 4.0756836l0 33.489166c0 3.473999 -2.8162384 6.2902527 -6.2902527 6.2902527l-22.002182 0c-3.4740143 0 -6.2902527 -2.8162537 -6.2902527 -6.2902527l0 -33.489166l0 0c0 -3.183319 2.5805817 -5.7638855 5.7639008 -5.7638855z" fill-rule="evenodd"/><path fill="#2b67ff" fill-opacity="0.7151" d="m166.23792 379.87128l-23.054886 0l0 0c-1.5286713 0 -2.994751 -0.60723877 -4.0756836 -1.6882019c-1.0809326 -1.0809326 -1.6882019 -2.546997 -1.6882019 -4.0756836l0 -44.575775c0 -3.473999 2.8162384 -6.2902527 6.2902374 -6.2902527l22.002197 0c3.473999 0 6.2902374 2.8162537 6.2902374 6.2902527l0 44.575775l0 0c0 3.183319 -2.5805817 5.7638855 -5.7639008 5.7638855z" fill-rule="evenodd"/><path fill="#000000" d="m214.15471 386.99738l-30.760849 0l0 0c-2.0396423 0 -3.9957275 -0.8102417 -5.437973 -2.2525024c-1.4422302 -1.4422302 -2.252472 -3.3983154 -2.252472 -5.437958l0 -43.53888c0 -4.6351624 3.757553 -8.392731 8.392715 -8.392731l29.356293 0c4.6351776 0 8.392715 3.7575684 8.392715 8.392731l0 43.53888l0 0c0 4.2473145 -3.4431152 7.69046 -7.6904297 7.69046z" fill-rule="evenodd"/><path fill="#000000" d="m323.60614 349.06866l-8.477142 43.808075l0.00579834 -44.622437l-10.360901 44.758453l1.3262329 -39.418213l-12.110413 35.07437l-12.798279 -37.38199l3.5298462 55.758026l47.15271 -7.741974z" fill-rule="evenodd"/><path fill="#2b67ff" d="m323.60864 342.29303l-8.479248 43.808624l0.007507324 -44.62256l-10.363129 44.759064l1.3278198 -39.418365l-12.112335 35.075012l-12.797455 -37.38147l3.5278625 55.757996l47.155304 -7.744232z" fill-rule="evenodd"/><path stroke="#2b67ff" stroke-width="1.0" stroke-linejoin="round" stroke-linecap="butt" d="m323.60864 342.29303l-8.479248 43.808624l0.007507324 -44.62256l-10.363129 44.759064l1.3278198 -39.418365l-12.112335 35.075012l-12.797455 -37.38147l3.5278625 55.757996l47.155304 -7.744232z" fill-rule="evenodd"/><path fill="#000000" d="m473.49908 288.1296c-110.4848 33.637512 -218.9006 43.21173 -331.71603 22.77118c-18.371529 -4.399658 -41.39836 -10.608734 -59.252632 -16.819763c-1.5517654 24.84021 5.691803 57.700867 18.629166 78.660645c8.280067 16.300507 21.21743 34.154785 37.260307 43.209747c40.623474 23.805695 93.40741 29.75711 139.72467 28.980255c48.126648 -2.0710144 99.8761 -6.728302 143.08783 -28.980255c13.971863 -6.7263184 24.322937 -21.475067 30.01474 -35.966156c13.45462 -24.320984 25.615112 -53.30121 25.09784 -81.76419zm-8.28006 16.56012c-0.2576599 8.797333 -5.1745605 28.980255 -8.020447 29.237885c1.8113708 -11.383606 -8.28009 -29.237885 8.020447 -29.237885zm-18.62918 7.5032043c-1.0345154 11.902832 2.5863037 22.253906 -0.77685547 33.637512c-7.245575 9.574219 -29.497498 21.994324 -25.615112 0.776886c1.8114014 -12.679718 -12.937347 -29.237885 5.43219 -28.720612c8.02243 -2.3286438 13.19696 -2.8479004 20.959778 -5.6937866zm-352.1566 -1.0345154c10.349098 -4.140045 2.5862808 24.580597 3.3631592 19.923279c-3.8804169 -4.397644 -3.1055222 -13.194977 -3.3631592 -19.923279zm10.866348 3.1055298c7.5031967 4.3976746 27.686104 3.6227722 26.391975 10.866333c-3.6207886 10.351074 1.8113861 25.617096 -3.8804092 32.603027c-17.59465 2.8458862 -26.391975 -15.783264 -22.511566 -30.791626zm300.9244 10.608704c2.0710144 17.594635 5.4341736 30.532013 3.3651428 48.126648c-6.468689 10.608734 -14.748749 18.888794 -21.47705 5.1745605c-9.574219 -12.937347 -6.9859314 -29.755127 -11.125977 -45.02115c6.2090454 -6.211029 18.888794 -4.1400146 29.237885 -8.28006zm-266.51 -1.0345154c9.054962 5.43219 30.791626 0 31.826141 11.383606c-2.5882568 14.748749 4.9149323 34.67206 -13.196976 41.40036c-15.266006 11.643219 -18.629166 -12.679749 -19.923294 -23.288452c-1.0345154 -9.831848 -0.5172577 -19.923279 1.2941284 -29.495514zm39.069717 7.7608337c11.902847 3.8823853 33.12027 1.5537415 39.58896 7.7628174c0.7768707 13.971863 3.3651428 28.980225 -0.77490234 42.434845c-13.196976 6.468689 -43.72899 10.351074 -39.84857 -12.937347c-1.8113861 -11.902863 3.6227875 -27.426483 1.0345154 -37.260315zm185.52467 1.036499c3.6207886 17.594635 7.7608337 33.895172 5.43219 51.74942c-6.209076 8.797333 -29.497498 10.608734 -31.049286 -0.77685547c0.776886 -16.042877 -2.0690308 -31.566528 -2.0690308 -47.351776c10.089478 -1.2921448 17.852295 -1.8094177 27.686127 -3.6207886zm-39.33133 4.914917c3.3651428 17.594666 1.036499 34.154785 3.8824158 51.49179c-0.25964355 15.266022 -13.45462 10.091461 -23.546082 8.53772c-12.937378 -0.77490234 -25.617096 -6.2090454 -20.700165 -20.180939c1.8113708 -11.645203 -5.9514465 -30.533997 0 -37.519928c14.489105 -0.2576294 25.874695 -0.77490234 40.36383 -2.3286438zm-96.25331 0.25961304c15.006378 3.1055298 32.3434 -1.5537415 42.69249 4.6572876c-0.77490234 17.077423 1.0345154 31.566528 3.3651428 48.38629c-6.4706726 9.054962 -20.442535 6.209076 -30.791626 6.209076c-20.442535 1.5537415 -17.854279 -17.335052 -15.266006 -32.0838c0.2576294 -8.797302 -1.2941284 -18.371521 0 -27.168854zm-121.35314 19.92331c6.4686737 9.574188 19.663673 3.3631592 15.523636 16.56012c0 8.797333 2.0710144 17.854279 -3.6227722 6.7263184c-4.3976746 -7.503174 -8.278091 -15.265991 -11.900864 -23.286438zm334.56192 1.2941284c3.3631592 12.677734 -3.6227722 23.286469 -12.937347 31.308899c-5.4341736 -0.51727295 -2.5882568 -16.30252 -7.245575 -20.182922c0.776886 -5.691803 15.008392 -5.691803 20.182922 -11.125977zm-307.39307 8.020447c-0.51924133 12.162476 6.9859314 20.182922 14.489136 22.251953c-1.5517731 7.7628174 4.14003 25.099823 -8.020462 13.714233c-19.406029 -5.691803 -5.4341583 -21.73468 -6.4686737 -35.966187zm37.517944 8.02243c-3.8824005 13.71225 9.5742035 17.852295 16.81778 18.62918c0.5172577 10.091431 0.5172577 17.854248 1.036499 27.94571c-12.420105 -2.5882568 -28.72261 -3.1055298 -29.497498 -17.596619c-1.2941437 -14.489136 -1.8114014 -22.509583 11.643219 -28.978271zm206.48048 10.349091c10.608734 6.209076 12.162476 17.337036 7.505188 26.134338c-9.316559 3.8804321 -21.217438 12.937378 -17.594666 -4.6572876c-7.5051575 -17.337006 14.489136 -2.0710144 10.089478 -21.47705zm37.519928 -1.5517578c2.5863037 10.866333 3.3631592 19.663666 -10.351074 20.957794c-11.902832 10.608734 -12.677734 -13.971863 -0.51724243 -13.714233c3.8823853 -2.3286438 8.28006 -3.1035156 10.868317 -7.243561zm-196.64864 4.6572876c0.2576294 13.971863 17.077393 12.160492 11.643219 26.649628c0.5172577 9.316559 4.3976746 20.182892 -8.539688 14.231476c-7.503189 -3.3631592 -21.217422 1.036499 -19.146423 -10.608704c-0.5172577 -9.054962 0 -18.111908 -0.25961304 -26.90924c7.2455597 0.51724243 9.831833 0.25961304 16.302505 -3.3631592zm120.316635 9.831848c10.351074 3.1054993 20.700165 -2.8459167 17.854279 12.160461c6.9859314 16.042908 -15.783264 11.902863 -25.617096 15.785248c-6.7263184 2.8459167 -4.3976746 -19.148407 -0.7748718 -20.700165c5.17453 -1.2941284 7.762787 -1.5537415 8.537689 -7.2455444zm-53.04355 1.8113708c11.38559 6.728302 18.631134 8.797333 31.568481 7.5032043c-11.38559 0.776886 9.054962 23.288422 -7.7628174 19.923279c-9.831818 1.553772 -13.19696 2.5882874 -23.288422 2.8479004c0 -0.5192566 0.25961304 -20.700165 -0.51724243 -30.274384zm-16.81778 4.6572876c5.951416 -0.2576294 7.503174 1.5517883 5.17453 11.38559c-0.77685547 5.1745605 -1.0345154 11.125977 0 14.231506c0 0.2576294 -17.335022 0.77490234 -31.049255 -0.25961304c2.0690308 -10.091461 -7.2455597 -27.426483 6.4686737 -24.322968c7.2455597 1.553772 13.454605 -0.51724243 19.406052 -1.0345154z" fill-rule="evenodd"/><path fill="#000000" d="m267.98972 399.9548l-32.738464 0l0 0c-2.170761 0 -4.2526093 -0.8623352 -5.787567 -2.3973083c-1.5349731 -1.5349426 -2.397293 -3.6167908 -2.397293 -5.787567l0 -54.978424c0 -2.1362305E-4 1.8310547E-4 -4.272461E-4 4.119873E-4 -4.272461E-4l49.107758 4.272461E-4l0 0c2.4414062E-4 0 4.272461E-4 1.8310547E-4 4.272461E-4 3.9672852E-4l-4.272461E-4 54.978027l0 0c0 4.5203857 -3.6644592 8.1848755 -8.184845 8.1848755z" fill-rule="evenodd"/><path fill="#000000" d="m331.88623 398.18063l32.241882 0c1.26651 0 2.4811707 0.5031433 3.3767395 1.3987122c0.89556885 0.89556885 1.3986816 2.110199 1.3986816 3.3767395l0 23.876648c0 1.8310547E-4 -1.5258789E-4 3.3569336E-4 -3.3569336E-4 3.3569336E-4l-41.79242 -3.3569336E-4l0 0c-1.8310547E-4 0 -3.3569336E-4 -1.5258789E-4 -3.3569336E-4 -3.6621094E-4l3.3569336E-4 -23.876282l0 0c0 -2.6374207 2.138031 -4.7754517 4.7754517 -4.7754517z" fill-rule="evenodd"/><path fill="#000000" d="m435.75034 346.2017l-10.009949 -23.63263l2.3380737 27.131836l-11.775085 -23.542511l3.2684631 23.498993l-12.8619995 -17.033447l-9.7005005 27.269531l0.29953003 -35.15689l43.34445 -12.013092z" fill-rule="evenodd"/><path fill="#2b67ff" fill-opacity="0.7151" d="m267.98972 399.9548l-32.738464 0l0 0c-2.170761 0 -4.2526093 -0.8623352 -5.787567 -2.3973083c-1.5349731 -1.5349426 -2.397293 -3.6167908 -2.397293 -5.787567l0 -54.978424c0 -2.1362305E-4 1.8310547E-4 -4.272461E-4 4.119873E-4 -4.272461E-4l49.107758 4.272461E-4l0 0c2.4414062E-4 0 4.272461E-4 1.8310547E-4 4.272461E-4 3.9672852E-4l-4.272461E-4 54.978027l0 0c0 4.5203857 -3.6644592 8.1848755 -8.184845 8.1848755z" fill-rule="evenodd"/></g></svg>