<svg version="1.1" viewBox="0.0 0.0 557.8582677165355 557.8582677165355" fill="none" stroke="none" stroke-linecap="square" stroke-miterlimit="10" xmlns:xlink="http://www.w3.org/1999/xlink" xmlns="http://www.w3.org/2000/svg"><clipPath id="p.0"><path d="m0 0l557.8583 0l0 557.8583l-557.8583 0l0 -557.8583z" clip-rule="nonzero"/></clipPath><g clip-path="url(#p.0)"><path fill="#000000" fill-opacity="0.0" d="m0 0l557.8583 0l0 557.8583l-557.8583 0z" fill-rule="evenodd"/><path fill="#2b67ff" fill-opacity="0.6983" d="m370.75546 282.0609l0 0c38.581573 -0.9467163 65.25375 7.1347656 65.93747 19.978546c0.6837158 12.8437805 -24.778381 27.493958 -62.945984 36.217346c-38.167572 8.723389 -80.25659 9.512329 -104.05011 1.9504089c-23.793518 -7.56192 -23.815582 -21.734375 -0.054534912 -35.036377z" fill-rule="evenodd"/><path fill="#151112" d="m331.01813 103.3007c-0.6000061 0.05419922 -1.1901245 0.18666077 -1.7678223 0.4564972c-0.7444458 0.33296204 -1.0396423 1.2896042 -1.9144287 1.3686295c-0.05886841 0.005317688 -0.12106323 0.0052871704 -0.18630981 0.0027008057c-0.08236694 0.089416504 -0.1463623 0.13194275 -0.19403076 0.13624573c-0.072906494 0.0065841675 -0.10903931 -0.08060455 -0.1222229 -0.22640228c-0.18362427 -0.21801758 -0.42977905 -0.31450653 -0.6897583 -0.31362915c-0.059906006 -0.005897522 -0.11929321 -0.006187439 -0.175354 -0.001121521c-0.08413696 0.007598877 -0.16442871 0.026161194 -0.2460022 0.061798096c-0.13815308 0.035095215 -0.25161743 0.09339142 -0.3875122 0.15372467c-0.06604004 0.051193237 -0.11141968 0.08073425 -0.17721558 0.13472748c-0.11141968 0.08073425 -0.24526978 0.1634903 -0.32943726 0.26437378c-0.32769775 0.31510162 -0.68240356 0.5817566 -1.0655823 0.7831497c-3.1566162 1.7295914 -4.824585 4.4808197 -5.455841 7.9439926c0.014953613 0.16542816 0.027618408 0.3056183 0.06271362 0.443779c0.63757324 1.5507889 0.4987793 3.1745377 0.31256104 4.7742996c0.033935547 0.37570953 0.16320801 0.7428055 0.19918823 1.1409454c0.04168701 0.21105957 0.15319824 0.41298676 0.2675171 0.6146622c0.060577393 0.13868713 0.11810303 0.27482605 0.2008667 0.40868378c-0.018157959 1.8955154 0.15130615 3.7712555 0.55651855 5.628525c1.0173645 1.5617065 0.7234192 3.0326996 -0.3774414 4.457855c-0.10757446 -0.0015869141 -0.21463013 0.0024261475 -0.321167 0.012054443c-0.14859009 0.013427734 -0.29336548 0.03781128 -0.42822266 0.07826233c-0.13589478 0.060333252 -0.24731445 0.1410675 -0.35873413 0.2217865c-0.14996338 0.15489197 -0.30044556 0.33525085 -0.40124512 0.53375244c-0.6871643 1.8117828 -1.5173035 3.6364899 -1.407074 5.6391296c0.06329346 1.2012787 -0.17001343 2.3106384 -0.34884644 3.4602814c-0.8411865 3.7676392 -1.7552795 7.54187 -2.2131958 11.390778c-0.655426 2.9452515 -1.5302734 5.8396454 -2.0187988 8.817871c-0.41101074 2.5217896 -1.3669434 5.0193024 -0.65908813 7.62941c0.4286499 0.5520477 0.5237732 1.3236084 1.1956787 1.689743c0.17758179 0.15074158 0.35565186 0.27598572 0.532959 0.42391968c1.4481506 1.0422516 2.6368713 1.5284576 3.716339 1.430954c1.2056274 -0.10891724 2.2691956 -0.94558716 3.399475 -2.5458374c0.8165283 -1.1620331 1.5097351 -2.4062042 2.2791138 -3.5894318c0.20639038 -0.34370422 0.35198975 -0.92219543 0.81744385 -0.96424866c0.042053223 -0.0037994385 0.087402344 -0.002243042 0.13607788 0.0046691895c0.43173218 0.054275513 0.5772095 0.63191223 0.7312012 1.0222168c1.1128235 2.618744 2.0625305 5.277649 2.4794312 8.077988c0.4085083 0.5793152 0.44458008 1.2601013 0.553772 1.9371185c0.57266235 3.7105865 0.0052490234 7.380005 -0.25424194 11.047028c-0.22732544 3.5227966 -1.2477417 6.902405 -1.6144409 10.415192c-0.044769287 0.28671265 -0.16244507 0.58000183 -0.20492554 0.8919525c-0.13809204 0.8180847 -0.2784729 1.6109161 -0.68795776 2.334793c-0.9963379 3.6148834 -1.7044678 7.3224487 -2.8460693 10.925003c-1.0000916 3.0724945 -2.1469727 6.0847626 -2.9031982 9.2285c-0.14959717 0.4403534 -0.27703857 0.87586975 -0.47351074 1.2978363c-0.05947876 0.12408447 -0.09674072 0.24334717 -0.108551025 0.36312866c-0.024353027 0.2622528 -0.12286377 0.48599243 -0.19436646 0.72706604c-0.07406616 0.24412537 -0.19525146 0.46707153 -0.2692871 0.71121216c-0.14962769 0.44033813 -0.25183105 0.8735657 -0.40142822 1.3139191c-0.037017822 0.12205505 -0.071258545 0.24388123 -0.10623169 0.3883667c-1.2305298 2.6184235 -2.0907898 5.3927917 -2.978302 8.147018c-0.096466064 0.24615479 -0.28778076 0.47543335 -0.2876587 0.7581024c-0.17108154 0.9850006 -0.8089905 1.7775574 -1.0068054 2.7169342c-1.1231079 2.4928284 -2.3005066 4.9170685 -3.2049866 7.483429c-0.36120605 0.9767456 -0.57714844 1.965805 0.3720703 2.8043823c0.18441772 0.19534302 0.4116516 0.36419678 0.6164856 0.53507996c0.10595703 0.10914612 0.2272644 0.16885376 0.33120728 0.25556946c0.32662964 0.20510864 0.6897583 0.3136444 0.99853516 0.5712433c0.10089111 0.08416748 0.20254517 0.14564514 0.32180786 0.18293762c0.10165405 0.06147766 0.200531 0.12321472 0.32485962 0.18547058c0.049682617 0.018127441 0.10165405 0.06149292 0.14855957 0.0798645c0.08123779 0.0859375 0.18237305 0.1729126 0.25881958 0.23667908c0.10394287 0.0867157 0.18237305 0.1729126 0.28125 0.23464966c0.15286255 0.1275177 0.33322144 0.27799988 0.30252075 0.4701538c-0.26464844 1.5135803 0.64172363 2.3786316 1.7043762 3.158905c0.60787964 0.4397583 1.3329163 0.6117096 1.9387817 1.0290222c0.17605591 0.10281372 0.35134888 0.22831726 0.5477905 0.3066864c0.14730835 0.034744263 0.2663269 0.06921387 0.41589355 0.12919617c2.5398254 1.4241791 5.322693 2.0970917 8.196991 2.498886c1.0059204 0.12112427 2.229004 -0.20135498 2.9537659 0.46810913c0.8003845 0.7558899 0.2088623 2.061554 0.46694946 3.1039124c0.027435303 1.0857849 -0.11004639 2.1610413 -0.17999268 3.2330322c-0.035003662 0.14447021 -0.06719971 0.2887268 -0.054260254 0.43173218c-0.004211426 0.23498535 -0.0074157715 0.45010376 -0.034057617 0.6871033c-0.034973145 0.14450073 -0.06692505 0.29156494 -0.07949829 0.434021c-0.069122314 0.5489807 -0.13723755 1.078064 -0.16351318 1.6005554c-0.29919434 5.3242188 -0.83999634 10.6024475 -1.3058472 15.896484c0.0107421875 0.40042114 -0.049865723 0.76205444 -0.15612793 1.1504517c0.0063476562 0.07006836 -0.012573242 0.14245605 -0.006225586 0.21255493c-0.016113281 0.07211304 -0.007507324 0.16744995 -0.026397705 0.23980713c-0.009765625 0.14224243 -0.017242432 0.30969238 -0.052246094 0.4541626c-0.12466431 2.2810974 -0.825531 4.4729004 -1.0949707 6.747284c-0.33599854 2.820282 -0.93829346 5.57135 -1.0393066 8.3958435c-0.40881348 1.7640381 -0.74472046 3.5214844 -0.9866028 5.318512c-0.13949585 1.0527954 -0.4176941 2.1661987 -1.7156982 2.4728699c-0.52337646 0.2140503 -0.9711304 0.5145569 -1.0808105 1.1152344c-1.7589417 0.9616699 -3.5196533 1.903717 -5.2806396 2.8429565c-0.16253662 0.29736328 -0.7709656 0.35232544 -0.5574341 0.9011841l0.025238037 -0.0022583008c0.200531 0.12319946 0.42892456 0.054534912 0.6317444 0.20297241c1.0029602 -0.067993164 1.9564514 0.41122437 2.9910583 0.31774902c0.106536865 -0.009613037 0.21258545 -0.024841309 0.3234558 -0.04901123c0.9944153 -0.19439697 1.9961548 -0.33862305 2.9999084 -0.42929077c1.059845 -0.09573364 2.125 -0.13259888 3.1957397 -0.107788086c0.23498535 0.004211426 0.47583008 0.01071167 0.7085571 -0.010314941c0.47943115 -0.043304443 0.92581177 -0.20233154 1.2095642 -0.75372314c0.14993286 -0.123809814 0.2975464 -0.21063232 0.446167 -0.22406006c0.13739014 -0.012390137 0.2772827 0.034332275 0.42504883 0.16796875c0.1796875 0.45581055 0.49414062 0.52633667 0.8418274 0.49493408c0.12335205 -0.011138916 0.25106812 -0.036834717 0.37902832 -0.059692383c0.42453003 -0.27578735 0.107299805 -0.90856934 0.5593567 -1.1614075c1.2994385 -1.0417175 1.4566345 -2.7123413 0.1894226 -3.6607056c-0.61016846 -0.46499634 -0.7992554 -0.99346924 -0.6214905 -1.6228943c0.42004395 -1.3890991 0.37908936 -2.875061 0.9663391 -4.2283936c0.76171875 -0.2355957 0.8859863 -0.9562988 1.0889587 -1.5880432c0.96307373 -2.9504395 2.0482178 -5.8638306 3.2798767 -8.719788c0.05947876 -0.12411499 0.09649658 -0.2461853 0.15393066 -0.3927002c0.053131104 -0.19418335 0.13146973 -0.39065552 0.20703125 -0.586853c0.012054443 -0.117004395 0.049072266 -0.23904419 0.10626221 -0.3883667c0.527771 -1.229248 1.1072693 -2.4179077 1.6350708 -3.6471558c1.5923157 -3.3379822 3.1298828 -6.7190857 4.3275146 -10.233429c0.06286621 -0.33642578 0.17825317 -0.65493774 0.29083252 -0.9732361c0.024383545 -0.26223755 0.11831665 -0.5053406 0.19033813 -0.7719116c0.011779785 -0.119781494 0.046783447 -0.26428223 0.08383179 -0.38635254c0.094451904 -0.2685852 0.26306152 -0.4986267 0.3078003 -0.78533936c0.308136 -1.282898 0.66696167 -2.5675354 0.85809326 -3.8624573c0.7011719 -4.5351562 0.76239014 -9.08316 0.23327637 -13.625885c-0.11993408 -1.0774384 0.20510864 -1.6721344 1.2199402 -1.9532013c1.2460327 -0.3500061 2.4050293 -0.88153076 3.5973206 -1.2945251c0.57818604 -0.20204163 0.9847717 -0.33206177 1.29599 -0.36016846c0.67852783 -0.061294556 0.90844727 0.35606384 1.4855957 1.5504913c2.3566284 4.8723145 4.3007812 9.903442 6.3833923 14.871155c0.81292725 2.4592896 1.831604 4.8490906 2.6016846 7.334839c0.19973755 0.6462097 0.66970825 1.1238708 0.8467407 1.7693176c0.041412354 0.20825195 0.083099365 0.41934204 0.14974976 0.6253052c0.33129883 0.5382385 0.27560425 1.2047119 0.56152344 1.7724915c0.08706665 0.18151855 0.17666626 0.35998535 0.24078369 0.56903076c0.3215332 0.68045044 0.45721436 1.4002991 0.7109375 2.1123047c0.035858154 0.115478516 0.07095337 0.2536621 0.106048584 0.3918152c0.1812439 0.41046143 0.33929443 0.8456116 0.3815918 1.3138428c0.035095215 0.1381836 0.06814575 0.25390625 0.128479 0.38980103c0.11230469 0.17922974 0.17642212 0.38827515 0.24307251 0.5942383c0.035095215 0.1381836 0.07299805 0.27609253 0.13076782 0.41503906c0.94607544 3.6513977 1.9846802 7.2944336 3.2547607 10.871368c0.3161316 1.1529846 0.65982056 2.3289185 1.3665466 3.3307495l-0.025238037 0.0022888184c0.2675171 0.61465454 0.42211914 1.2621155 0.46124268 1.9454651c-0.015655518 0.6402588 -0.0012512207 1.3003845 0.8206177 1.5116577c0.3352356 0.30041504 0.0942688 0.5115967 -0.1265564 0.6954651c-0.47766113 0.47000122 -1.0297241 0.8986511 -1.480896 1.411438c-0.51693726 0.5668335 -1.3065491 0.99432373 -1.2728882 1.8675537c0.027404785 1.0857849 0.007171631 2.1759033 -0.29421997 3.3139954c0.11035156 0.0013427734 0.21154785 -0.0049743652 0.31246948 -0.014099121c1.0121765 -0.091430664 1.601532 -0.6704407 2.1203308 -1.34198c0.8110657 -0.97216797 1.5457153 -2.0080872 2.6983337 -2.6097107c0.039001465 -0.0063476562 0.07546997 -0.009643555 0.10910034 -0.012664795c0.4850769 -0.043823242 0.40359497 0.2744751 0.30371094 0.63964844c-0.01889038 0.072387695 -0.032958984 0.16693115 -0.024353027 0.26226807c-0.13806152 0.31774902 -0.20300293 0.63171387 0.10501099 0.9119873c1.3499756 -0.26327515 2.369049 -1.2796631 3.6894836 -1.5883179c0.9225464 -0.26992798 0.961792 -1.1497192 1.27594 -1.8649902c0.26379395 -1.7735596 -0.15252686 -2.4708862 -1.9214783 -3.1845093c-0.8681946 -1.2246704 -1.0694885 -2.6707153 -1.4316406 -4.082428c-0.2298584 -0.9487915 -0.8825989 -1.8848267 -0.28814697 -2.908081c0.14126587 -0.53286743 0.06790161 -1.0943909 0.02130127 -1.6102905c-0.23855591 -3.1726074 -0.6697693 -6.3504333 -0.60043335 -9.525391c-0.02557373 -0.2831726 -0.14422607 -0.53253174 -0.1899414 -0.78845215c-0.23635864 -2.0845337 0.004638672 -4.14151 0.14828491 -6.212311c-0.0211792 -1.2983398 -0.28295898 -2.6004333 -0.21365356 -3.9295654c0.16882324 -2.856079 -0.43243408 -5.5690613 -1.2434387 -8.288574c-0.021026611 -0.23272705 -0.042297363 -0.4682312 -0.063568115 -0.70376587c-0.079315186 -0.3461609 -0.20657349 -0.6908264 -0.3307495 -1.0329285c-0.05831909 -0.113464355 -0.118621826 -0.24935913 -0.1741333 -0.36306763c-0.04220581 -0.1855774 -0.083618164 -0.39382935 -0.123046875 -0.5796509c-0.096191406 -0.2513733 -0.23242188 -0.47650146 -0.30136108 -0.70770264c-0.083618164 -0.39382935 -0.30541992 -0.752594 -0.38702393 -1.1239929c-0.085998535 -0.7017212 -0.33312988 -1.3408508 -0.71640015 -1.9224243c-0.058288574 -0.113464355 -0.118621826 -0.24935913 -0.1741333 -0.36306763c-0.28414917 -0.5170288 -0.5642395 -0.9892273 -0.6171875 -1.5752258c-0.8246155 -2.0568237 -1.964386 -3.9410095 -3.126587 -5.823181c-0.19506836 -0.31311035 -0.62713623 -0.6528473 -0.44851685 -1.0223236c0.098480225 -0.19262695 0.2507019 -0.26008606 0.4217224 -0.27552795c0.23272705 -0.021026611 0.5048828 0.050491333 0.7404175 0.029220581c0.016815186 -0.0015258789 0.030822754 -0.0027923584 0.04486084 -0.004058838c0.23550415 -0.021270752 0.50183105 0.047943115 0.7416382 0.07434082c2.0188293 0.10029602 3.942047 0.7067108 5.9151306 1.0514069c0.3506775 0.064437866 0.6633911 0.084228516 0.93536377 0.059661865c0.92526245 -0.08358765 1.4333191 -0.68634033 1.691925 -1.8601532c0.19006348 -0.77471924 0.073272705 -1.5669556 -0.044311523 -2.3364868c-0.04888916 -0.5411377 -0.08282471 -0.91685486 0.6390686 -1.0301208c1.3066101 -0.21131897 1.7419739 -1.1495209 1.729126 -2.355362c-0.023101807 -1.0381317 -0.16195679 -2.0431976 -0.20748901 -3.0793c-0.0741272 -0.5388489 -0.3534546 -1.0337219 -0.4020691 -1.572052c-0.13562012 -0.43719482 -0.33850098 -0.86831665 -0.38308716 -1.3617706c-0.6225281 -2.948532 -1.2450256 -5.897064 -2.5102234 -8.668808c-0.037872314 -0.13790894 -0.07525635 -0.3013153 -0.11315918 -0.43922424c-0.13796997 -0.74508667 -0.5772705 -1.4149017 -0.6451416 -2.1663208c-0.2208252 -1.1615906 -0.74398804 -2.2280426 -1.1736145 -3.3227386c-1.5639648 -3.9517517 -3.1503906 -7.901474 -5.24057 -11.638916c-0.080718994 -0.11141968 -0.13824463 -0.2475586 -0.19882202 -0.38624573c-0.29595947 -0.39727783 -0.5493164 -0.823822 -0.7068176 -1.2844849c-0.2829895 -0.7545929 -0.58132935 -1.4597626 -0.9527893 -2.1611328c-1.8061218 -3.5030518 -3.6831055 -6.9770813 -5.670746 -10.393066c-0.97317505 -2.136673 -2.1052246 -4.1855164 -3.2831116 -6.210434c-0.035095215 -0.13815308 -0.09542847 -0.27404785 -0.17617798 -0.38546753c-0.6378784 -1.0532684 -1.1651001 -2.1645813 -1.5788574 -3.334198c-0.39248657 -0.93408203 -0.35958862 -1.8840027 -0.091156006 -2.855194c0.4194336 -1.6462708 0.84091187 -3.270111 1.0184937 -4.9651947c0.035003662 -0.14450073 0.046813965 -0.26428223 0.05657959 -0.4065094c0.024353027 -0.2622528 0.12084961 -0.5084076 0.16964722 -0.7502594c0.009765625 -0.14221191 0.024383545 -0.2622528 0.03616333 -0.3820343c0.10220337 -0.4332428 0.20413208 -0.86927795 0.35601807 -1.2843933c0.03704834 -0.12205505 0.051635742 -0.24209595 0.06341553 -0.3618927c0.046813965 -0.26428223 0.14355469 -0.5076294 0.1923523 -0.7494812c0.035003662 -0.14450073 0.046813965 -0.26428223 0.08178711 -0.40878296c0.55737305 -1.6841736 0.67666626 -3.4927063 1.2572327 -5.201599c0.92401123 -2.8507843 1.9145813 -5.7782593 1.0550537 -8.753433c-1.0701599 -3.7108612 -2.4370728 -7.3270874 -4.0124817 -10.873581c-0.20291138 -0.43112183 -0.17739868 -0.93092346 -0.44888306 -1.307785c-0.7479553 -1.9902496 -1.2871399 -4.0474243 -2.1941833 -5.9526367c-0.71743774 -1.4022369 -0.99972534 -2.9625092 -1.5565796 -4.4018555c-1.1131897 -2.9042053 -3.0976868 -4.6894836 -6.2321777 -5.0932007c-0.83825684 -0.110839844 -1.6781311 0.010269165 -2.5016785 0.062042236c-0.80111694 0.04975891 -1.1653748 -0.32154846 -1.2100525 -1.0976715c-0.159729 -2.800949 0.70999146 -5.220009 2.8374023 -7.328682c2.3904114 4.1823654 5.136139 7.8860245 9.089569 10.533653c1.511383 1.0223999 3.0660706 1.9928436 4.8639526 2.4947052c0.14654541 0.057418823 0.27062988 0.116882324 0.41714478 0.1743164c0.19848633 0.1007843 0.4010315 0.24642944 0.6179199 0.30033875c0.60498047 0.15734863 1.2170715 0.36210632 1.8404541 0.4725647c1.7966919 0.36346436 3.5682678 0.48043823 5.331848 0.32112122c1.1719971 -0.10588074 2.33844 -0.33563232 3.5072632 -0.6956177c1.1223145 -0.12399292 2.1453857 -0.5951996 3.1389465 -1.1117859c2.0083008 -1.080307 3.4765015 -2.6319275 3.6114502 -5.080719c-0.022247314 -0.77815247 -0.11740112 -1.5497284 -0.18756104 -2.3263855c-0.002105713 -0.30508423 -0.007293701 -0.6127167 -0.15063477 -0.88526917c-0.060333252 -0.13587952 -0.1430664 -0.26974487 -0.22381592 -0.38116455c-0.16552734 -0.26771545 -0.32699585 -0.49057007 -0.47006226 -0.76031494c-0.2694702 -0.35443115 -0.31201172 -0.8254776 -0.5791931 -1.1546707c-0.9268799 -1.1232681 -1.430603 -2.7568054 -3.2968445 -2.7323837c-0.20166016 0.11432648 -0.35214233 0.29470062 -0.4284668 0.5135956c-0.2392273 0.7311096 0.10040283 1.3618698 0.27767944 2.0101242c0.75323486 2.5805588 -0.075164795 4.9252243 -2.3115234 6.3596725c-1.8085022 1.1640167 -3.80307 1.8643188 -5.9311523 2.0565643c-0.13739014 0.0124053955 -0.2722168 0.021759033 -0.41012573 0.028564453c-1.178833 0.061264038 -2.203247 -0.29563904 -3.1363525 -1.2063293c-1.6639099 -1.6474609 -2.2739563 -3.6756134 -2.4891357 -5.8072815c-0.29995728 -2.7882767 -0.8739319 -5.4811325 -1.5677185 -8.185776c-0.021270752 -0.23551941 -0.062683105 -0.443779 -0.08395386 -0.6792984c-0.20773315 -0.45329285 -0.27474976 -0.94473267 -0.43276978 -1.3798981c-1.3198547 -3.8777008 -2.8192139 -7.6459045 -6.5082703 -9.964066c-0.12332153 -0.08214569 -0.247406 -0.14160156 -0.37149048 -0.20105743c-0.3409729 -0.113357544 -0.5997925 -0.35003662 -0.9223633 -0.5102768c-0.92996216 -0.6254883 -1.7576294 -1.4015503 -2.8549194 -1.7518692c-1.0223999 -0.33447266 -2.1227722 -0.18701172 -3.145172 -0.52147675c-0.12408447 -0.0594635 -0.24816895 -0.11891937 -0.34701538 -0.18065643c-0.12411499 -0.05945587 -0.24819946 -0.11891174 -0.37228394 -0.17836761c-0.50613403 -0.09561157 -0.93188477 -0.36525726 -1.4403076 -0.48610687c-0.23904419 -0.049072266 -0.48519897 -0.14555359 -0.72906494 -0.2168045c-0.12005615 -0.014595032 -0.26226807 -0.024360657 -0.38433838 -0.06138611c-0.47885132 -0.07546234 -0.8819275 -0.34432983 -1.3383789 -0.4218216c-0.6633301 -0.20861053 -1.3319702 -0.4760971 -2.046936 -0.41151428c-0.047668457 0.004310608 -0.095062256 0.011421204 -0.14248657 0.01852417c-1.0314636 -0.028366089 -2.0720825 -0.15766907 -3.0926514 -0.065467834z" fill-rule="evenodd"/><path fill="#2b67ff" fill-opacity="0.6983" d="m260.60123 206.87502l0 0c0 -0.7245941 0.5873718 -1.3119965 1.3119812 -1.3119965l5.2478333 0l0 0c0.34796143 0 0.68167114 0.13822937 0.92770386 0.38427734c0.24606323 0.24604797 0.38427734 0.5797577 0.38427734 0.9277191l0 121.365585c0 0.7246094 -0.58740234 1.3120117 -1.3119812 1.3120117l-5.2478333 0c-0.7246094 0 -1.3119812 -0.58740234 -1.3119812 -1.3120117z" fill-rule="evenodd"/><path stroke="#2b67ff" stroke-width="3.0" stroke-linejoin="round" stroke-linecap="butt" d="m260.60123 206.87502l0 0c0 -0.7245941 0.5873718 -1.3119965 1.3119812 -1.3119965l5.2478333 0l0 0c0.34796143 0 0.68167114 0.13822937 0.92770386 0.38427734c0.24606323 0.24604797 0.38427734 0.5797577 0.38427734 0.9277191l0 121.365585c0 0.7246094 -0.58740234 1.3120117 -1.3119812 1.3120117l-5.2478333 0c-0.7246094 0 -1.3119812 -0.58740234 -1.3119812 -1.3120117z" fill-rule="evenodd"/><path fill="#2b67ff" fill-opacity="0.6983" d="m259.16254 197.9621l0 0c0 -2.966751 2.397461 -5.371765 5.354889 -5.371765l0 0c1.4201965 0 2.7822266 0.5659485 3.786438 1.573349c1.004242 1.0074005 1.5684204 2.3737335 1.5684204 3.7984161l0 0c0 2.9667358 -2.397461 5.37175 -5.3548584 5.37175l0 0c-2.957428 0 -5.354889 -2.405014 -5.354889 -5.37175z" fill-rule="evenodd"/><path stroke="#2b67ff" stroke-width="3.0" stroke-linejoin="round" stroke-linecap="butt" d="m259.16254 197.9621l0 0c0 -2.966751 2.397461 -5.371765 5.354889 -5.371765l0 0c1.4201965 0 2.7822266 0.5659485 3.786438 1.573349c1.004242 1.0074005 1.5684204 2.3737335 1.5684204 3.7984161l0 0c0 2.9667358 -2.397461 5.37175 -5.3548584 5.37175l0 0c-2.957428 0 -5.354889 -2.405014 -5.354889 -5.37175z" fill-rule="evenodd"/><path fill="#2b67ff" fill-opacity="0.6983" d="m280.33716 217.49193l0 0c0 -0.7245941 0.58740234 -1.3119965 1.3120117 -1.3119965l5.2478027 0l0 0c0.34796143 0 0.68167114 0.13822937 0.9277344 0.38427734c0.24603271 0.24604797 0.38427734 0.5797577 0.38427734 0.9277191l0 121.365585c0 0.72457886 -0.58740234 1.3119812 -1.3120117 1.3119812l-5.2478027 0c-0.7246094 0 -1.3120117 -0.58740234 -1.3120117 -1.3119812z" fill-rule="evenodd"/><path stroke="#2b67ff" stroke-width="3.0" stroke-linejoin="round" stroke-linecap="butt" d="m280.33716 217.49193l0 0c0 -0.7245941 0.58740234 -1.3119965 1.3120117 -1.3119965l5.2478027 0l0 0c0.34796143 0 0.68167114 0.13822937 0.9277344 0.38427734c0.24603271 0.24604797 0.38427734 0.5797577 0.38427734 0.9277191l0 121.365585c0 0.72457886 -0.58740234 1.3119812 -1.3120117 1.3119812l-5.2478027 0c-0.7246094 0 -1.3120117 -0.58740234 -1.3120117 -1.3119812z" fill-rule="evenodd"/><path fill="#2b67ff" fill-opacity="0.6983" d="m278.8985 208.579l0 0c0 -2.9667358 2.397461 -5.37175 5.3548584 -5.37175l0 0c1.4201965 0 2.7822266 0.5659485 3.7864685 1.573349c1.004242 1.0074005 1.5683899 2.3737335 1.5683899 3.7984009l0 0c0 2.966751 -2.3974304 5.371765 -5.3548584 5.371765l0 0c-2.9573975 0 -5.3548584 -2.405014 -5.3548584 -5.371765z" fill-rule="evenodd"/><path stroke="#2b67ff" stroke-width="3.0" stroke-linejoin="round" stroke-linecap="butt" d="m278.8985 208.579l0 0c0 -2.9667358 2.397461 -5.37175 5.3548584 -5.37175l0 0c1.4201965 0 2.7822266 0.5659485 3.7864685 1.573349c1.004242 1.0074005 1.5683899 2.3737335 1.5683899 3.7984009l0 0c0 2.966751 -2.3974304 5.371765 -5.3548584 5.371765l0 0c-2.9573975 0 -5.3548584 -2.405014 -5.3548584 -5.371765z" fill-rule="evenodd"/><path fill="#2b67ff" fill-opacity="0.6983" d="m307.71692 219.89629l0 0c0 -0.7245941 0.58740234 -1.3119965 1.3119812 -1.3119965l5.2478333 0l0 0c0.34796143 0 0.68167114 0.13822937 0.9277344 0.38427734c0.24603271 0.24604797 0.38427734 0.5797577 0.38427734 0.9277191l0 121.365585c0 0.7246094 -0.58740234 1.3119812 -1.3120117 1.3119812l-5.2478333 0c-0.72457886 0 -1.3119812 -0.5873718 -1.3119812 -1.3119812z" fill-rule="evenodd"/><path stroke="#2b67ff" stroke-width="3.0" stroke-linejoin="round" stroke-linecap="butt" d="m307.71692 219.89629l0 0c0 -0.7245941 0.58740234 -1.3119965 1.3119812 -1.3119965l5.2478333 0l0 0c0.34796143 0 0.68167114 0.13822937 0.9277344 0.38427734c0.24603271 0.24604797 0.38427734 0.5797577 0.38427734 0.9277191l0 121.365585c0 0.7246094 -0.58740234 1.3119812 -1.3120117 1.3119812l-5.2478333 0c-0.72457886 0 -1.3119812 -0.5873718 -1.3119812 -1.3119812z" fill-rule="evenodd"/><path fill="#2b67ff" fill-opacity="0.6983" d="m306.27826 210.98337l0 0c0 -2.966751 2.397461 -5.371765 5.3548584 -5.371765l0 0c1.4201965 0 2.7822266 0.5659485 3.7864685 1.573349c1.0042114 1.0074005 1.5683899 2.3737335 1.5683899 3.7984161l0 0c0 2.9667358 -2.397461 5.37175 -5.3548584 5.37175l0 0c-2.9573975 0 -5.3548584 -2.405014 -5.3548584 -5.37175z" fill-rule="evenodd"/><path stroke="#2b67ff" stroke-width="3.0" stroke-linejoin="round" stroke-linecap="butt" d="m306.27826 210.98337l0 0c0 -2.966751 2.397461 -5.371765 5.3548584 -5.371765l0 0c1.4201965 0 2.7822266 0.5659485 3.7864685 1.573349c1.0042114 1.0074005 1.5683899 2.3737335 1.5683899 3.7984161l0 0c0 2.9667358 -2.397461 5.37175 -5.3548584 5.37175l0 0c-2.9573975 0 -5.3548584 -2.405014 -5.3548584 -5.37175z" fill-rule="evenodd"/><path fill="#2b67ff" fill-opacity="0.6983" d="m342.68652 217.49245l0 0c0 -0.7245941 0.58740234 -1.3119965 1.3120117 -1.3119965l5.2478027 0l0 0c0.34799194 0 0.68170166 0.13822937 0.9277344 0.38427734c0.24606323 0.24604797 0.38427734 0.5797577 0.38427734 0.9277191l0 121.365585c0 0.72457886 -0.58740234 1.3119812 -1.3120117 1.3119812l-5.2478027 0c-0.7246094 0 -1.3120117 -0.58740234 -1.3120117 -1.3119812z" fill-rule="evenodd"/><path stroke="#2b67ff" stroke-width="3.0" stroke-linejoin="round" stroke-linecap="butt" d="m342.68652 217.49245l0 0c0 -0.7245941 0.58740234 -1.3119965 1.3120117 -1.3119965l5.2478027 0l0 0c0.34799194 0 0.68170166 0.13822937 0.9277344 0.38427734c0.24606323 0.24604797 0.38427734 0.5797577 0.38427734 0.9277191l0 121.365585c0 0.72457886 -0.58740234 1.3119812 -1.3120117 1.3119812l-5.2478027 0c-0.7246094 0 -1.3120117 -0.58740234 -1.3120117 -1.3119812z" fill-rule="evenodd"/><path fill="#2b67ff" fill-opacity="0.6983" d="m341.24786 208.57951l0 0c0 -2.9667358 2.397461 -5.37175 5.3548584 -5.37175l0 0c1.4201965 0 2.7822266 0.5659485 3.7864685 1.573349c1.004242 1.0074005 1.5683899 2.3737335 1.5683899 3.7984009l0 0c0 2.966751 -2.3974304 5.371765 -5.3548584 5.371765l0 0c-2.9573975 0 -5.3548584 -2.405014 -5.3548584 -5.371765z" fill-rule="evenodd"/><path stroke="#2b67ff" stroke-width="3.0" stroke-linejoin="round" stroke-linecap="butt" d="m341.24786 208.57951l0 0c0 -2.9667358 2.397461 -5.37175 5.3548584 -5.37175l0 0c1.4201965 0 2.7822266 0.5659485 3.7864685 1.573349c1.004242 1.0074005 1.5683899 2.3737335 1.5683899 3.7984009l0 0c0 2.966751 -2.3974304 5.371765 -5.3548584 5.371765l0 0c-2.9573975 0 -5.3548584 -2.405014 -5.3548584 -5.371765z" fill-rule="evenodd"/><path fill="#2b67ff" fill-opacity="0.6983" d="m375.31717 208.7459l0 0c0 -0.7245941 0.58740234 -1.3119965 1.3120117 -1.3119965l5.2478333 0l0 0c0.34796143 0 0.68167114 0.13822937 0.92770386 0.38426208c0.24606323 0.24604797 0.38427734 0.5797577 0.38427734 0.9277344l0 121.365585c0 0.72457886 -0.58740234 1.3119812 -1.3119812 1.3119812l-5.2478333 0c-0.7246094 0 -1.3120117 -0.58740234 -1.3120117 -1.3119812z" fill-rule="evenodd"/><path stroke="#2b67ff" stroke-width="3.0" stroke-linejoin="round" stroke-linecap="butt" d="m375.31717 208.7459l0 0c0 -0.7245941 0.58740234 -1.3119965 1.3120117 -1.3119965l5.2478333 0l0 0c0.34796143 0 0.68167114 0.13822937 0.92770386 0.38426208c0.24606323 0.24604797 0.38427734 0.5797577 0.38427734 0.9277344l0 121.365585c0 0.72457886 -0.58740234 1.3119812 -1.3119812 1.3119812l-5.2478333 0c-0.7246094 0 -1.3120117 -0.58740234 -1.3120117 -1.3119812z" fill-rule="evenodd"/><path fill="#2b67ff" fill-opacity="0.6983" d="m373.8785 199.83296l0 0c0 -2.9667358 2.397461 -5.37175 5.3548584 -5.37175l0 0c1.4201965 0 2.7822266 0.5659485 3.7864685 1.573349c1.004242 1.0074005 1.5684204 2.3737183 1.5684204 3.7984009l0 0c0 2.9667358 -2.397461 5.37175 -5.354889 5.37175l0 0c-2.9573975 0 -5.3548584 -2.405014 -5.3548584 -5.37175z" fill-rule="evenodd"/><path stroke="#2b67ff" stroke-width="3.0" stroke-linejoin="round" stroke-linecap="butt" d="m373.8785 199.83296l0 0c0 -2.9667358 2.397461 -5.37175 5.3548584 -5.37175l0 0c1.4201965 0 2.7822266 0.5659485 3.7864685 1.573349c1.004242 1.0074005 1.5684204 2.3737183 1.5684204 3.7984009l0 0c0 2.9667358 -2.397461 5.37175 -5.354889 5.37175l0 0c-2.9573975 0 -5.3548584 -2.405014 -5.3548584 -5.37175z" fill-rule="evenodd"/><path fill="#2b67ff" fill-opacity="0.6983" d="m401.62485 198.55658l0 0c0 -0.7245941 0.58740234 -1.3119965 1.3119812 -1.3119965l5.2478333 0l0 0c0.34796143 0 0.68167114 0.13822937 0.9277344 0.38427734c0.24603271 0.24604797 0.38427734 0.5797577 0.38427734 0.9277191l0 121.36557c0 0.7246094 -0.58740234 1.3120117 -1.3120117 1.3120117l-5.2478333 0c-0.72457886 0 -1.3119812 -0.58740234 -1.3119812 -1.3120117z" fill-rule="evenodd"/><path stroke="#2b67ff" stroke-width="3.0" stroke-linejoin="round" stroke-linecap="butt" d="m401.62485 198.55658l0 0c0 -0.7245941 0.58740234 -1.3119965 1.3119812 -1.3119965l5.2478333 0l0 0c0.34796143 0 0.68167114 0.13822937 0.9277344 0.38427734c0.24603271 0.24604797 0.38427734 0.5797577 0.38427734 0.9277191l0 121.36557c0 0.7246094 -0.58740234 1.3120117 -1.3120117 1.3120117l-5.2478333 0c-0.72457886 0 -1.3119812 -0.58740234 -1.3119812 -1.3120117z" fill-rule="evenodd"/><path fill="#2b67ff" fill-opacity="0.6983" d="m400.1862 189.64365l0 0c0 -2.9667358 2.397461 -5.37175 5.3548584 -5.37175l0 0c1.4201965 0 2.7822266 0.5659485 3.7864685 1.573349c1.0042114 1.0074005 1.5683899 2.3737183 1.5683899 3.7984009l0 0c0 2.9667358 -2.397461 5.37175 -5.3548584 5.37175l0 0c-2.9573975 0 -5.3548584 -2.405014 -5.3548584 -5.37175z" fill-rule="evenodd"/><path stroke="#2b67ff" stroke-width="3.0" stroke-linejoin="round" stroke-linecap="butt" d="m400.1862 189.64365l0 0c0 -2.9667358 2.397461 -5.37175 5.3548584 -5.37175l0 0c1.4201965 0 2.7822266 0.5659485 3.7864685 1.573349c1.0042114 1.0074005 1.5683899 2.3737183 1.5683899 3.7984009l0 0c0 2.9667358 -2.397461 5.37175 -5.3548584 5.37175l0 0c-2.9573975 0 -5.3548584 -2.405014 -5.3548584 -5.37175z" fill-rule="evenodd"/><path fill="#2b67ff" fill-opacity="0.6983" d="m422.2006 175.61041l0 0c0 -0.7245941 0.58740234 -1.3119965 1.3119812 -1.3119965l5.2478333 0l0 0c0.34796143 0 0.68167114 0.13822937 0.9277344 0.38427734c0.24603271 0.24604797 0.38424683 0.5797577 0.38424683 0.9277191l0 121.36557c0 0.7246094 -0.5873718 1.3120117 -1.3119812 1.3120117l-5.2478333 0c-0.72457886 0 -1.3119812 -0.58740234 -1.3119812 -1.3120117z" fill-rule="evenodd"/><path stroke="#2b67ff" stroke-width="3.0" stroke-linejoin="round" stroke-linecap="butt" d="m422.2006 175.61041l0 0c0 -0.7245941 0.58740234 -1.3119965 1.3119812 -1.3119965l5.2478333 0l0 0c0.34796143 0 0.68167114 0.13822937 0.9277344 0.38427734c0.24603271 0.24604797 0.38424683 0.5797577 0.38424683 0.9277191l0 121.36557c0 0.7246094 -0.5873718 1.3120117 -1.3119812 1.3120117l-5.2478333 0c-0.72457886 0 -1.3119812 -0.58740234 -1.3119812 -1.3120117z" fill-rule="evenodd"/><path fill="#2b67ff" fill-opacity="0.6983" d="m420.76193 166.69748l0 0c0 -2.9667358 2.3974304 -5.37175 5.3548584 -5.37175l0 0c1.4201965 0 2.7822266 0.5659485 3.7864685 1.573349c1.0042114 1.0074005 1.5683899 2.3737335 1.5683899 3.7984009l0 0c0 2.966751 -2.397461 5.371765 -5.3548584 5.371765l0 0c-2.957428 0 -5.3548584 -2.405014 -5.3548584 -5.371765z" fill-rule="evenodd"/><path stroke="#2b67ff" stroke-width="3.0" stroke-linejoin="round" stroke-linecap="butt" d="m420.76193 166.69748l0 0c0 -2.9667358 2.3974304 -5.37175 5.3548584 -5.37175l0 0c1.4201965 0 2.7822266 0.5659485 3.7864685 1.573349c1.0042114 1.0074005 1.5683899 2.3737335 1.5683899 3.7984009l0 0c0 2.966751 -2.397461 5.371765 -5.3548584 5.371765l0 0c-2.957428 0 -5.3548584 -2.405014 -5.3548584 -5.371765z" fill-rule="evenodd"/><path fill="#151112" d="m298.78577 319.90878l0 0c-0.022521973 0.019683838 -0.047851562 0.04220581 -0.07318115 0.061920166c-0.08728027 0.045043945 -0.17736816 0.09008789 -0.28433228 0.13510132l0 0c0.0140686035 -0.008422852 0.02532959 -0.01687622 0.02532959 -0.01687622c0.10699463 -0.053497314 0.22802734 -0.10696411 0.33218384 -0.18014526zm-0.4335022 0.23080444c-0.030975342 0.019714355 -0.061950684 0.045043945 -0.061950684 0.045043945c-0.0028076172 0 -0.0028076172 0 -0.0056152344 0l0 0c0.019714355 -0.01687622 0.047851562 -0.036590576 0.053497314 -0.045043945l0 0c0.0028076172 0.0028381348 0.0028076172 0.0028381348 0.0056152344 0.0028381348c0.0028076172 0 0.0056152344 -0.0028381348 0.008453369 -0.0028381348zm-0.08728027 0.061950684c0 0.0028076172 0 0.0028076172 0 0.0056152344c-0.0028076172 0 -0.0028076172 -0.0028076172 0 -0.0056152344zm2.0042725 1.7593384c-0.12387085 0.053497314 -0.25335693 0.09854126 -0.40255737 0.10696411c0.14074707 -0.008422852 0.2730713 -0.053466797 0.40255737 -0.10696411zm-0.602417 1.9169922c-0.16046143 0.05630493 -0.29275513 0.17172241 -0.48135376 0.19424438c0.070373535 -0.02532959 0.14074707 -0.047851562 0.2111206 -0.070373535c0.08728027 -0.053497314 0.17733765 -0.09289551 0.27023315 -0.12387085zm-78.154785 -66.80765c-2.3702087 0 -4.7263336 0.45040894 -7.1162415 0.45040894c-0.14920044 0 -0.29838562 0 -0.44758606 -0.005645752c-0.045028687 0 -0.087265015 0 -0.12948608 0c-1.7931366 0 -3.5581207 0.9486389 -5.0782013 2.0971375c-0.47010803 0.21395874 -0.91767883 0.54330444 -1.460968 0.5658264c-1.931076 0.047851562 -3.3216705 1.1062927 -4.568695 2.4265137c-0.21394348 0.18859863 -0.4025421 0.42504883 -0.6361847 0.5883179c-0.1182251 0.095703125 -0.21394348 0.18859863 -0.33216858 0.28430176c-1.6720886 1.8606873 -2.3786469 4.2168274 -3.107727 6.525116c0.11824036 0.7769165 -0.3293457 1.5538635 -0.02532959 2.3561096c0.2364502 1.5088196 0.28431702 3.062683 0.02532959 4.523651c-0.37719727 2.1675415 -0.070373535 4.168976 0.8698273 6.1028748c0.37721252 0.7994385 0.6615143 1.646759 0.89515686 2.4968567c1.0612488 3.60318 3.4173737 6.055023 6.7868958 7.631378c0.5404663 0.118255615 1.1062775 0.1435852 1.506012 0.613678c0.095703125 0.09289551 0.21392822 0.16607666 0.3546753 0.2364502c0.8951721 1.2019958 1.0612488 2.7080078 1.2948914 4.0986023c0.23646545 1.5088196 -0.4222412 2.308258 -1.6017151 2.5672607c-2.7333374 0.61364746 -5.182358 1.6720886 -6.784073 4.1464233c-0.37721252 0.4729309 -0.5179596 1.0359192 -0.7544098 1.5792236c-1.320221 2.9923096 -1.0133972 6.2182617 -1.2498474 9.328796c-0.14074707 1.8860168 -0.37721252 3.7692566 -0.16326904 5.6777954c-0.49543762 5.1598206 -1.1316223 10.319672 -1.745285 15.479523c0 0.39971924 0.1182251 0.7769165 0.047851562 1.1541138c-0.8473053 4.2168274 -1.013382 8.504028 -1.8606873 12.720856c-0.047851562 0.7319031 0.022521973 1.438446 -0.09289551 2.192871c-1.0612488 6.313965 -1.8156586 12.672974 -2.758667 18.986938c-0.32936096 2.192871 -0.32936096 4.3829346 -0.8698273 6.5279236c-0.095703125 0.49261475 -0.02532959 0.9880676 -0.070373535 1.48349c0 0.25897217 -0.02532959 0.49542236 -0.047851562 0.72906494c-0.09289551 2.040863 0.7797394 3.085205 2.5475464 3.085205c0.4588318 0 0.9767914 -0.070373535 1.5510406 -0.2111206c0.18859863 -0.070373535 0.35469055 -0.1182251 0.5432892 -0.1182251c0.11541748 0.02532959 0.18859863 0.095703125 0.28149414 0.16607666c0.28149414 1.7903442 0.04786682 3.6285095 0.14074707 5.441345c0 0.14355469 0 0.28430176 0 0.4475708c0 0.5658264 0 1.1316223 0 1.6974487c0 0.25897217 0 0.51794434 0 0.7769165c0.095718384 1.5313416 -0.4222412 3.0401611 -0.070373535 4.5715027c0.11824036 1.8832397 0.04786682 3.7917786 0.022521973 5.7003174c-0.022521973 2.1450195 0.23646545 4.287201 -0.18579102 6.4096985c-0.07318115 0.61083984 -0.30682373 1.1766357 -0.3546753 1.7903137c0.18859863 1.8832092 -0.022521973 3.791748 0.30682373 5.6777954c0.14637756 0.8782654 -0.061920166 1.2723694 -0.69529724 1.2723694c-0.18016052 0 -0.39691162 -0.030975342 -0.6474457 -0.095703125c-2.2632294 -0.5404968 -4.5489807 -1.0612488 -6.8094025 -1.6017456c-2.5672455 -0.61364746 -5.1119843 -1.2498169 -7.7496033 -1.460968c-0.8951721 -0.16326904 -1.8156586 -0.30682373 -2.6883087 -0.5404663c-0.2111206 -0.02532959 -0.4475708 -0.070373535 -0.6586914 -0.14355469c-1.2019958 -0.28149414 -2.4490204 -0.2111206 -3.6031647 -0.72906494c-0.14356995 -0.04788208 -0.28431702 -0.09573364 -0.4250641 -0.14077759c-0.6361847 -0.070373535 -1.2723694 -0.18859863 -1.9310608 -0.18859863c-0.14356995 0 -0.306839 0 -0.44758606 -0.02532959c-0.9655304 -0.14074707 -1.9338837 -0.37438965 -2.899414 -0.5629883c-2.0014496 -0.21392822 -3.980362 -0.6840515 -5.9592896 -1.0387268c-1.297699 -0.045043945 -2.5925903 -0.25897217 -3.8396149 -0.5404663c-0.34062195 -0.070373535 -0.66433716 -0.104156494 -0.9683533 -0.104156494c-1.0471649 0 -1.9057312 0.40252686 -2.7079926 1.1879272c-0.21113586 0.25897217 -0.44758606 0.47009277 -0.8022766 0.49542236c-0.11541748 0.022521973 -0.25897217 0.045043945 -0.39971924 0.09289551c-0.49543762 0.18859863 -0.8247833 0.5657959 -0.9655304 1.0837708c-0.022521973 0.16607666 -0.022521973 0.30682373 -0.022521973 0.4475708c0 0.47009277 -0.306839 0.87265015 -0.35469055 1.320221c-0.070373535 0.5404663 -0.18859863 1.0584412 -0.35186768 1.5763855c-1.3680725 4.382904 -2.2857513 8.884033 -3.228775 13.382355c-0.4250641 2.097168 -0.2111206 2.3082886 1.8381805 3.1583862c0.8247833 1.6242371 2.3307953 2.11969 3.95784 2.3308105c0.17172241 0.022521973 0.3406067 0.03378296 0.50387573 0.03378296c1.6214294 0 2.6685944 -1.0556335 2.8177948 -2.7896423c0.14074707 -1.7199402 0.8247833 -3.2512817 1.460968 -4.9008484c0.5404663 0.42504883 1.013382 0.7769165 1.460968 1.1315918c0.17453003 0.3687744 0.4278717 0.51797485 0.7318878 0.51797485c0.14637756 0 0.3012085 -0.03378296 0.47010803 -0.09289551c1.9535828 0.28149414 3.95784 0.045043945 5.863571 0.5629883c0.12104797 0.08163452 0.23364258 0.12387085 0.34906006 0.12387085c0.087265015 0 0.17453003 -0.025360107 0.26460266 -0.07601929c1.0612488 0.30682373 2.1900482 0.095703125 3.2738037 0.30682373c0.095718384 0.1182251 0.18861389 0.2111206 0.28431702 0.30685425c0.3265381 0.15200806 0.6530762 0.30682373 1.0049438 0.30682373c0.08163452 0 0.16046143 -0.008453369 0.24209595 -0.02532959c0.21392822 -0.070373535 0.40252686 -0.18859863 0.49542236 -0.39974976c0.039413452 -0.30963135 0.1829834 -0.39971924 0.34625244 -0.39971924c0.1379242 0 0.28993225 0.0647583 0.40815735 0.1182251c1.4609833 0.7065735 3.0852203 0.6812439 4.571518 1.1766663l0 0.022521973c0.23364258 -0.49261475 -0.18859863 -1.1766663 0.44758606 -1.6017151c0.98805237 0.42504883 1.6017151 1.297699 2.4715424 1.8606873c0.095703125 0.008453369 0.19140625 0.008453369 0.28993225 0.008453369l0 0c0.19422913 0 0.38565063 0 0.56018066 0.06472778c0.22801208 0.08163452 0.4250641 0.12106323 0.59677124 0.12106323c0.5263977 0 0.8107147 -0.3687744 0.9345703 -1.0415344c0.18579102 -0.20831299 0.36595154 -0.3152771 0.54611206 -0.3152771c0.18296814 0 0.36875916 0.112579346 0.5601654 0.33779907c0.095718384 0.5911255 0.4250641 0.9908447 0.87265015 1.3455505c0.112594604 0.15481567 0.24208069 0.21673584 0.38282776 0.21673584c0.095718384 0 0.19424438 -0.028137207 0.29838562 -0.07598877c0.07319641 -0.1182251 0.16609192 -0.2364502 0.26179504 -0.3547058c0.28149414 -0.23364258 0.35186768 -0.61083984 0.58833313 -0.8951416c0.06755066 -0.109802246 0.18859863 -0.18017578 0.28712463 -0.18017578c0.070373535 0 0.12948608 0.03378296 0.16046143 0.109802246c0.2111206 0.5432739 0.6586914 0.96551514 0.7544098 1.5538635c0.16326904 0.16607666 0.35186768 0.2617798 0.5629883 0.2617798c0.2364502 -0.02532959 0.4250641 -0.095703125 0.5432892 -0.30682373c-0.49543762 -0.96554565 -0.2364502 -1.9085388 0.09289551 -2.8740845c0.17170715 -0.21957397 0.34906006 -0.31808472 0.5292053 -0.31808472c0.19142151 0 0.38565063 0.112579346 0.579895 0.31808472c0.56581116 1.0584412 1.5538635 1.8606873 1.8381653 3.107727c0.022521973 0.1182251 0.16326904 0.30682373 0.25898743 0.30682373c0.9542694 0.061920166 1.8212738 0.613678 2.767105 0.613678c0.14920044 0 0.3040161 -0.0140686035 0.45884705 -0.047851562c0.1182251 -0.37722778 0.047851562 -0.7065735 -0.09289551 -0.9176941c-0.77693176 -1.1091003 -0.28431702 -2.167511 0.14074707 -3.2062378c0.14074707 -0.33779907 0.33216858 -0.58270264 0.58551025 -0.58270264c0.16889954 0 0.36595154 0.10696411 0.59114075 0.37158203c1.1091003 1.2948608 1.9789276 2.7333374 2.2857666 4.4532776c0.15763855 0.047851562 0.28993225 0.070373535 0.39691162 0.070373535c0.4729004 0 0.50387573 -0.4194336 0.4278717 -0.9176941c-0.14074707 -0.8501282 -0.09289551 -1.6495667 0.3546753 -2.4039917c0.25898743 -0.39971924 0.49263 -0.82476807 0.79945374 -1.2019653c0.2026825 -0.23648071 0.38565063 -0.39691162 0.57144165 -0.39691162c0.18016052 0 0.36312866 0.15481567 0.56018066 0.5376587c0.80226135 1.460968 1.2498474 2.921936 0.98805237 4.5940247c-0.09289551 0.73187256 0.6361847 0.5657959 0.9430084 0.8501282c0.028152466 -0.0028381348 0.053497314 -0.0028381348 0.078826904 -0.0028381348c0.197052 0 0.39408875 0.03378296 0.5939636 0.03378296c0.2111206 0 0.41941833 -0.039398193 0.6249237 -0.197052c-0.18861389 -0.3293457 -0.4025421 -0.6586914 -0.56581116 -0.9880371c-0.7544098 -1.4862976 -0.7065582 -2.899414 0.3293457 -4.219635c0.29838562 -0.37722778 0.5066986 -0.57144165 0.7037506 -0.57144165c0.20829773 0 0.40815735 0.21957397 0.6868439 0.6671448c0.68122864 1.0837708 0.9655304 2.308258 1.3427429 3.5327759c0.18859863 0.77975464 -1.1541443 1.9564209 0.6108551 2.3336182c0.13511658 0.022521973 0.2561493 0.03378296 0.36593628 0.03378296c0.60240173 0 0.8444977 -0.3406067 0.8838959 -1.1175537c0.04786682 -1.2498474 0.47010803 -2.4968567 1.320221 -3.3469849c0.98805237 -1.0105896 1.6242371 -2.11969 1.8607025 -3.4849243c0.14074707 -0.118255615 0.23364258 -0.23648071 0.28149414 -0.42507935c0 -0.18859863 -0.022521973 -0.37719727 -0.022521973 -0.5404663c0 -0.095703125 0.022521973 -0.18859863 0.070373535 -0.28430176c0.87265015 -1.3652649 1.48349 -2.7783813 0.58833313 -4.3800964c-0.022521973 -0.23648071 0 -0.42507935 0.2364502 -0.5207825c0.306839 -0.39971924 0.7065582 -0.70654297 0.8473053 -1.1991577c0.8247986 -3.9128113 1.6721039 -7.7749634 2.3082733 -11.710297c0.96554565 -3.651001 1.6495819 -7.3752136 2.2857666 -11.096588c0 -0.16326904 0.02532959 -0.3293457 0.047851562 -0.49545288c0.1182251 -0.96551514 0.49543762 -1.8606873 0.7290802 -2.803711c0.6361847 -3.4624023 1.460968 -6.9022827 2.1224823 -10.364716c0.13793945 -0.78256226 0.47854614 -1.297699 1.396225 -1.297699c0.022521973 0 0.04222107 0 0.061935425 0.0028381348c4.19429 0.14074707 8.388596 0.51794434 12.605423 0.82476807c3.980362 0.3040161 7.9860687 0.7065735 11.969254 1.0584412c3.3216553 0.30682373 6.643326 0.5657959 9.964981 0.661499c2.3308105 0.070373535 2.4265137 0.3040161 2.4265137 2.6601562c0 0.7319031 0 1.460968 -0.047851562 2.192871c-0.30685425 4.5940247 -0.4701233 9.188049 -0.4701233 13.782074c-0.18859863 6.313965 -0.070373535 12.62796 -0.047851562 18.941925c0 0.5404663 0.070373535 1.0809631 0.5658264 1.4356384c0.14074707 0.8022766 -0.14074707 1.6974182 0.61083984 2.3336182c0.3546753 1.2245178 0.37719727 2.5419006 1.1794739 3.6256714c0.42504883 0.66152954 0.8247986 1.320221 1.2470398 1.9563904c0.661499 0.4701233 1.2273254 1.0133972 1.4862976 1.8156738l11.425964 0c0.5883179 -0.8951721 -0.44760132 -1.1794739 -0.6840515 -1.7931519c-0.070373535 -0.14074707 -0.047851562 -0.3040161 -0.022521973 -0.4475708c0.16326904 -0.3040161 0.3293457 -0.61083984 0.44760132 -0.94018555c0.022491455 -0.09573364 0.047851562 -0.16610718 0.047851562 -0.2590027c0 -0.0140686035 0.022521973 -0.0140686035 0.04220581 -0.0140686035c0.016906738 0 0.03378296 0 0.030975342 -0.0056152344l0 0c0.070373535 0.09289551 0.16326904 0.20831299 0.25616455 0.3012085c0.4222412 0.25897217 0.5883179 0.70654297 0.84729004 1.0837402c0.30685425 0.2111206 0.5404968 0.49545288 0.9176941 0.5883484c0.039398193 0.0056152344 0.078826904 0.0056152344 0.1182251 0.0056152344c0.197052 0 0.38565063 -0.047851562 0.5432739 -0.1463623c0.5883484 -0.42507935 0.7065735 -0.9880676 0.44760132 -1.6495972c-0.02532959 -0.25897217 -0.02532959 -0.5404663 -0.047851562 -0.82476807c-0.2111206 -0.25897217 -0.1182251 -0.5883484 -0.1182251 -0.8951721c0 -0.022521973 0.047851562 -0.045043945 0.047851562 -0.070373535c0.2111206 0.1182251 0.51794434 0.14074707 0.63616943 0.39971924c0.6840515 1.1794739 1.3427429 2.3561401 1.2245178 3.8171082c-0.05630493 0.6333618 0.12948608 0.869812 0.4335022 0.869812c0.20831299 0 0.46728516 -0.10977173 0.7459717 -0.28149414c0.12948608 -0.056274414 0.25616455 -0.08444214 0.37719727 -0.08444214c0.21957397 0 0.4194336 0.09854126 0.5883179 0.29840088c0.2477417 0.04220581 0.4841919 0.070373535 0.7065735 0.070373535c0.63616943 0 1.1203613 -0.25054932 1.2245178 -1.1794739c0.022521973 -0.39971924 0.39971924 -0.5404663 0.63616943 -0.75161743c0.49545288 -0.4729004 1.0612488 -0.8951416 1.2498474 -1.6017151c0.7065735 -0.75439453 0.6586914 -1.7452698 0.7994385 -2.6629333c-0.278656 -2.1675415 -1.3877563 -3.1809387 -3.5749817 -3.1809387c-0.025360107 0 -0.050689697 0 -0.07601929 0c-0.16607666 0.047851562 -0.30682373 0.09289551 -0.4475708 0.14074707c-0.54330444 0.38565063 -1.0809631 0.579895 -1.6158142 0.579895c-0.5122986 0 -1.0246277 -0.17453003 -1.5426025 -0.53204346c-0.49261475 -0.30682373 -1.0837402 -0.070373535 -1.576355 -0.30682373c-0.1435852 -0.022521973 -0.2590027 -0.070373535 -0.40255737 -0.09289551c-1.2470398 -0.52075195 -0.2111206 -1.460968 -0.39971924 -2.167511c0.022521973 -2.9472656 -0.47009277 -5.866394 -0.30682373 -8.78833c0.02532959 -0.63619995 -0.1182251 -1.2723694 -0.14074707 -1.9085693c-0.070373535 -3.1105347 -0.44760132 -6.1957397 -0.32937622 -9.306274c-0.16607666 -2.5194092 -0.42504883 -5.041626 -0.61364746 -7.5610046c-0.022521973 -0.28430176 -0.022521973 -0.54330444 -0.045043945 -0.8022766c-0.40252686 -2.308258 -0.28430176 -4.664398 -0.49542236 -6.9726562c0.14074707 -0.613678 0 -1.2245178 -0.09573364 -1.8156738c-0.3293457 -1.8832092 -0.35186768 -3.791748 -0.5404663 -5.6777954c0 -1.5763855 -0.070373535 -3.1555786 0.047851562 -4.7572937c0.3293457 -2.9697876 -0.37719727 -4.264679 -2.8515625 -5.111969c-0.2111206 -0.1435852 -0.42504883 -0.2590027 -0.661499 -0.30685425c-8.149353 -2.0971375 -16.135406 -4.7122498 -24.335419 -6.6207886c-1.131607 -0.30682373 -2.1900482 -0.8247986 -3.3216553 -1.1316223c-3.5581207 -0.94021606 -7.1387634 -1.9535828 -10.696884 -2.944458c-0.9402008 -0.25897217 -1.7199554 -0.6840515 -1.5313416 -1.7677917c0.3546753 -2.0239868 -0.022521973 -4.0732727 0.3293457 -6.1000366c0.02532959 -1.5567017 0.4250641 -3.0880432 0.5432892 -4.6419067c0.23646545 -2.781189 0.37721252 -5.55954 0.77693176 -8.315399c0.22238159 -1.6608276 0.3237152 -2.2857666 0.99650574 -2.2857666c0.39691162 0 0.99086 0.21676636 1.9254303 0.5658264c3.251297 1.2244873 6.5729523 2.285736 9.872101 3.3695068c0.49261475 0.022521973 0.91767883 0.23364258 1.3652649 0.39971924c0.16607666 0.09289551 0.3546753 0.14074707 0.5432739 0.16326904c0.16326904 0.047851562 0.32936096 0.14355469 0.49263 0.18859863c0.16607666 0.070373535 0.33216858 0.070373535 0.49543762 0.1182251c0.14074707 0.070373535 0.28430176 0.14074707 0.4475708 0.21395874c0.14074707 0.022521973 0.306839 0.045043945 0.47010803 0.09289551c0.14355469 0.070373535 0.28430176 0.16607666 0.45039368 0.2111206c0.11541748 0.02532959 0.23364258 0.047851562 0.3293457 0.070373535c0.23364258 0.095703125 0.44758606 0.21392822 0.65870667 0.33215332c0.18859863 0.11541748 0.37719727 0.2111206 0.56581116 0.25897217c0.8726349 0.28149414 1.767807 0.5658264 2.592575 0.96554565c1.1766663 0.5432739 2.3842773 1.0049438 3.6425781 1.0049438c0.37438965 0 0.75442505 -0.042236328 1.1372375 -0.13513184c2.2407227 -0.51794434 4.3125305 -1.5059814 6.339325 -2.5419006c0.3293457 -0.21392822 0.6586914 -0.40255737 1.0358887 -0.49545288c0.118255615 -0.02532959 0.23648071 -0.047851562 0.3547058 -0.095703125c0.16326904 -0.070373535 0.3040161 -0.16326904 0.47009277 -0.23364258c0.09289551 -0.02532959 0.2111206 -0.070373535 0.30682373 -0.14355469c0.14074707 -0.070373535 0.30685425 -0.14074707 0.44760132 -0.2111206c0.1182251 -0.047851562 0.2111206 -0.09289551 0.3293457 -0.14074707c0.51794434 -0.16607666 0.96551514 -0.51794434 1.5088196 -0.63619995c0.14074707 -0.022491455 0.25897217 -0.047851562 0.37719727 -0.070373535c0.25897217 -0.095703125 0.47009277 -0.2364502 0.72909546 -0.28430176c0.1182251 -0.045043945 0.2364502 -0.09289551 0.35186768 -0.16326904c1.2273254 -0.70654297 2.6150818 -1.1091003 3.8874512 -1.7199402c4.123932 -1.4131165 7.94104 -3.535614 11.828522 -5.466675c1.1541138 -0.5657959 2.1421814 -1.2723694 2.4968567 -2.5447388c0.2111206 -0.7994385 0.6587219 -0.9880371 1.4356384 -1.1541138c2.6151123 -0.5404968 5.3484497 -0.5883484 7.774933 -1.9536133c0.63619995 -0.63616943 0.5658264 -1.0837402 -0.3293457 -1.3455505c-0.030944824 0 -0.061920166 -0.0028076172 -0.095703125 -0.0028076172c-0.27023315 0 -0.52075195 0.087249756 -0.7515869 0.19140625c-0.2111206 0.047851562 -0.39971924 0.07321167 -0.613678 0.118255615c-0.0056152344 0.0028076172 -0.011260986 0.0028076172 -0.01687622 0.0056152344l0 0c0.14355469 -0.045043945 0.29275513 -0.07318115 0.44195557 -0.09851074c0.5404663 -0.23648071 1.1062622 -0.30685425 1.6720886 -0.39974976c0.63616943 -0.1182251 1.1316223 -0.33215332 1.0612488 -1.1091003c-0.04788208 -0.14074707 -0.14074707 -0.25897217 -0.28433228 -0.35186768c-0.29556274 -0.13790894 -0.6052246 -0.16888428 -0.91485596 -0.16888428c-0.28430176 0 -0.57144165 0.02532959 -0.8501282 0.02532959c-0.061920166 0.005645752 -0.1182251 0.01687622 -0.17453003 0.03378296l0 0c0.08728027 -0.028137207 0.17453003 -0.05065918 0.26742554 -0.05630493c0.14074707 0 0.25897217 -0.022521973 0.39971924 -0.047851562c0.23648071 -0.09289551 0.49545288 -0.23364258 0.75442505 -0.3040161c0.1182251 -0.047851562 0.2364502 -0.14355469 0.3293457 -0.2364502c0.14355469 -0.16607666 0.2364502 -0.37722778 0.25897217 -0.5883484c-0.3040161 -1.100647 -0.70654297 -1.5651245 -1.4693909 -1.5651245c-0.23648071 0 -0.50390625 0.045043945 -0.8135376 0.12667847c-0.5517273 0.14920044 -1.0612488 0.35186768 -1.5200806 0.7178345l0 0c0.0056152344 -0.005645752 0.008453369 -0.008453369 0.011260986 -0.011260986c2.3786316 -2.0718384 2.144989 -4.7122498 -0.54330444 -5.984619c-0.39971924 -0.070373535 -0.7994385 0 -1.1766357 -0.14074707c-0.4701233 -0.16326904 -0.44760132 -0.5404968 -0.44760132 -0.9430237c0 -0.6812134 0.022521973 -1.3877869 -0.3293457 -2.0014343c-0.070373535 -0.118255615 -0.16607666 -0.23648071 -0.28430176 -0.30685425c-0.35186768 -0.18859863 -0.7065735 -0.30682373 -1.0837708 -0.39971924c-0.16326904 0 -0.3040161 0.022521973 -0.4475708 0.09289551c-1.3652649 0.591156 -1.2723694 1.8381653 -1.2948914 2.9923096c0 0.49545288 0.3546753 1.0387268 0.022521973 1.438446c-1.0359192 1.2723694 -1.3174133 2.944458 -2.3533325 4.1943054c-0.18859863 0.2364502 -0.36312866 0.46447754 -0.62490845 0.46447754c-0.09851074 0 -0.2111206 -0.03378296 -0.3434143 -0.11260986c-0.46728516 -0.28149414 -0.91204834 -0.39971924 -1.3427429 -0.39971924c-0.8247986 0 -1.5876465 0.43069458 -2.3308105 0.9430237c-2.4743652 1.6946106 -5.1598206 2.944458 -7.91568 4.1210938c-2.7108154 1.1316223 -5.5595703 1.8381958 -8.292908 2.944458c-0.3293457 0.09573364 -0.66152954 0.2590027 -1.0133972 0.28433228c-0.16607666 0.022521973 -0.30682373 0.022521973 -0.4475708 0.047851562c-1.5566711 0.39971924 -3.1105347 0.82196045 -4.664398 1.3174133c-0.3687744 0.121032715 -0.7206421 0.18014526 -1.0640564 0.18014526c-0.5348511 0 -1.0527954 -0.14355469 -1.5989075 -0.41378784c-2.7080078 -1.3905945 -5.5117035 -2.5700684 -8.245041 -3.8874817c-2.4264984 -1.2019958 -4.948715 -2.1675415 -7.327362 -3.4173584c-3.1584015 -1.4609985 -6.291458 -2.969818 -9.472382 -4.3575745c-0.7769165 -0.3547058 -1.3427277 -0.8247986 -1.7424622 -1.6495972c-1.5313416 -3.0880127 -3.673523 -5.6299133 -6.5504303 -7.5638123c-1.7199402 -1.1287842 -3.3441772 -2.4011536 -5.182358 -3.2963257c-1.3173981 -0.66152954 -1.6720886 -1.5791931 -1.6242371 -2.9697876c0.06756592 -1.6439514 0.05067444 -2.1168518 0.8782654 -2.1168518c0.33216858 0 0.8050842 0.07598877 1.4778595 0.18579102c0.27305603 0.039398193 0.5348511 0.05911255 0.78819275 0.05911255c1.3708954 0 2.4152527 -0.602417 3.1921844 -1.8973083c0.5432892 -0.94299316 1.2019806 -1.7677917 1.9310608 -2.5672302c1.5088196 -2.5672607 2.921936 -5.159851 3.7242126 -8.104309c0.5404663 -2.0971375 -0.025344849 -4.1943054 0.3040161 -6.268921c-0.022521973 -1.48349 -0.16326904 -2.9191284 -0.58833313 -4.332245c-0.25897217 -1.0837708 -0.3293457 -2.1675415 -0.1182251 -3.2766418c-0.070373535 -1.1062622 -0.3997345 -2.190033 -0.5179596 -3.2738037c-0.2111206 -1.6974182 -0.6108551 -3.3695068 -1.1062775 -4.993744c-0.37721252 -1.1541443 -0.99087524 -2.1224976 -2.0267792 -2.781189c-1.0133972 -0.776947 -1.7424622 -1.8381653 -2.6854858 -2.6854858c-1.176651 -1.0612488 -2.496872 -1.7677917 -4.0507355 -1.8606873c-0.28431702 -0.0140686035 -0.56581116 -0.022521973 -0.8473053 -0.022521973z" fill-rule="evenodd"/></g></svg>