<svg version="1.1" viewBox="0.0 0.0 557.8582677165355 557.8582677165355" fill="none" stroke="none" stroke-linecap="square" stroke-miterlimit="10" xmlns:xlink="http://www.w3.org/1999/xlink" xmlns="http://www.w3.org/2000/svg"><clipPath id="p.0"><path d="m0 0l557.8583 0l0 557.8583l-557.8583 0l0 -557.8583z" clip-rule="nonzero"/></clipPath><g clip-path="url(#p.0)"><path fill="#000000" fill-opacity="0.0" d="m0 0l557.8583 0l0 557.8583l-557.8583 0z" fill-rule="evenodd"/><path fill="#2b67ff" fill-opacity="0.7151" d="m201.02698 104.360794l13.126755 8.926376l-13.126755 8.661324l-12.86171 -8.661324zm0 -10.238152l-23.629974 19.164528l23.629974 17.587708l23.49968 -16.406212zm-75.085785 264.1165l150.43661 0m-138.09602 -21.006409l125.36458 0m-45.02719 -114.33577l10.368423 0c2.6280518 0 4.5957184 0.78616333 6.037781 2.3629913c1.4465485 1.576828 2.1024323 3.6747742 2.1024323 6.4331055c0 1.576828 -0.13027954 3.2794495 -0.6558838 4.725998c-0.5256195 1.5723267 -1.1815033 2.8885956 -2.1024475 3.935318c-0.9164429 1.1815033 -2.0979462 2.1024475 -3.4097137 2.6280518c-1.3162689 0.65589905 -3.0233765 0.9164429 -4.991043 0.9164429l-4.2003937 0l-1.576828 11.028824l-6.2983246 0zm5.3818817 6.0377655l-1.3117828 8.926376l3.409729 0c1.576828 0 2.6280365 -0.39083862 3.414215 -1.3117676c0.78616333 -0.9209442 1.181488 -2.3630066 1.181488 -4.070114c0 -1.181488 -0.26055908 -1.9676666 -0.78616333 -2.6235504c-0.52560425 -0.6558838 -1.4465485 -0.9209442 -2.4932709 -0.9209442zm-24.0253 -6.0377655l6.1725464 0l-4.725998 32.03073l-6.302826 0zm-25.202301 14.1779785c1.4465485 0 2.4932709 -0.3953247 3.2839355 -1.3117828c0.65589905 -0.7906494 1.0467224 -2.1024323 1.0467224 -3.8095398c0 -1.0467224 -0.26055908 -1.8373871 -0.78616333 -2.2282257c-0.3953247 -0.52560425 -1.1815033 -0.7906647 -2.3629913 -0.7906647l-2.6235504 0l-1.1815033 8.140213zm-3.414215 5.7772064l-1.8373871 12.075546l-6.2983246 0l4.725998 -32.03073l9.3172 0c2.6280518 0 4.725998 0.6558838 6.037781 1.9676666c1.4465485 1.3162689 2.1024323 3.2839355 2.1024323 5.907486c0 2.4977722 -0.52560425 4.725998 -1.576828 6.302826c-1.1815033 1.7071075 -2.6235504 2.6235504 -4.4609375 2.8886108c0.78616333 0.26055908 1.5723267 0.78616333 2.0979462 1.7071075c0.52560425 0.9164429 1.0512085 2.3629913 1.4465485 4.2003784l2.0979462 9.056656l-6.1680603 0l-1.8373871 -7.8751526c-0.3953247 -1.576828 -0.92092896 -2.7583313 -1.4465485 -3.2839355c-0.5211029 -0.65589905 -1.181488 -0.91645813 -2.2282104 -0.91645813zm-54.739754 139.80313l167.89853 0l0 -24.416138l-8.140198 0l0 -21.006409l-12.731445 0l0 -158.83737c0 0 0 -47.520477 -62.619385 -47.520477c-62.745193 0 -62.745193 47.915802 -62.745193 47.915802l0 158.44205l-12.340591 0l0 21.006409l-9.321709 0l0 24.416138z" fill-rule="evenodd"/><path fill="#2b67ff" fill-opacity="0.7151" d="m215.29506 279.32428l0 0c2.432907 -0.34146118 4.841339 0.77960205 6.203308 2.8874817c1.361969 2.1078796 1.4386139 4.8328857 0.19741821 7.018738l0 0c1.4145813 0.7742615 2.3912659 2.1914368 2.634613 3.822815c0.24333191 1.6314087 -0.2752533 3.2854004 -1.3988953 4.4617004l0 0c1.2825623 0.6595764 2.1442719 1.9547119 2.2793732 3.4257812c0.13508606 1.4710693 -0.47557068 2.909912 -1.6152802 3.8059387l0 0c1.3595123 1.1916504 1.9319305 3.0875854 1.4695587 4.8674316c-0.46237183 1.7798462 -1.8764954 3.123932 -3.6304474 3.4506836l0 0c-0.3861084 1.4599609 -1.3676453 2.6760864 -2.6910095 3.3341675c-1.3233795 0.65805054 -2.8587494 0.6935425 -4.209442 0.097229004l0 0c-1.8141327 1.4376221 -4.2314453 1.7739258 -6.3498383 0.88339233c-2.118393 -0.89053345 -3.6195984 -2.8741455 -3.9434052 -5.210541c-1.9881897 -0.016479492 -3.8125153 -1.1411133 -4.769821 -2.9403992c-0.9573059 -1.7993164 -0.8981018 -3.99234 0.15480042 -5.7337646c-2.381195 -0.74176025 -4.133255 -2.8295898 -4.499237 -5.3614197c-0.3659668 -2.5318604 0.7197571 -5.0538635 2.7881165 -6.47641c-1.0195007 -1.7437744 -1.3131866 -3.8361206 -0.8148041 -5.8051147c0.4983673 -1.9689636 1.7468262 -3.6487122 3.463745 -4.6602783l0 0c-0.20217896 -1.7818909 0.69291687 -3.5047607 2.2410583 -4.313507c1.5481262 -0.80877686 3.4197388 -0.53125 4.685959 0.6947632l0 0c0.90704346 -1.5894775 2.7069397 -2.4005432 4.4611053 -2.0102234c1.7541504 0.39031982 3.0650787 1.8935547 3.249176 3.7258606z" fill-rule="evenodd"/><path fill="#000000" fill-opacity="0.0" d="m207.491 277.57343l0 0c-0.42803955 0.75009155 -0.62220764 1.6166382 -0.55644226 2.4832458m-6.3707275 1.1351013c0.042282104 0.37268066 0.13182068 0.7379761 0.26631165 1.0864868m-2.9151459 9.378387c0.38111877 -0.26211548 0.7883606 -0.4815979 1.2148132 -0.6546631m0.49638367 12.49295l0 0c0.4341278 0.13522339 0.88093567 0.22283936 1.3329773 0.26138306m3.2818756 8.412445c2.1167297 0.01751709 4.05484 -1.2225037 4.981842 -3.187439m5.3111725 7.5145264c-0.7207794 -0.3182068 -1.3601837 -0.8039856 -1.8680573 -1.419281m8.768707 -2.0118103l0 0c-0.29107666 0.054229736 -0.58651733 0.079315186 -0.8822479 0.074920654m3.0430603 -8.392883l0 0c-0.33914185 -0.29727173 -0.71810913 -0.5421753 -1.1251221 -0.7270813m0.46116638 -6.50473l0 0c-0.30802917 -0.15838623 -0.6339874 -0.27670288 -0.9703369 -0.35214233m-0.26541138 -7.932495l0 0c-0.26263428 0.4625244 -0.5787506 0.8904114 -0.941391 1.274292m-5.459366 -11.180359l0 0c-0.3353119 0.047058105 -0.6665039 0.12142944 -0.990448 0.22238159" fill-rule="evenodd"/><path stroke="#2b67ff" stroke-width="2.0" stroke-linejoin="round" stroke-linecap="butt" d="m215.29506 279.32428l0 0c2.432907 -0.34146118 4.841339 0.77960205 6.203308 2.8874817c1.361969 2.1078796 1.4386139 4.8328857 0.19741821 7.018738l0 0c1.4145813 0.7742615 2.3912659 2.1914368 2.634613 3.822815c0.24333191 1.6314087 -0.2752533 3.2854004 -1.3988953 4.4617004l0 0c1.2825623 0.6595764 2.1442719 1.9547119 2.2793732 3.4257812c0.13508606 1.4710693 -0.47557068 2.909912 -1.6152802 3.8059387l0 0c1.3595123 1.1916504 1.9319305 3.0875854 1.4695587 4.8674316c-0.46237183 1.7798462 -1.8764954 3.123932 -3.6304474 3.4506836l0 0c-0.3861084 1.4599609 -1.3676453 2.6760864 -2.6910095 3.3341675c-1.3233795 0.65805054 -2.8587494 0.6935425 -4.209442 0.097229004l0 0c-1.8141327 1.4376221 -4.2314453 1.7739258 -6.3498383 0.88339233c-2.118393 -0.89053345 -3.6195984 -2.8741455 -3.9434052 -5.210541c-1.9881897 -0.016479492 -3.8125153 -1.1411133 -4.769821 -2.9403992c-0.9573059 -1.7993164 -0.8981018 -3.99234 0.15480042 -5.7337646c-2.381195 -0.74176025 -4.133255 -2.8295898 -4.499237 -5.3614197c-0.3659668 -2.5318604 0.7197571 -5.0538635 2.7881165 -6.47641c-1.0195007 -1.7437744 -1.3131866 -3.8361206 -0.8148041 -5.8051147c0.4983673 -1.9689636 1.7468262 -3.6487122 3.463745 -4.6602783l0 0c-0.20217896 -1.7818909 0.69291687 -3.5047607 2.2410583 -4.313507c1.5481262 -0.80877686 3.4197388 -0.53125 4.685959 0.6947632l0 0c0.90704346 -1.5894775 2.7069397 -2.4005432 4.4611053 -2.0102234c1.7541504 0.39031982 3.0650787 1.8935547 3.249176 3.7258606z" fill-rule="evenodd"/><path stroke="#2b67ff" stroke-width="2.0" stroke-linejoin="round" stroke-linecap="butt" d="m207.491 277.57343l0 0c-0.42803955 0.75009155 -0.62220764 1.6166382 -0.55644226 2.4832458m-6.3707275 1.1351013c0.042282104 0.37268066 0.13182068 0.7379761 0.26631165 1.0864868m-2.9151459 9.378387c0.38111877 -0.26211548 0.7883606 -0.4815979 1.2148132 -0.6546631m0.49638367 12.49295l0 0c0.4341278 0.13522339 0.88093567 0.22283936 1.3329773 0.26138306m3.2818756 8.412445c2.1167297 0.01751709 4.05484 -1.2225037 4.981842 -3.187439m5.3111725 7.5145264c-0.7207794 -0.3182068 -1.3601837 -0.8039856 -1.8680573 -1.419281m8.768707 -2.0118103l0 0c-0.29107666 0.054229736 -0.58651733 0.079315186 -0.8822479 0.074920654m3.0430603 -8.392883l0 0c-0.33914185 -0.29727173 -0.71810913 -0.5421753 -1.1251221 -0.7270813m0.46116638 -6.50473l0 0c-0.30802917 -0.15838623 -0.6339874 -0.27670288 -0.9703369 -0.35214233m-0.26541138 -7.932495l0 0c-0.26263428 0.4625244 -0.5787506 0.8904114 -0.941391 1.274292m-5.459366 -11.180359l0 0c-0.3353119 0.047058105 -0.6665039 0.12142944 -0.990448 0.22238159" fill-rule="evenodd"/><path fill="#2b67ff" fill-opacity="0.7151" d="m212.98225 288.48187l40.616104 4.4102783l-39.477417 8.845093z" fill-rule="evenodd"/><path fill="#000000" fill-opacity="0.0" d="m254.64616 292.36505l-41.66391 -3.8831787" fill-rule="evenodd"/><path stroke="#2b67ff" stroke-width="1.0" stroke-linejoin="round" stroke-linecap="butt" d="m254.64616 292.36505l-41.66391 -3.8831787" fill-rule="evenodd"/><path fill="#000000" fill-opacity="0.0" d="m253.59836 292.89215l-39.474136 8.846649" fill-rule="evenodd"/><path stroke="#2b67ff" stroke-width="1.0" stroke-linejoin="round" stroke-linecap="butt" d="m253.59836 292.89215l-39.474136 8.846649" fill-rule="evenodd"/><path fill="#000000" d="m298.9325 211.58559c-6.873871 1.6586609 -20.503998 11.610565 -33.65558 21.092041c9.359802 -8.058044 13.151581 -17.300247 28.322754 -24.174118zm80.580414 25.950394c3.434906 0.35687256 23.342773 -7.701172 27.60904 -9.481491c4.266266 -1.7762451 5.4504395 0.35687256 5.4504395 0.35687256c0 0 2.2547913 -2.1331177 6.521057 -3.5565643c4.38385 -1.4193878 13.269196 -1.0665588 14.692627 1.7803192c1.4234314 2.8428192 1.6586609 4.6190643 1.6586609 4.6190643c0 0 2.607605 1.0665741 4.148651 1.7803192c4.38385 2.0114746 4.1445923 7.109085 4.1445923 7.109085l-16.468903 170.40305l-3.7917786 -0.59210205l16.233704 -163.05873c0 0 1.3017578 -7.701172 -0.59210205 -9.242218c-3.0820923 -2.607605 -3.0820923 -0.5920868 -3.0820923 -0.5920868c0 0 1.6586609 2.7252197 -0.23519897 4.148651c-2.0155334 1.4193878 -9.363892 0.5920868 -9.363892 0.5920868l-2.1331177 3.3173065l-2.607605 -0.70970154l1.780304 -4.2662506l-1.4234314 -3.9134521l-5.4504395 0.7137604l2.0155334 8.175644l-3.4389648 4.6231384l-28.675598 11.018463c-10.783264 3.6741638 -23.225159 1.8979187 -26.424866 -7.701172l-8.532501 -11.496994c0 0 -13.630157 13.155655 -17.421936 19.198166c-3.6741638 6.042511 -13.982941 22.75473 -14.339813 26.307251c-0.23522949 3.5565796 -14.575043 -2.1331177 -14.575043 -2.1331177c0 0 32.232178 40.054993 32.82425 46.454376c0.5961304 6.3993835 -6.2777405 27.726624 -9.124603 31.99289c-1.1841736 1.780304 -4.7366943 8.6501465 -6.869812 12.563568c-0.4744873 1.0665588 -0.9489746 -1.1882324 -1.4234314 -0.12164307c-0.59210205 1.1882019 0.11758423 2.607605 -0.4744873 3.6741638c-1.4193726 2.8468628 -0.7096863 8.532532 -0.7096863 8.532532l-4.5055237 0.9489441l-0.35284424 3.434906c0 0 5.4504395 4.266266 10.900879 3.9134521c5.4504395 -0.35687256 15.523987 0.117614746 16.590546 2.842804l1.8979187 4.6231384c0 0 0.35284424 4.7366943 -1.3058167 5.4504395c-1.7762451 0.7096863 -13.151611 0.4744873 -16.590576 0.7096863c-5.3328247 0.35687256 -14.457428 -3.6741638 -14.457428 -3.6741638l-1.0665588 4.0310364l-10.783264 -0.4744873c0 0 -1.3017578 -11.496979 -0.23519897 -13.508453l2.2507324 -4.148651l-1.1841736 -2.9644775c0 0 -2.9644775 -1.4194031 -5.807312 -0.9449158c0 0 0.7096863 -4.5055237 1.8938599 -7.583557c0.5961609 -1.3058472 -0.35281372 -5.807312 0.121673584 -7.7052307c0.35281372 -1.5410461 2.9604187 -1.5410461 3.434906 -3.199707c0.35687256 -1.0665588 -2.1331177 -4.501465 -1.7762451 -5.5680237c1.5410461 -4.266266 2.7252197 -7.9404297 4.1445923 -11.849823c2.1331177 -6.042511 11.140137 -12.798767 6.281769 -18.131622c-4.8583374 -5.3328247 -29.150055 -27.256195 -29.150055 -27.256195l18.366821 26.899323l1.0665588 4.980011c0 0 2.842804 6.5169983 0.9489441 9.716705c-0.9489441 1.7762451 -10.073547 22.868286 -14.931915 34.71811c-0.7096863 1.5410461 -2.1331177 0 -2.7251892 1.3058472c-0.59210205 1.4193726 1.6586304 2.015503 1.1841736 3.0820618c-0.7097168 1.8938904 -1.1841736 3.0780334 -1.1841736 3.0780334c-2.4900208 0.35687256 -3.7917786 1.5410461 -9.481506 0.117614746l-0.35281372 2.7292786c3.3173218 6.1601257 11.849823 5.6856384 19.076508 7.3442993c3.7917786 2.607605 3.0820923 6.04657 1.7762756 9.363861l-15.759216 1.4194031c-7.10907 -0.4744873 -11.018463 -2.1331482 -16.351288 -4.6190796l-0.121673584 3.1996765l-11.728149 -0.35687256l-0.121673584 -8.650116l0.83135986 -5.4504395l2.960434 -1.6586609l3.082077 -4.148651c-4.148651 -0.35687256 -2.607605 -1.7762451 -4.026993 -3.556549l3.5525208 -7.1091003l2.0155182 -0.23519897l-0.23519897 -4.5055237l6.5169983 -11.610565l4.975952 -15.998474c1.3017578 -4.5055237 -4.740753 -13.033997 -6.2817993 -15.167114c-3.9093933 -5.3328247 -15.641602 -20.382355 -16.825775 -27.37384c-0.8313446 -5.3328247 -2.9644775 -13.390869 -1.0665588 -19.555023c1.6586456 -5.685669 4.8583527 -13.151611 4.8583527 -13.151611l-4.3838806 -5.3328247l2.8428345 -5.807312l-0.94895935 -4.266266c0 0 0.8313446 -5.450424 1.8979187 -9.599075l-2.2507477 -5.3328247c-1.3058319 -0.35281372 2.0114746 -14.931915 7.3442993 -27.25621c1.5410461 -3.434906 32.114548 -26.66008 34.96144 -30.92633c2.842804 -4.266266 24.05246 1.7762604 32.58499 3.1996918c8.650116 1.4193878 16.355347 5.6856384 18.36679 4.6190796c2.0155334 -1.0665588 5.2152405 -3.7917786 9.363892 -9.71669c0 0 2.3683472 -5.9249115 0.35687256 -12.677124c-1.0665588 -3.674179 4.8583374 -5.3328247 9.124603 -12.798782c4.266266 -7.4659576 12.794739 -6.9914703 20.499939 -6.9914703c7.701172 0 12.677124 8.175644 17.300262 16.943375c0.7096863 2.6076202 1.3017883 5.215225 1.5410461 8.414917c-0.7096863 9.71669 -0.117614746 8.889389 -2.372406 10.308777c-6.869812 4.266266 -6.27771 17.42192 -11.49295 13.27327c-2.7252197 -2.133133 -9.599091 9.124603 -12.798767 9.124603c-3.3172913 0 -5.807312 -3.9093933 -5.9249268 -5.807312c-0.23519897 -1.8938599 -1.5410461 -2.7252197 -3.6741638 0.23927307c-2.1331177 2.9604187 -4.3838806 4.2662506 -4.3838806 4.2662506c2.7252197 8.528473 18.366821 31.518417 21.805786 31.875305z" fill-rule="evenodd"/><path stroke="#000000" stroke-width="0.38320209973753283" stroke-miterlimit="29.2208" stroke-linecap="butt" d="m298.9325 211.58559c-6.873871 1.6586609 -20.503998 11.610565 -33.65558 21.092041c9.359802 -8.058044 13.151581 -17.300247 28.322754 -24.174118zm80.580414 25.950394c3.434906 0.35687256 23.342773 -7.701172 27.60904 -9.481491c4.266266 -1.7762451 5.4504395 0.35687256 5.4504395 0.35687256c0 0 2.2547913 -2.1331177 6.521057 -3.5565643c4.38385 -1.4193878 13.269196 -1.0665588 14.692627 1.7803192c1.4234314 2.8428192 1.6586609 4.6190643 1.6586609 4.6190643c0 0 2.607605 1.0665741 4.148651 1.7803192c4.38385 2.0114746 4.1445923 7.109085 4.1445923 7.109085l-16.468903 170.40305l-3.7917786 -0.59210205l16.233704 -163.05873c0 0 1.3017578 -7.701172 -0.59210205 -9.242218c-3.0820923 -2.607605 -3.0820923 -0.5920868 -3.0820923 -0.5920868c0 0 1.6586609 2.7252197 -0.23519897 4.148651c-2.0155334 1.4193878 -9.363892 0.5920868 -9.363892 0.5920868l-2.1331177 3.3173065l-2.607605 -0.70970154l1.780304 -4.2662506l-1.4234314 -3.9134521l-5.4504395 0.7137604l2.0155334 8.175644l-3.4389648 4.6231384l-28.675598 11.018463c-10.783264 3.6741638 -23.225159 1.8979187 -26.424866 -7.701172l-8.532501 -11.496994c0 0 -13.630157 13.155655 -17.421936 19.198166c-3.6741638 6.042511 -13.982941 22.75473 -14.339813 26.307251c-0.23522949 3.5565796 -14.575043 -2.1331177 -14.575043 -2.1331177c0 0 32.232178 40.054993 32.82425 46.454376c0.5961304 6.3993835 -6.2777405 27.726624 -9.124603 31.99289c-1.1841736 1.780304 -4.7366943 8.6501465 -6.869812 12.563568c-0.4744873 1.0665588 -0.9489746 -1.1882324 -1.4234314 -0.12164307c-0.59210205 1.1882019 0.11758423 2.607605 -0.4744873 3.6741638c-1.4193726 2.8468628 -0.7096863 8.532532 -0.7096863 8.532532l-4.5055237 0.9489441l-0.35284424 3.434906c0 0 5.4504395 4.266266 10.900879 3.9134521c5.4504395 -0.35687256 15.523987 0.117614746 16.590546 2.842804l1.8979187 4.6231384c0 0 0.35284424 4.7366943 -1.3058167 5.4504395c-1.7762451 0.7096863 -13.151611 0.4744873 -16.590576 0.7096863c-5.3328247 0.35687256 -14.457428 -3.6741638 -14.457428 -3.6741638l-1.0665588 4.0310364l-10.783264 -0.4744873c0 0 -1.3017578 -11.496979 -0.23519897 -13.508453l2.2507324 -4.148651l-1.1841736 -2.9644775c0 0 -2.9644775 -1.4194031 -5.807312 -0.9449158c0 0 0.7096863 -4.5055237 1.8938599 -7.583557c0.5961609 -1.3058472 -0.35281372 -5.807312 0.121673584 -7.7052307c0.35281372 -1.5410461 2.9604187 -1.5410461 3.434906 -3.199707c0.35687256 -1.0665588 -2.1331177 -4.501465 -1.7762451 -5.5680237c1.5410461 -4.266266 2.7252197 -7.9404297 4.1445923 -11.849823c2.1331177 -6.042511 11.140137 -12.798767 6.281769 -18.131622c-4.8583374 -5.3328247 -29.150055 -27.256195 -29.150055 -27.256195l18.366821 26.899323l1.0665588 4.980011c0 0 2.842804 6.5169983 0.9489441 9.716705c-0.9489441 1.7762451 -10.073547 22.868286 -14.931915 34.71811c-0.7096863 1.5410461 -2.1331177 0 -2.7251892 1.3058472c-0.59210205 1.4193726 1.6586304 2.015503 1.1841736 3.0820618c-0.7097168 1.8938904 -1.1841736 3.0780334 -1.1841736 3.0780334c-2.4900208 0.35687256 -3.7917786 1.5410461 -9.481506 0.117614746l-0.35281372 2.7292786c3.3173218 6.1601257 11.849823 5.6856384 19.076508 7.3442993c3.7917786 2.607605 3.0820923 6.04657 1.7762756 9.363861l-15.759216 1.4194031c-7.10907 -0.4744873 -11.018463 -2.1331482 -16.351288 -4.6190796l-0.121673584 3.1996765l-11.728149 -0.35687256l-0.121673584 -8.650116l0.83135986 -5.4504395l2.960434 -1.6586609l3.082077 -4.148651c-4.148651 -0.35687256 -2.607605 -1.7762451 -4.026993 -3.556549l3.5525208 -7.1091003l2.0155182 -0.23519897l-0.23519897 -4.5055237l6.5169983 -11.610565l4.975952 -15.998474c1.3017578 -4.5055237 -4.740753 -13.033997 -6.2817993 -15.167114c-3.9093933 -5.3328247 -15.641602 -20.382355 -16.825775 -27.37384c-0.8313446 -5.3328247 -2.9644775 -13.390869 -1.0665588 -19.555023c1.6586456 -5.685669 4.8583527 -13.151611 4.8583527 -13.151611l-4.3838806 -5.3328247l2.8428345 -5.807312l-0.94895935 -4.266266c0 0 0.8313446 -5.450424 1.8979187 -9.599075l-2.2507477 -5.3328247c-1.3058319 -0.35281372 2.0114746 -14.931915 7.3442993 -27.25621c1.5410461 -3.434906 32.114548 -26.66008 34.96144 -30.92633c2.842804 -4.266266 24.05246 1.7762604 32.58499 3.1996918c8.650116 1.4193878 16.355347 5.6856384 18.36679 4.6190796c2.0155334 -1.0665588 5.2152405 -3.7917786 9.363892 -9.71669c0 0 2.3683472 -5.9249115 0.35687256 -12.677124c-1.0665588 -3.674179 4.8583374 -5.3328247 9.124603 -12.798782c4.266266 -7.4659576 12.794739 -6.9914703 20.499939 -6.9914703c7.701172 0 12.677124 8.175644 17.300262 16.943375c0.7096863 2.6076202 1.3017883 5.215225 1.5410461 8.414917c-0.7096863 9.71669 -0.117614746 8.889389 -2.372406 10.308777c-6.869812 4.266266 -6.27771 17.42192 -11.49295 13.27327c-2.7252197 -2.133133 -9.599091 9.124603 -12.798767 9.124603c-3.3172913 0 -5.807312 -3.9093933 -5.9249268 -5.807312c-0.23519897 -1.8938599 -1.5410461 -2.7252197 -3.6741638 0.23927307c-2.1331177 2.9604187 -4.3838806 4.2662506 -4.3838806 4.2662506c2.7252197 8.528473 18.366821 31.518417 21.805786 31.875305z" fill-rule="evenodd"/></g></svg>